Source-HROTd_VROTn_SLENx_SANGx.ufo
<glyph name="exclam" format="2">
  <advance width="291"/>
  <unicode hex="0021"/>
  <outline>
    <contour>
      <point x="123" y="204" type="curve" name="UAXKFEJM"/>
      <point x="169" y="210" name="JZTQKWYQ"/>
      <point x="226" y="210" name="RJTDFYQY"/>
      <point x="288" y="204" type="curve" name="JLGIOBAH"/>
      <point x="262" y="326" name="IRLRDUYS"/>
      <point x="307" y="398" name="RQQKQTGE"/>
      <point x="425" y="418" type="curve" name="JWFWBWSW"/>
      <point x="357" y="425" name="YOEJJLCK"/>
      <point x="298" y="425" name="UMWPQGKG"/>
      <point x="250" y="418" type="curve" name="GDEEWQYC"/>
      <point x="136" y="398" name="EBJJZEHF"/>
      <point x="93" y="326" name="BXXBTHPD"/>
    </contour>
    <contour>
      <point x="330" y="-68" type="curve" name="OODAGBVF"/>
      <point x="387" y="-68" name="ZPPAXNKC"/>
      <point x="407" y="-15" name="RMONFRVX"/>
      <point x="375" y="48" type="curve" smooth="yes" name="VXVRKXLC"/>
      <point x="344" y="109" name="XOPGMKUX"/>
      <point x="271" y="160" name="LRDJWFZK"/>
      <point x="214" y="160" type="curve" smooth="yes" name="YTRAWADO"/>
      <point x="155" y="160" name="MNWYLZWF"/>
      <point x="132" y="110" name="PVZUHHUI"/>
      <point x="164" y="48" type="curve" smooth="yes" name="WHJTEWIT"/>
      <point x="196" y="-15" name="NGNRPXOQ"/>
      <point x="271" y="-68" name="EQRVHCZD"/>
      <point x="330" y="-68" type="curve" name="LLRNFALR"/>
      <point x="330" y="-68" name="JUAKAZAP"/>
      <point x="330" y="-68" name="LUBASZZH"/>
    </contour>
  </outline>
</glyph>
<glyph name="quotedbl" format="2">
  <advance width="518"/>
  <unicode hex="0022"/>
  <outline>
    <contour>
      <point x="233" y="245" type="curve" name="EVFVTJUV"/>
      <point x="271" y="251" name="PMFATXSO"/>
      <point x="313" y="255" name="QOYJDMDH"/>
      <point x="358" y="256" type="curve" name="QALGNULM"/>
      <point x="289" y="374" name="IZWGUSOZ"/>
      <point x="292" y="443" name="ZADWENJV"/>
      <point x="372" y="456" type="curve" name="AVJUDPEJ"/>
      <point x="317" y="455" name="UCMJBLIP"/>
      <point x="267" y="450" name="YXJAPLRB"/>
      <point x="222" y="442" type="curve" name="VVFOKXFV"/>
      <point x="151" y="430" name="ITFFOEUI"/>
      <point x="155" y="362" name="WYOQOPBT"/>
    </contour>
    <contour>
      <point x="438" y="256" type="curve" name="FOQCWLRM"/>
      <point x="487" y="255" name="XTGBYHFC"/>
      <point x="539" y="251" name="ITVPZLSS"/>
      <point x="595" y="245" type="curve" name="NLHAAEWI"/>
      <point x="527" y="362" name="HWVADHWE"/>
      <point x="531" y="430" name="UJZCGVVM"/>
      <point x="612" y="442" type="curve" name="BJYAGNWU"/>
      <point x="545" y="450" name="PQDEADLN"/>
      <point x="481" y="455" name="TUYEDZTR"/>
      <point x="424" y="456" type="curve" name="HHURZUGO"/>
      <point x="354" y="443" name="HQPSVKNJ"/>
      <point x="359" y="374" name="AGSEPNXI"/>
    </contour>
  </outline>
</glyph>
<glyph name="numbersign" format="2">
  <advance width="700"/>
  <unicode hex="0023"/>
  <outline>
    <contour>
      <point x="156.0" y="97.97204204489228" type="curve" name="WLCAJSKW"/>
      <point x="182.0" y="102.21468273201157" name="CGIMXGFU"/>
      <point x="210.0" y="106.45732341913083" name="JCPASQMQ"/>
      <point x="238.0" y="109.28575054387704" type="curve" name="WRXWDCEM"/>
      <point x="256.0" y="59.788275860818715" name="EFWYVPSJ"/>
      <point x="284.0" y="1.805519803521804" name="NNFADKOI"/>
      <point x="319.0" y="-59.712770159707816" type="curve" name="FALZDRPE"/>
      <point x="361.0" y="-55.47012947258855" name="QOUUEFAY"/>
      <point x="405.0" y="-51.93459556665579" name="OYTMYEGJ"/>
      <point x="450.0" y="-49.813275223096184" type="curve" name="IFRAQAVL"/>
      <point x="416.0" y="10.99790795894691" name="BUFQPOXA"/>
      <point x="389.0" y="68.27355723505727" name="PAABLOYR"/>
      <point x="370.0" y="118.47813869930215" type="curve" name="ZNKFKHXV"/>
      <point x="400.0" y="119.1852454804887" name="LSDSGIEK"/>
      <point x="431.0" y="119.89235226167526" name="DRFRMHVG"/>
      <point x="463.0" y="119.1852454804887" type="curve" name="XELIXJXZ"/>
      <point x="481.0" y="69.68777079743037" name="FSFFXWMF"/>
      <point x="508.0" y="12.412121521320017" name="ORRAVAKS"/>
      <point x="543.0" y="-49.10616844190963" type="curve" name="VSXAMVEH"/>
      <point x="591.0" y="-49.10616844190963" name="ZHULKECF"/>
      <point x="643.0" y="-51.22748878546929" name="VHETGCWB"/>
      <point x="697.0" y="-55.47012947258855" type="curve" name="XPFBGXKO"/>
      <point x="663.0" y="5.341053709454542" name="IEUYQIKG"/>
      <point x="636.0" y="62.6167029855649" name="FAJGZDQC"/>
      <point x="618.0" y="112.11417766862323" type="curve" name="UIEVDOEO"/>
      <point x="665.0" y="108.57864376269049" name="DHLLIDRS"/>
      <point x="716.0" y="103.62889629438465" name="SPFEVIDT"/>
      <point x="766.0" y="97.97204204489228" type="curve" name="DGDTKPVG"/>
      <point x="745.0" y="146.76240994676405" name="EXPEDSXB"/>
      <point x="730.0" y="192.0172439427031" name="STWQPASJ"/>
      <point x="725.0" y="229.49390334559013" type="curve" name="MMTJAJBY"/>
      <point x="679.0" y="234.44365081389594" name="RMRTCWNJ"/>
      <point x="633.0" y="239.3933982822018" name="UMIBGLEA"/>
      <point x="589.0" y="242.92893218813452" type="curve" name="NTXPTRFO"/>
      <point x="589.0" y="267.6776695296637" name="YVCVWTBH"/>
      <point x="591.0" y="291.7193000900063" name="USWOGJFL"/>
      <point x="598.0" y="311.5182899632296" type="curve" name="ULMTKQXZ"/>
      <point x="639.0" y="307.9827560572969" name="YKDZYQOB"/>
      <point x="682.0" y="303.7401153701776" name="TJICZUYV"/>
      <point x="725.0" y="298.7903679018718" type="curve" name="FKLRHGHR"/>
      <point x="731.0" y="328.4888527117068" name="TQDRTYOT"/>
      <point x="745.0" y="353.237590053236" name="BDWDUVNY"/>
      <point x="766.0" y="372.32947314527274" type="curve" name="TNFZWQOJ"/>
      <point x="728.0" y="376.572113832392" name="XHJMHBKC"/>
      <point x="688.0" y="380.8147545195113" name="WFRTLXZU"/>
      <point x="652.0" y="383.6431816442575" type="curve" name="ILXQELDY"/>
      <point x="678.0" y="402.0279579551077" name="GVODWECO"/>
      <point x="714.0" y="414.7558800164656" name="QOXYUTSO"/>
      <point x="757.0" y="421.1198410471445" type="curve" name="WCNNKUST"/>
      <point x="703.0" y="425.36248173426384" name="CMTXNADU"/>
      <point x="649.0" y="428.89801564019655" name="ABOLKTYH"/>
      <point x="598.0" y="431.01933598375615" type="curve" name="XWVGQYPM"/>
      <point x="556.0" y="423.94826817189073" name="AEDECHMV"/>
      <point x="521.0" y="410.51323932934633" name="MPWMATWO"/>
      <point x="494.0" y="392.8355697996826" type="curve" name="ITBUSSII"/>
      <point x="462.0" y="393.54267658086917" name="WZTZKBUF"/>
      <point x="429.0" y="394.2497833620557" name="EFAZFHTJ"/>
      <point x="399.0" y="393.54267658086917" type="curve" name="AOVESEIU"/>
      <point x="425.0" y="411.9274528917194" name="RCMIKPSW"/>
      <point x="460.0" y="425.36248173426384" name="ZQQXYHRK"/>
      <point x="503.0" y="431.7264427649427" type="curve" name="HDBEAIXR"/>
      <point x="455.0" y="431.7264427649427" name="ZWIIDOAO"/>
      <point x="409.0" y="429.60512242138304" name="BKTFVCTH"/>
      <point x="367.0" y="425.36248173426384" type="curve" name="FAHVKATE"/>
      <point x="325.0" y="418.2914139223983" name="IKELXBQT"/>
      <point x="290.0" y="404.8563850798539" name="MGJUKKCD"/>
      <point x="264.0" y="386.4716087690037" type="curve" name="WXNNFZMD"/>
      <point x="227.0" y="382.936074863071" name="FVKIDLXL"/>
      <point x="190.0" y="377.9863273947651" name="VPBWBPGK"/>
      <point x="156.0" y="372.32947314527274" type="curve" name="ORWHUKHV"/>
      <point x="135.0" y="353.237590053236" name="BYQNKLQW"/>
      <point x="120.0" y="329.19595949289334" name="RHMAUBDT"/>
      <point x="115.0" y="298.7903679018718" type="curve" name="IHBTWHIK"/>
      <point x="147.0" y="303.7401153701776" name="SYELDFJY"/>
      <point x="179.0" y="308.68986283848346" name="QMHUKJDK"/>
      <point x="213.0" y="312.2253967444162" type="curve" name="FIULSQYH"/>
      <point x="207.0" y="291.7193000900063" name="FCUOITPM"/>
      <point x="205.0" y="267.6776695296637" name="NHSUWTER"/>
      <point x="206.0" y="242.22182540694797" type="curve" name="RPCWAMWU"/>
      <point x="175.0" y="238.68629150101523" name="ZNQSBWEW"/>
      <point x="144.0" y="234.44365081389594" name="CPGKOSAY"/>
      <point x="115.0" y="229.49390334559013" type="curve" name="PUBXJADW"/>
      <point x="121.0" y="191.31013716151654" name="GFRFAJDX"/>
      <point x="135.0" y="146.76240994676405" name="BIYWFHCK"/>
    </contour>
    <contour>
      <point x="340.0" y="250.0" type="curve" name="RAUPZEOD"/>
      <point x="339.0" y="275.4558441227157" name="VKGBLWBA"/>
      <point x="341.0" y="299.49747468305833" name="TFRVISVQ"/>
      <point x="348.0" y="319.29646455628165" type="curve" name="BRBZPIBD"/>
      <point x="378.0" y="320.0035713374682" name="LHWLNCUW"/>
      <point x="410.0" y="320.0035713374682" name="OJDSNMMP"/>
      <point x="442.0" y="319.29646455628165" type="curve" name="BUNDUIBA"/>
      <point x="435.0" y="299.49747468305833" name="CWVCUAOR"/>
      <point x="433.0" y="275.4558441227157" name="OVZJSFNT"/>
      <point x="434.0" y="250.0" type="curve" name="GVYDDTEE"/>
      <point x="402.0" y="250.70710678118655" name="IMQSBGIH"/>
      <point x="370.0" y="250.70710678118655" name="TMZKKUZW"/>
    </contour>
  </outline>
</glyph>
<glyph name="dollar" format="2">
  <advance width="500"/>
  <unicode hex="0024"/>
  <outline>
    <contour>
      <point x="354" y="-140" type="curve" name="MREWAKZL"/>
      <point x="399" y="-137" name="PWLLZUNA"/>
      <point x="448" y="-135" name="IFPBRVII"/>
      <point x="499" y="-137" type="curve" name="NMHXINIV"/>
      <point x="469" y="-84" name="ADDDFKVY"/>
      <point x="442" y="-34" name="WCOWEQYW"/>
      <point x="421" y="13" type="curve" name="JNCYRCZK"/>
      <point x="514" y="32" name="MOPYVEKG"/>
      <point x="564" y="89" name="MPFZLMOE"/>
      <point x="539" y="181" type="curve" smooth="yes" name="VVVZLZFA"/>
      <point x="490" y="365" name="CFFSYOJC"/>
      <point x="240" y="339" name="TETQMPHL"/>
      <point x="256" y="377" type="curve" smooth="yes" name="KXPJLLLM"/>
      <point x="268" y="402" name="PEVEHJUF"/>
      <point x="369" y="411" name="EXWCKVVY"/>
      <point x="504" y="365" type="curve" name="RYFSMVCX"/>
      <point x="517" y="394" name="XYGKTDXO"/>
      <point x="539" y="419" name="PHLBAKID"/>
      <point x="569" y="437" type="curve" name="BPUDJJUO"/>
      <point x="536" y="444" name="GKSWQDDV"/>
      <point x="503" y="449" name="AVKCTPQR"/>
      <point x="471" y="452" type="curve" name="YLZXHWYC"/>
      <point x="496" y="463" name="FQCFGJGW"/>
      <point x="526" y="471" name="YLHNUNDD"/>
      <point x="560" y="476" type="curve" name="YVWYOALM"/>
      <point x="506" y="479" name="LBKIGCPK"/>
      <point x="454" y="480" name="BPWQESKQ"/>
      <point x="407" y="478" type="curve" name="PYMCDKRG"/>
      <point x="372" y="472" name="DKMEFQVS"/>
      <point x="342" y="463" name="ZVPZPTID"/>
      <point x="315" y="451" type="curve" name="PJSLFBZZ"/>
      <point x="210" y="440" name="APCYNBCW"/>
      <point x="122" y="411" name="DKXIADTE"/>
      <point x="100" y="360" type="curve" smooth="yes" name="PJKZVZIF"/>
      <point x="51" y="249" name="VFSPMIUP"/>
      <point x="326" y="257" name="EZIMYHQG"/>
      <point x="342" y="196" type="curve" smooth="yes" name="DKJKMRAS"/>
      <point x="354" y="150" name="VHFPIQAP"/>
      <point x="227" y="153" name="EWKRXEVQ"/>
      <point x="107" y="181" type="curve" name="ZIWLECKL"/>
      <point x="120" y="133" name="EKYXEOSQ"/>
      <point x="141" y="77" name="KJMOKHHD"/>
      <point x="171" y="17" type="curve" name="EUAZMAHN"/>
      <point x="207" y="11" name="PNQDBFUB"/>
      <point x="244" y="6" name="UAYLJMGL"/>
      <point x="278" y="5" type="curve" name="QZTINQPN"/>
      <point x="299" y="-40" name="PFLQWVGN"/>
      <point x="325" y="-89" name="KTEEQMGJ"/>
    </contour>
  </outline>
</glyph>
<glyph name="percent" format="2">
  <advance width="1023"/>
  <unicode hex="0025"/>
  <outline>
    <contour>
      <point x="287" y="226" type="curve" name="ODEZRPYM"/>
      <point x="394" y="236" name="GXSJKHQY"/>
      <point x="452" y="320" name="THAFYUIW"/>
      <point x="491" y="380" type="curve" smooth="yes" name="DUQVBBNM"/>
      <point x="529" y="440" name="IZKDWQEO"/>
      <point x="528" y="448" name="AYFDDNSM"/>
      <point x="421" y="438" type="curve" smooth="yes" name="EOCAKEHY"/>
      <point x="314" y="428" name="BTVMVHPM"/>
      <point x="168" y="407" name="TOCUQTDQ"/>
      <point x="129" y="347" type="curve" smooth="yes" name="UOPZMRUE"/>
      <point x="91" y="286" name="AGADNCYM"/>
      <point x="180" y="216" name="LMOAGFDN"/>
      <point x="287" y="226" type="curve" name="NEGEVGBO"/>
      <point x="287" y="226" name="NUYALHIW"/>
      <point x="287" y="226" name="QFPNKZTK"/>
    </contour>
    <contour>
      <point x="413" y="-45" type="curve" name="PBSVJATX"/>
      <point x="454" y="-41" name="IDTJSFCY"/>
      <point x="498" y="-38" name="NFFVYXKN"/>
      <point x="543" y="-37" type="curve" name="JDWFHOFB"/>
      <point x="495" y="248" name="YRUEDCMW"/>
      <point x="633" y="409" name="UADLVFYY"/>
      <point x="950" y="436" type="curve" name="CKCWVDKJ"/>
      <point x="898" y="440" name="BMCYJTUR"/>
      <point x="846" y="443" name="CBEZMPKW"/>
      <point x="797" y="444" type="curve" name="OFLWMSBR"/>
      <point x="487" y="412" name="OPWQDTIC"/>
      <point x="357" y="245" name="TAPFQKKJ"/>
    </contour>
    <contour>
      <point x="283" y="321" type="curve" name="YEBCKDJJ"/>
      <point x="244" y="318" name="IVWMLDOY"/>
      <point x="224" y="338" name="BLDOGXIH"/>
      <point x="241" y="364" type="curve" smooth="yes" name="WATACVLF"/>
      <point x="258" y="389" name="LEFWVALE"/>
      <point x="297" y="402" name="YCUFSAEB"/>
      <point x="336" y="406" type="curve" smooth="yes" name="YBYEDOWN"/>
      <point x="375" y="409" name="MITFRWRT"/>
      <point x="382" y="400" name="VKQEACIU"/>
      <point x="365" y="375" type="curve" smooth="yes" name="OCRKKIZK"/>
      <point x="348" y="349" name="CJGTPRMG"/>
      <point x="322" y="325" name="EYIVCHYN"/>
      <point x="283" y="321" type="curve" name="DCTPUHVN"/>
      <point x="283" y="321" name="JYFXUJOM"/>
      <point x="283" y="321" name="NCFDZHPO"/>
    </contour>
    <contour>
      <point x="966" y="-63" type="curve" name="VYUCDSSR"/>
      <point x="1101" y="-73" name="HBKLRHTY"/>
      <point x="1120" y="39" name="FPTLHBFY"/>
      <point x="1081" y="154" type="curve" smooth="yes" name="NEBQZEJU"/>
      <point x="1044" y="267" name="XHOIEWUJ"/>
      <point x="967" y="329" name="QSXTDIPO"/>
      <point x="832" y="339" type="curve" smooth="yes" name="YBYJBUPV"/>
      <point x="697" y="349" name="XBJKWSYO"/>
      <point x="589" y="301" name="XFXDVGJY"/>
      <point x="627" y="187" type="curve" smooth="yes" name="ZOZVBVAX"/>
      <point x="665" y="72" name="JNVXYFGT"/>
      <point x="831" y="-53" name="GOVFRRXY"/>
      <point x="966" y="-63" type="curve" name="XWCLZMTK"/>
      <point x="966" y="-63" name="PGYWWPNS"/>
      <point x="966" y="-63" name="YTPTFVZM"/>
    </contour>
    <contour>
      <point x="881" y="90" type="curve" name="ZXJJWDYX"/>
      <point x="832" y="93" name="VJMKLGJW"/>
      <point x="785" y="133" name="ZDDEGLGX"/>
      <point x="769" y="182" type="curve" smooth="yes" name="WFNZQMMY"/>
      <point x="753" y="231" name="OIUDZFPK"/>
      <point x="779" y="253" name="SOCBKLJT"/>
      <point x="828" y="250" type="curve" smooth="yes" name="ZCXMDSRR"/>
      <point x="877" y="246" name="AUEKXZMS"/>
      <point x="910" y="219" name="PQZNHRUO"/>
      <point x="926" y="170" type="curve" smooth="yes" name="DUZRNUJC"/>
      <point x="942" y="121" name="OTUEDTVU"/>
      <point x="930" y="86" name="OFVJHMIQ"/>
      <point x="881" y="90" type="curve" name="IVBNGEYH"/>
      <point x="881" y="90" name="QYGCKMNB"/>
      <point x="881" y="90" name="CTDLKJXZ"/>
    </contour>
  </outline>
</glyph>
<glyph name="quotesingle" format="2">
  <advance width="297"/>
  <unicode hex="0027"/>
  <outline>
    <contour>
      <point x="228.0" y="248.5857864376269" type="curve" name="JGTRZAPL"/>
      <point x="267.0" y="254.2426406871193" name="HONEDBDD"/>
      <point x="314.0" y="254.2426406871193" name="AZTCUOZT"/>
      <point x="369.0" y="248.5857864376269" type="curve" name="QPBVZXCK"/>
      <point x="300.0" y="366.6726188957804" name="IQWPWNJX"/>
      <point x="305.0" y="433.84776310850236" name="SKIUGXAW"/>
      <point x="385.0" y="446.5756851698602" type="curve" name="UKBAWALT"/>
      <point x="318.0" y="454.35385976291224" name="PCPBNEXQ"/>
      <point x="261.0" y="454.35385976291224" name="CNPISUNK"/>
      <point x="216.0" y="446.5756851698602" type="curve" name="GZUKBZVK"/>
      <point x="146.0" y="433.84776310850236" name="SBGHDKGK"/>
      <point x="149.0" y="366.6726188957804" name="RXNEVKJO"/>
    </contour>
  </outline>
</glyph>
<glyph name="parenleft" format="2">
  <advance width="462"/>
  <unicode hex="0028"/>
  <outline>
    <contour>
      <point x="61.0" y="266.97056274847716" type="curve" name="VMFXUQZJ"/>
      <point x="61.0" y="48.47456736183395" name="UWUEBLLE"/>
      <point x="389.0" y="-162.24325343175724" name="XQZJCYWS"/>
      <point x="660.0" y="-223.76154339498686" type="curve" name="RGLKUTYJ"/>
      <point x="621.0" y="-161.53614665057069" name="ECBZVVSO"/>
      <point x="586.0" y="-100.01785668734107" name="TYAJLQFP"/>
      <point x="559.0" y="-46.27774131716342" type="curve" name="PRRVVONE"/>
      <point x="373.0" y="10.99790795894691" name="QAKZKTMX"/>
      <point x="209.0" y="127.67052685472727" name="JLMOUZMY"/>
      <point x="209.0" y="281.1126983722081" type="curve" smooth="yes" name="LHQHLSPC"/>
      <point x="209.0" y="434.5548698896889" name="QULCMSTI"/>
      <point x="373.0" y="452.23253941935263" name="RSYBTUGG"/>
      <point x="559.0" y="443.0401512639275" type="curve" name="ZJMHXBGB"/>
      <point x="586.0" y="458.5965004500315" name="YIWWYEQY"/>
      <point x="621.0" y="470.61731573020285" name="WXVEGDHL"/>
      <point x="660.0" y="477.6883835420683" type="curve" name="QUYSQMMM"/>
      <point x="389.0" y="503.85133444597056" name="MCKZPVFH"/>
      <point x="61.0" y="485.46655813512035" name="NABVQEGJ"/>
      <point x="61.0" y="266.97056274847716" type="curve" name="IYCPXMDS"/>
      <point x="61.0" y="266.97056274847716" name="KJJDORET"/>
      <point x="61.0" y="266.97056274847716" name="XOMFOSNH"/>
    </contour>
  </outline>
</glyph>
<glyph name="parenright" format="2">
  <advance width="462"/>
  <unicode hex="0029"/>
  <outline>
    <contour>
      <point x="462.0" y="267.6776695296637" type="curve" name="CFZXSOZO"/>
      <point x="462.0" y="486.17366491630685" name="NUGYHDQM"/>
      <point x="406.0" y="504.5584412271571" name="CGWCQPZJ"/>
      <point x="259.0" y="478.3954903232549" type="curve" name="TFVPONMG"/>
      <point x="219.0" y="471.3244225113894" name="LNWZSQJZ"/>
      <point x="186.0" y="459.30360723121805" name="FSGAARZB"/>
      <point x="158.0" y="443.747258045114" type="curve" name="JZEJAAGD"/>
      <point x="250.0" y="452.9396462005392" name="RYDFHPYN"/>
      <point x="274.0" y="435.26197667087547" name="HEWTQGKQ"/>
      <point x="274.0" y="281.81980515339467" type="curve" smooth="yes" name="NXPAYOTK"/>
      <point x="274.0" y="128.3776336359138" name="ZCUXEGZV"/>
      <point x="250.0" y="11.705014740133464" name="YRDFVQEU"/>
      <point x="158.0" y="-45.570634535976865" type="curve" name="YKZMZONH"/>
      <point x="186.0" y="-100.72496346852762" name="OLOFRWRF"/>
      <point x="219.0" y="-159.41482630701103" name="HSWRWBCG"/>
      <point x="259.0" y="-223.0544366138003" type="curve" name="TODXZAQP"/>
      <point x="406.0" y="-161.53614665057069" name="DXOMSVJK"/>
      <point x="462.0" y="49.1816741430205" name="EXSVLKQH"/>
      <point x="462.0" y="267.6776695296637" type="curve" name="AABYDFWP"/>
      <point x="462.0" y="267.6776695296637" name="MDWEDGZA"/>
      <point x="462.0" y="267.6776695296637" name="LFUXIMDL"/>
    </contour>
  </outline>
</glyph>
<glyph name="plus" format="2">
  <advance width="540"/>
  <unicode hex="002B"/>
  <outline>
    <contour>
      <point x="135" y="169" type="curve" name="FDPRJIMK"/>
      <point x="175" y="176" name="HJJTOGSE"/>
      <point x="219" y="181" name="MEVKMNSR"/>
      <point x="265" y="184" type="curve" name="UHITOGNQ"/>
      <point x="279" y="138" name="FMELZZAB"/>
      <point x="308" y="80" name="NQDXZRLY"/>
      <point x="349" y="14" type="curve" name="IBUMNBUX"/>
      <point x="398" y="16" name="UICZIOOE"/>
      <point x="453" y="16" name="APOFULXX"/>
      <point x="508" y="14" type="curve" name="ZNJYEAZW"/>
      <point x="467" y="80" name="XFCVPFQL"/>
      <point x="439" y="137" name="TGPJDJQT"/>
      <point x="424" y="184" type="curve" name="SQJNUUZI"/>
      <point x="478" y="181" name="EHZMGZTG"/>
      <point x="535" y="176" name="UCZDNFWJ"/>
      <point x="595" y="169" type="curve" name="IBAYCNLQ"/>
      <point x="581" y="215" name="MOMJFSRA"/>
      <point x="581" y="253" name="IUPBAOBH"/>
      <point x="595" y="279" type="curve" name="XLAADHGV"/>
      <point x="535" y="286" name="YSYMROCD"/>
      <point x="478" y="291" name="MEBASWBG"/>
      <point x="424" y="294" type="curve" name="ZCFKCFPC"/>
      <point x="438" y="321" name="WUQWPFEX"/>
      <point x="467" y="338" name="OKGOEGXT"/>
      <point x="508" y="346" type="curve" name="ISBLBOZI"/>
      <point x="453" y="348" name="WRTMRGZL"/>
      <point x="398" y="348" name="GUUZQKSA"/>
      <point x="349" y="346" type="curve" name="LXDQWQHZ"/>
      <point x="308" y="338" name="LFCERDUJ"/>
      <point x="279" y="321" name="RKWEMFZU"/>
      <point x="265" y="294" type="curve" name="KVERUCAD"/>
      <point x="219" y="291" name="UKGNOHED"/>
      <point x="175" y="286" name="CIXDLBJO"/>
      <point x="135" y="279" type="curve" name="BMFYFOUT"/>
      <point x="121" y="253" name="LWHSJNGL"/>
      <point x="122" y="215" name="TUPELLBX"/>
    </contour>
  </outline>
</glyph>
<glyph name="comma" format="2">
  <advance width="297"/>
  <unicode hex="002C"/>
  <outline>
    <contour>
      <point x="181" y="-106" type="curve" name="HJDGNTEJ"/>
      <point x="220" y="-100" name="IDWTCQML"/>
      <point x="265" y="-98" name="SKUZZZBZ"/>
      <point x="316" y="-100" type="curve" name="PACAEACX"/>
      <point x="267" y="17" name="OLLTEOFE"/>
      <point x="296" y="83" name="ITCEFQLP"/>
      <point x="399" y="93" type="curve" name="REMWPBID"/>
      <point x="332" y="101" name="GBCOJPPA"/>
      <point x="273" y="102" name="CGFRFOXM"/>
      <point x="223" y="98" type="curve" name="DMWWMRIV"/>
      <point x="134" y="84" name="ZTBMLCJP"/>
      <point x="120" y="14" name="RHBIZKAT"/>
    </contour>
  </outline>
</glyph>
<glyph name="hyphen" format="2">
  <advance width="340"/>
  <unicode hex="002D"/>
  <outline>
    <contour>
      <point x="177.0" y="136.15580822896584" type="curve" name="VFCTLOCQ"/>
      <point x="248.0" y="148.88373029032368" name="RKFPDWFD"/>
      <point x="340.0" y="148.88373029032368" name="ZDZSYBNE"/>
      <point x="447.0" y="136.15580822896584" type="curve" name="EWPAZIIM"/>
      <point x="406.0" y="201.20963209812822" name="FVTCESTT"/>
      <point x="406.0" y="238.68629150101523" name="WESBWFAT"/>
      <point x="447.0" y="245.7573593128807" type="curve" name="UALKYLGP"/>
      <point x="340.0" y="258.4852813742386" name="BNVUWBGQ"/>
      <point x="248.0" y="258.4852813742386" name="ILMXZRVE"/>
      <point x="177.0" y="245.7573593128807" type="curve" name="MBIIKHTE"/>
      <point x="136.0" y="238.68629150101523" name="SIFOLBNP"/>
      <point x="136.0" y="201.20963209812822" name="CHGNMQCP"/>
    </contour>
  </outline>
</glyph>
<glyph name="period" format="2">
  <advance width="291"/>
  <unicode hex="002E"/>
  <outline>
    <contour>
      <point x="281" y="-34" type="curve" name="HPDBMCYC"/>
      <point x="338" y="-34" name="FUDAENYK"/>
      <point x="355" y="22" name="ALETJSTM"/>
      <point x="355" y="62" type="curve" smooth="yes" name="FWPPLZNK"/>
      <point x="355" y="102" name="STBCOUBB"/>
      <point x="339" y="112" name="IFAZQYYU"/>
      <point x="281" y="113" type="curve" smooth="yes" name="GAPZUYKF"/>
      <point x="222" y="113" name="YGWJUBBU"/>
      <point x="145" y="101" name="ZCFJQCCK"/>
      <point x="144" y="62" type="curve" smooth="yes" name="PDXDJYTK"/>
      <point x="144" y="22" name="DINOKSWK"/>
      <point x="222" y="-34" name="VDMUFHVB"/>
      <point x="281" y="-34" type="curve" name="TWFHQTGS"/>
      <point x="281" y="-34" name="RKAKJCEB"/>
      <point x="281" y="-34" name="RIECIRXD"/>
    </contour>
  </outline>
</glyph>
<glyph name="slash" format="2">
  <advance width="490"/>
  <unicode hex="002F"/>
  <outline>
    <contour>
      <point x="229.0" y="-198.30569927227117" type="curve" name="CVBLIYYT"/>
      <point x="273.0" y="-191.2346314604057" name="XLSMZMNG"/>
      <point x="322.0" y="-185.57777721091333" name="REABMJMB"/>
      <point x="373.0" y="-183.45645686735367" type="curve" name="SZRTWRMH"/>
      <point x="221.0" y="211.10912703473988" name="DYHDTXTX"/>
      <point x="330.0" y="429.60512242138304" name="GNVDROCX"/>
      <point x="694.0" y="459.30360723121805" type="curve" name="UKDBENLA"/>
      <point x="630.0" y="466.3746750430836" name="QZOTLQVD"/>
      <point x="565.0" y="472.0315292925759" name="HSYWTHCZ"/>
      <point x="508.0" y="474.15284963613556" type="curve" name="LZMYDINM"/>
      <point x="158.0" y="434.5548698896889" name="RQXYKCYO"/>
      <point x="63.0" y="206.15937956643404" name="GJTNYQOH"/>
    </contour>
  </outline>
</glyph>
<glyph name="zero" format="2">
  <advance width="646"/>
  <unicode hex="0030"/>
  <outline>
    <contour>
      <point x="498" y="-58" type="curve" name="JCLLKVNE"/>
      <point x="674" y="-58" name="YLBIUNVB"/>
      <point x="684" y="128" name="QXXUKDQE"/>
      <point x="685" y="272" type="curve" smooth="yes" name="ADLBBRLG"/>
      <point x="685" y="415" name="KPHUAMZG"/>
      <point x="674" y="443" name="LKYYWCMB"/>
      <point x="498" y="443" type="curve" smooth="yes" name="AJKWJNAX"/>
      <point x="321" y="443" name="WIVXJFYO"/>
      <point x="89" y="415" name="AXRWYRFM"/>
      <point x="89" y="272" type="curve" smooth="yes" name="VNJZYOHT"/>
      <point x="88" y="128" name="ZABEZIXE"/>
      <point x="321" y="-58" name="LZTXSQOY"/>
      <point x="498" y="-58" type="curve" name="LKTHCLSV"/>
      <point x="498" y="-58" name="MYLUDVBO"/>
      <point x="498" y="-58" name="DPJDCWKL"/>
    </contour>
    <contour>
      <point x="397" y="130" type="curve" name="RGSRAABT"/>
      <point x="318" y="130" name="RTZPKZBT"/>
      <point x="237" y="208" name="NUCPQFCF"/>
      <point x="237" y="289" type="curve" smooth="yes" name="VKGVJYUO"/>
      <point x="237" y="371" name="YERMFHMG"/>
      <point x="318" y="397" name="SONLDSIA"/>
      <point x="397" y="397" type="curve" smooth="yes" name="LCKSUWPX"/>
      <point x="476" y="397" name="FSQSCHNX"/>
      <point x="487" y="370" name="RCASAPNO"/>
      <point x="487" y="289" type="curve" smooth="yes" name="DNAHTOYF"/>
      <point x="487" y="208" name="BFCJIWWA"/>
      <point x="476" y="130" name="TYILSCMF"/>
      <point x="397" y="130" type="curve" name="KDREFVAJ"/>
      <point x="397" y="130" name="OGEKAJOG"/>
      <point x="397" y="130" name="ZYNHSPFN"/>
    </contour>
  </outline>
</glyph>
<glyph name="one" format="2">
  <advance width="377"/>
  <unicode hex="0031"/>
  <outline>
    <contour>
      <point x="508.0" y="423.94826817189073" type="curve" name="HFQKUCYY"/>
      <point x="376.0" y="434.5548698896889" name="IZGRJZRZ"/>
      <point x="261.0" y="430.3122292025696" name="JSIDABDI"/>
      <point x="170.0" y="411.9274528917194" type="curve" name="TRVQPZHZ"/>
      <point x="136.0" y="398.492424049175" name="KPTQSLRK"/>
      <point x="110.0" y="377.27922061357856" name="WZVYFIVN"/>
      <point x="94.0" y="351.1162697096763" type="curve" name="TSTFPMVY"/>
      <point x="128.0" y="360.3086578651014" name="NNPQPXMV"/>
      <point x="165.0" y="368.0868324581534" name="PAEIJOMP"/>
      <point x="205.0" y="373.0365799264593" type="curve" name="UTDQGBHZ"/>
      <point x="151.0" y="296.6690475583121" name="CBTNRNPC"/>
      <point x="189.0" y="151.00505063388334" name="EPHIMSSE"/>
      <point x="319.0" y="-55.47012947258855" type="curve" name="IYPXVRQE"/>
      <point x="375.0" y="-54.05591591021545" name="LVTUJPXL"/>
      <point x="438.0" y="-56.88434303496166" name="EUYPMYDQ"/>
      <point x="508.0" y="-65.36962440920024" type="curve" name="SMRJENWP"/>
      <point x="326.0" y="224.54415587728428" name="UXBFCHEL"/>
      <point x="326.0" y="391.4213562373095" name="PBUDMPAB"/>
    </contour>
  </outline>
</glyph>
<glyph name="three" format="2">
  <advance width="522"/>
  <unicode hex="0033"/>
  <outline>
    <contour>
      <point x="148.0" y="305.86143571373725" type="curve" name="TWEZKNJQ"/>
      <point x="144.0" y="281.81980515339467" name="GMBVYRCN"/>
      <point x="144.0" y="253.53553390593274" name="XKJODNQB"/>
      <point x="150.0" y="222.42283553372465" type="curve" name="DBSZIJBP"/>
      <point x="264.0" y="247.87867965644037" name="DYGTKBDB"/>
      <point x="373.0" y="230.9081169079632" name="FVZLRSCX"/>
      <point x="391.0" y="175.04668119422595" type="curve" smooth="yes" name="KMLPMJEL"/>
      <point x="411.0" y="114.94260479336941" name="BSYEDFHE"/>
      <point x="272.0" y="115.64971157455597" name="PEDYGYPF"/>
      <point x="138.0" y="143.93398282201787" type="curve" name="ESWIDBTI"/>
      <point x="157.0" y="91.60808101421335" name="KZRUHWNZ"/>
      <point x="188.0" y="29.382684269797153" name="HLZINVGT"/>
      <point x="228.0" y="-37.792459942924836" type="curve" name="FAQIEKHF"/>
      <point x="473.0" y="-90.11836175072938" name="YUUPZCUQ"/>
      <point x="644.0" y="-20.82189719444773" name="IFWGRRKD"/>
      <point x="584.0" y="160.904545570495" type="curve" smooth="yes" name="VGEXZHJZ"/>
      <point x="553.0" y="256.3639610306789" name="NKSHUEVG"/>
      <point x="488.0" y="308.68986283848346" name="EAOJYXYY"/>
      <point x="378.0" y="324.9533188057741" type="curve" name="DIUDXIGO"/>
      <point x="435.0" y="346.16652224137044" name="DBIBOTMK"/>
      <point x="499.0" y="363.1370849898476" name="MFKBXAQY"/>
      <point x="572.0" y="373.0365799264593" type="curve" name="RMNFTGHN"/>
      <point x="595.0" y="393.54267658086917" name="OASWAVBC"/>
      <point x="628.0" y="409.0990257669732" name="JJESOTXZ"/>
      <point x="670.0" y="416.17009357883865" type="curve" name="XOKHRMPS"/>
      <point x="505.0" y="433.84776310850236" name="RVZUJTJW"/>
      <point x="364.0" y="432.43354954612926" name="OINQKVIQ"/>
      <point x="252.0" y="412.63455967290594" type="curve" name="HXJZZDYX"/>
      <point x="210.0" y="405.56349186104046" name="GYUSUUPR"/>
      <point x="176.0" y="390.71424945612296" name="OLBVQFOT"/>
      <point x="154.0" y="369.50104602052653" type="curve" name="NHGVJNDY"/>
      <point x="209.0" y="378.69343417595167" name="OGBGDTDS"/>
      <point x="272.0" y="384.35028842544403" name="BQXNRSJA"/>
      <point x="339.0" y="385.0573952066306" type="curve" name="GISHUNEU"/>
      <point x="265.0" y="366.6726188957804" name="LOOCDEIR"/>
      <point x="200.0" y="339.8025612106915" name="RBNGMKPX"/>
    </contour>
  </outline>
</glyph>
<glyph name="six" format="2">
  <advance width="563"/>
  <unicode hex="0036"/>
  <outline>
    <contour>
      <point x="575.0" y="363.84419177103416" type="curve" name="VHGZTSVD"/>
      <point x="595.0" y="390.0071426749364" name="CTQLOTQR"/>
      <point x="629.0" y="407.6848122046001" name="QLOCYIZJ"/>
      <point x="671.0" y="418.2914139223983" type="curve" name="BAUSJAAO"/>
      <point x="405.0" y="462.13203435596427" name="FBFBIZJE"/>
      <point x="76.0" y="468.4959953866432" name="QCTCWOPB"/>
      <point x="88.0" y="253.53553390593274" type="curve" smooth="yes" name="DJEYSBMJ"/>
      <point x="97.0" y="93.02229457658643" name="UGXTHIMQ"/>
      <point x="311.0" y="-60.41987694089437" name="ZJXOXMYB"/>
      <point x="467.0" y="-61.12698372208092" type="curve" smooth="yes" name="BZFKAFSY"/>
      <point x="621.0" y="-61.12698372208092" name="KERHMUBF"/>
      <point x="653.0" y="62.6167029855649" name="AZJRATWR"/>
      <point x="620.0" y="184.23906934965106" type="curve" smooth="yes" name="AAXPLHXW"/>
      <point x="568.0" y="374.45079348883235" name="ZXLBETSU"/>
      <point x="372.0" y="390.0071426749364" name="CKZJPTLL"/>
      <point x="245.0" y="329.9030662740799" type="curve" name="RFKAYIUN"/>
      <point x="274.0" y="399.9066376115481" name="PWLJUNRL"/>
      <point x="436.0" y="408.3919189857867" name="KKYPNSVA"/>
      <point x="575.0" y="363.84419177103416" type="curve" name="HJKZUOLT"/>
      <point x="575.0" y="363.84419177103416" name="USABNJRZ"/>
      <point x="575.0" y="363.84419177103416" name="OZOLBQTH"/>
    </contour>
    <contour>
      <point x="368.0" y="119.1852454804887" type="curve" name="XAEWDQPP"/>
      <point x="320.0" y="119.1852454804887" name="AYAWEERZ"/>
      <point x="272.0" y="155.2476913210026" name="DTVJRMWR"/>
      <point x="260.0" y="200.50252531694167" type="curve" smooth="yes" name="FXJJYOZH"/>
      <point x="248.0" y="243.63603896932108" name="GXVXUJRH"/>
      <point x="278.0" y="269.09188309203677" name="XLLNRHZC"/>
      <point x="326.0" y="269.09188309203677" type="curve" smooth="yes" name="LGPCOKXW"/>
      <point x="376.0" y="268.3847763108502" name="HCJXTHRO"/>
      <point x="412.0" y="242.92893218813452" name="GSUWATDW"/>
      <point x="425.0" y="197.6740981921955" type="curve" smooth="yes" name="BMHADFTS"/>
      <point x="437.0" y="153.83347775862953" name="NDXTFIDZ"/>
      <point x="417.0" y="119.1852454804887" name="SBPZOSID"/>
      <point x="368.0" y="119.1852454804887" type="curve" name="DSVTVPHR"/>
      <point x="368.0" y="119.1852454804887" name="JTOPGHQW"/>
      <point x="368.0" y="119.1852454804887" name="WXMWCDYB"/>
    </contour>
  </outline>
</glyph>
<glyph name="seven" format="2">
  <advance width="520"/>
  <unicode hex="0037"/>
  <outline>
    <contour>
      <point x="686" y="413" type="curve" name="AYSCDFFV"/>
      <point x="506" y="435" name="CYDQYXOY"/>
      <point x="352" y="435" name="WYXYCGGZ"/>
      <point x="232" y="413" type="curve" name="GNXMGGMT"/>
      <point x="191" y="406" name="IXUCVSQK"/>
      <point x="157" y="391" name="DBJQXAZH"/>
      <point x="135" y="370" type="curve" name="JGKGAFDS"/>
      <point x="207" y="382" name="YEPHFQXA"/>
      <point x="293" y="388" name="ESCZRMLQ"/>
      <point x="387" y="385" type="curve" name="MZOOHEXL"/>
      <point x="234" y="318" name="BDJCGOZB"/>
      <point x="196" y="165" name="DLVAHMPP"/>
      <point x="269" y="-62" type="curve" name="CERNDSQQ"/>
      <point x="319" y="-55" name="JBFLPXPB"/>
      <point x="376" y="-52" name="NABVUJSR"/>
      <point x="435" y="-52" type="curve" name="SIWDVRMP"/>
      <point x="373" y="167" name="GLBPXDVB"/>
      <point x="425" y="310" name="OLVHWJBV"/>
      <point x="589" y="370" type="curve" name="YRUIXLGB"/>
      <point x="611" y="391" name="BMWHWLBK"/>
      <point x="645" y="406" name="MAHHBMKY"/>
    </contour>
  </outline>
</glyph>
<glyph name="colon" format="2">
  <advance width="291"/>
  <unicode hex="003A"/>
  <outline>
    <contour>
      <point x="213" y="256" type="curve" name="MNWNONEL"/>
      <point x="270" y="256" name="YGSGRKBA"/>
      <point x="336" y="277" name="UDOVXUGM"/>
      <point x="364" y="297" type="curve" smooth="yes" name="TMKTVPID"/>
      <point x="392" y="317" name="PDMXMHST"/>
      <point x="373" y="330" name="EVORXJED"/>
      <point x="316" y="330" type="curve" smooth="yes" name="BSHFKHBD"/>
      <point x="257" y="330" name="WZWTGEBA"/>
      <point x="181" y="317" name="LYYBXUUX"/>
      <point x="153" y="297" type="curve" smooth="yes" name="UKOGOKYZ"/>
      <point x="124" y="278" name="ZKPSQQBO"/>
      <point x="154" y="256" name="PPDPLGST"/>
      <point x="213" y="256" type="curve" name="RCOTYRPZ"/>
      <point x="213" y="256" name="MMFCFTBT"/>
      <point x="213" y="256" name="OGNYVTID"/>
    </contour>
    <contour>
      <point x="316" y="-58" type="curve" name="ACVSQOVU"/>
      <point x="373" y="-58" name="CPCZJPPX"/>
      <point x="392" y="-5" name="VGDBHQMV"/>
      <point x="364" y="56" type="curve" smooth="yes" name="FXHBDTZU"/>
      <point x="336" y="115" name="HLAGIKDX"/>
      <point x="270" y="161" name="NKNCARPI"/>
      <point x="213" y="161" type="curve" smooth="yes" name="IGMINHDQ"/>
      <point x="154" y="161" name="WDYEJKUQ"/>
      <point x="125" y="115" name="IHZARHWS"/>
      <point x="153" y="56" type="curve" smooth="yes" name="UCQHCJSN"/>
      <point x="181" y="-5" name="TATFRDOP"/>
      <point x="257" y="-58" name="BTATAGXY"/>
      <point x="316" y="-58" type="curve" name="EUPBKTOT"/>
      <point x="316" y="-58" name="HOVATDLZ"/>
      <point x="316" y="-58" name="DNIHWJES"/>
    </contour>
  </outline>
</glyph>
<glyph name="semicolon" format="2">
  <advance width="291"/>
  <unicode hex="003B"/>
  <outline>
    <contour>
      <point x="213" y="257" type="curve" name="FRKLBKHJ"/>
      <point x="272" y="256" name="RMGKACAL"/>
      <point x="341" y="274" name="BNRWBBQR"/>
      <point x="372" y="292" type="curve" smooth="yes" name="NIJOPOVN"/>
      <point x="403" y="310" name="BQXTTLLD"/>
      <point x="383" y="324" name="AERUGHZX"/>
      <point x="325" y="324" type="curve" smooth="yes" name="BIWQEWSN"/>
      <point x="264" y="326" name="QGECEREN"/>
      <point x="187" y="314" name="TQQIZVJR"/>
      <point x="157" y="295" type="curve" smooth="yes" name="SRPPKMOS"/>
      <point x="126" y="277" name="NAUALLYY"/>
      <point x="153" y="258" name="AJDUCMSA"/>
      <point x="213" y="257" type="curve" name="QVFZSWKA"/>
      <point x="213" y="257" name="BAURKGLZ"/>
      <point x="213" y="257" name="ORDOFYUL"/>
    </contour>
    <contour>
      <point x="204" y="-132" type="curve" name="KDQHNOWX"/>
      <point x="243" y="-125" name="RDTBRVCK"/>
      <point x="287" y="-123" name="PRENRMWK"/>
      <point x="337" y="-124" type="curve" name="PPKCVYUP"/>
      <point x="287" y="-6" name="WMCOQZTP"/>
      <point x="274" y="89" name="QLDDGAFG"/>
      <point x="293" y="159" type="curve" name="GSPJZTXL"/>
      <point x="228" y="165" name="QPUSWZFV"/>
      <point x="169" y="167" name="MYBCBRHV"/>
      <point x="120" y="162" type="curve" name="FXXGOSCD"/>
      <point x="114" y="89" name="GWKYXTZF"/>
      <point x="143" y="-12" name="JHICTTAH"/>
    </contour>
  </outline>
</glyph>
<glyph name="question" format="2">
  <advance width="511"/>
  <unicode hex="003F"/>
  <outline>
    <contour>
      <point x="350.0" y="255.65685424949237" type="curve" name="ZOSSIYHU"/>
      <point x="457.0" y="276.16295090390224" name="XIEBKAGT"/>
      <point x="540.0" y="310.81118318204307" name="SQAUEZGN"/>
      <point x="577.0" y="359.60155108391484" type="curve" smooth="yes" name="QYOSXOGN"/>
      <point x="637.0" y="437.38329701443513" name="HYBECJRC"/>
      <point x="482.0" y="463.5462479183374" name="WQSUAUQP"/>
      <point x="217.0" y="413.3416664540925" type="curve" name="MLOUHCIR"/>
      <point x="175.0" y="403.4421715174808" name="TQALSWJC"/>
      <point x="144.0" y="385.0573952066306" name="CMYTOWTF"/>
      <point x="124.0" y="359.60155108391484" type="curve" name="TUUEDXDJ"/>
      <point x="252.0" y="403.4421715174808" name="YVNEFVVV"/>
      <point x="401.0" y="394.9568901432423" name="YEOEYROI"/>
      <point x="381.0" y="365.25840533340727" type="curve" smooth="yes" name="GLHMBCHJ"/>
      <point x="370.0" y="347.58073580374355" name="CCHURJEM"/>
      <point x="306.0" y="343.3380951166243" name="ZOUBLWIN"/>
      <point x="190.0" y="327.0746391493337" type="curve" name="ZVCYRXLB"/>
      <point x="182.0" y="295.25483399593907" name="ORSGBPLC"/>
      <point x="185.0" y="254.2426406871193" name="QKBZULHP"/>
      <point x="197.0" y="208.2806999099937" type="curve" name="LVEAVNCE"/>
      <point x="246.0" y="211.81623381592644" name="FEFIQFEF"/>
      <point x="301.0" y="213.23044737829952" name="BUFNTQND"/>
      <point x="357.0" y="211.81623381592644" type="curve" name="JZTYJRJH"/>
      <point x="353.0" y="227.37258300203047" name="RFJTEDBA"/>
      <point x="351.0" y="242.22182540694797" name="OXNXHMWS"/>
    </contour>
    <contour>
      <point x="406.0" y="-65.36962440920024" type="curve" name="ASGKXENX"/>
      <point x="461.0" y="-63.955410846827135" name="BVGJFHWG"/>
      <point x="474.0" y="-5.972654789530225" name="MLCEEQCW"/>
      <point x="441.0" y="57.666955517259055" type="curve" smooth="yes" name="VKVVGPNM"/>
      <point x="410.0" y="119.1852454804887" name="EJXNBWRB"/>
      <point x="344.0" y="165.1471862576143" name="DOVWZBLW"/>
      <point x="289.0" y="163.7329726952412" type="curve" smooth="yes" name="VAVFKBHP"/>
      <point x="232.0" y="162.31875913286808" name="RGVKFIUV"/>
      <point x="206.0" y="114.23549801218286" name="AKOPIYNG"/>
      <point x="237.0" y="52.71720804895324" type="curve" smooth="yes" name="XVQCISFI"/>
      <point x="269.0" y="-10.215295476649487" name="HAOTOOUG"/>
      <point x="349.0" y="-66.78383797157329" name="ZQSAXJUZ"/>
      <point x="406.0" y="-65.36962440920024" type="curve" name="OGASZDWI"/>
      <point x="406.0" y="-65.36962440920024" name="SXFTMRHQ"/>
      <point x="406.0" y="-65.36962440920024" name="IGESHFZU"/>
    </contour>
  </outline>
</glyph>
<glyph name="A" format="2">
  <advance width="657"/>
  <unicode hex="0041"/>
  <outline>
    <contour>
      <point x="204" y="-71" type="curve" name="VSHALMGC"/>
      <point x="251" y="-63" name="WSVKSJHD"/>
      <point x="302" y="-57" name="PRFCIODM"/>
      <point x="355" y="-53" type="curve" name="JYCGCYYN"/>
      <point x="332" y="3" name="KXFJSKKY"/>
      <point x="315" y="53" name="KLUQNRFV"/>
      <point x="306" y="99" type="curve" name="UMRJARCX"/>
      <point x="376" y="104" name="NJOBXEGL"/>
      <point x="453" y="104" name="LHQYFAME"/>
      <point x="535" y="99" type="curve" name="XUPZKIVD"/>
      <point x="570" y="53" name="ASHYXYAB"/>
      <point x="611" y="3" name="WRRUGEOT"/>
      <point x="660" y="-53" type="curve" name="OXYNFWVH"/>
      <point x="723" y="-57" name="GIFICFXT"/>
      <point x="792" y="-63" name="NNGAJFQK"/>
      <point x="861" y="-71" type="curve" name="JHBKOGTE"/>
      <point x="599" y="224" name="VGBXJRGV"/>
      <point x="519" y="394" name="HGSPTSWA"/>
      <point x="624" y="430" type="curve" name="JSDVVQLS"/>
      <point x="539" y="434" name="ZKROCOOS"/>
      <point x="458" y="434" name="BFJNYVVN"/>
      <point x="385" y="430" type="curve" name="DSLSPMIN"/>
      <point x="142" y="394" name="FEBOBFIY"/>
      <point x="80" y="224" name="YYKGVVQI"/>
    </contour>
    <contour>
      <point x="300" y="240" type="curve" name="DKNCFITY"/>
      <point x="311" y="304" name="WIIRQLBW"/>
      <point x="346" y="354" name="LBPCAXFS"/>
      <point x="401" y="387" type="curve" name="OHLZNRVZ"/>
      <point x="392" y="354" name="HEMNQQMC"/>
      <point x="405" y="305" name="FJGHROUE"/>
      <point x="441" y="240" type="curve" name="LUQYXVRA"/>
      <point x="392" y="242" name="WQNSCEAO"/>
      <point x="345" y="242" name="DUARTBAJ"/>
    </contour>
  </outline>
</glyph>
<glyph name="B" format="2">
  <advance width="596"/>
  <unicode hex="0042"/>
  <outline>
    <contour>
      <point x="266" y="-66" type="curve" name="UNVTAXDO"/>
      <point x="334" y="-54" name="MXKDSPUW"/>
      <point x="413" y="-48" name="MSIWPBAZ"/>
      <point x="499" y="-49" type="curve" smooth="yes" name="GAWBKOPS"/>
      <point x="644" y="-49" name="NXTUDNFF"/>
      <point x="694" y="41" name="IKSAMLDL"/>
      <point x="654" y="155" type="curve" smooth="yes" name="HDZCASFW"/>
      <point x="633" y="215" name="ACDMKYFA"/>
      <point x="593" y="260" name="RHIPGAGY"/>
      <point x="530" y="289" type="curve" name="LQXGOYRD"/>
      <point x="579" y="306" name="GMVRBCUH"/>
      <point x="610" y="332" name="PEXWVERC"/>
      <point x="629" y="359" type="curve" smooth="yes" name="HRPMNBLY"/>
      <point x="669" y="413" name="HAHUNTQG"/>
      <point x="626" y="433" name="XIZTPZUS"/>
      <point x="489" y="432" type="curve" smooth="yes" name="ZGQUMYFH"/>
      <point x="407" y="432" name="YBSXDRCT"/>
      <point x="331" y="426" name="ROBKSRJP"/>
      <point x="266" y="414" type="curve" name="PEOUGRIC"/>
      <point x="86" y="383" name="YMEASXRB"/>
      <point x="86" y="219" name="RUOKIIEH"/>
    </contour>
    <contour>
      <point x="429" y="364" type="curve" name="RETBCBOY"/>
      <point x="418" y="347" name="THQDYVND"/>
      <point x="391" y="335" name="OVCYBNBI"/>
      <point x="356" y="335" type="curve" smooth="yes" name="YYPIMLAP"/>
      <point x="332" y="335" name="GNVTDVUE"/>
      <point x="308" y="334" name="ZCNAICXS"/>
      <point x="286" y="332" type="curve" name="DCEBKRTE"/>
      <point x="292" y="355" name="IYEQKWSG"/>
      <point x="305" y="374" name="VZMOFSEF"/>
      <point x="321" y="390" type="curve" name="FLNXQLCW"/>
      <point x="343" y="391" name="FFPFMKKW"/>
      <point x="367" y="392" name="NKOKBDTC"/>
      <point x="391" y="392" type="curve" smooth="yes" name="MRTIVKWA"/>
      <point x="426" y="392" name="BRMBLGTE"/>
      <point x="439" y="382" name="BFONSOAB"/>
      <point x="429" y="364" type="curve" name="KQTHQFXY"/>
      <point x="429" y="364" name="URVFADHM"/>
      <point x="429" y="364" name="DRQNLPRC"/>
    </contour>
    <contour>
      <point x="451" y="186" type="curve" name="CEXVIVIP"/>
      <point x="462" y="151" name="DDSVSCXB"/>
      <point x="445" y="127" name="FUNVPLPQ"/>
      <point x="402" y="127" type="curve" smooth="yes" name="OWCDRFHK"/>
      <point x="374" y="127" name="CILNSOOK"/>
      <point x="347" y="127" name="EXQZAWPW"/>
      <point x="321" y="125" type="curve" name="BEQBNDVC"/>
      <point x="302" y="168" name="FFOBVYCH"/>
      <point x="290" y="206" name="ZIFMPYEC"/>
      <point x="285" y="238" type="curve" name="ZJRYORPB"/>
      <point x="311" y="240" name="FHERCAPO"/>
      <point x="338" y="240" name="AQBIBCSM"/>
      <point x="366" y="240" type="curve" smooth="yes" name="UTLZTSCY"/>
      <point x="409" y="240" name="HPCTXGQU"/>
      <point x="440" y="220" name="UCIPHJJD"/>
      <point x="451" y="186" type="curve" name="BYQYXYYL"/>
      <point x="451" y="186" name="PDXZJAKT"/>
      <point x="451" y="186" name="GUGNFAXT"/>
    </contour>
  </outline>
</glyph>
<glyph name="C" format="2">
  <advance width="586"/>
  <unicode hex="0043"/>
  <anchor x="343" y="517" name="center"/>
  <outline>
    <contour>
      <point x="93" y="270" type="curve" name="IVHAQPIE"/>
      <point x="93" y="89" name="ZXBMTVRH"/>
      <point x="437" y="-115" name="XWMQTRVA"/>
      <point x="721" y="-49" type="curve" name="FTCQKYXD"/>
      <point x="679" y="20" name="HEWERGDG"/>
      <point x="647" y="83" name="XPFFQJFR"/>
      <point x="627" y="137" type="curve" name="JRKPBQWS"/>
      <point x="464" y="88" name="XHOODBZS"/>
      <point x="250" y="158" name="OSQCDQLO"/>
      <point x="250" y="286" type="curve" smooth="yes" name="RDQGGYDD"/>
      <point x="250" y="414" name="RTSNBEIU"/>
      <point x="464" y="418" name="NQPZGFTB"/>
      <point x="627" y="362" type="curve" name="VNVGUPGI"/>
      <point x="647" y="387" name="HERYZNUV"/>
      <point x="679" y="405" name="WKEVDROD"/>
      <point x="721" y="415" type="curve" name="LKUTTBMC"/>
      <point x="437" y="472" name="RQUKTEGG"/>
      <point x="93" y="451" name="FIXMFTEL"/>
      <point x="93" y="270" type="curve" name="CEHJKYUD"/>
      <point x="93" y="270" name="HARSATJI"/>
      <point x="93" y="270" name="AHRGHNMB"/>
    </contour>
  </outline>
</glyph>
<glyph name="D" format="2">
  <advance width="676"/>
  <unicode hex="0044"/>
  <outline>
    <contour>
      <point x="268" y="-68" type="curve" name="BKEYABKG"/>
      <point x="332" y="-57" name="QXTIYHOI"/>
      <point x="404" y="-49" name="KDRCVAGJ"/>
      <point x="481" y="-47" type="curve" smooth="yes" name="DLFNBILG"/>
      <point x="671" y="-43" name="VVYWQTWY"/>
      <point x="714" y="132" name="YGTCLKZA"/>
      <point x="715" y="269" type="curve" smooth="yes" name="ZQKFKCDO"/>
      <point x="715" y="407" name="SIJURBSY"/>
      <point x="671" y="438" name="AMDXFJTM"/>
      <point x="481" y="434" type="curve" smooth="yes" name="XMTGABFQ"/>
      <point x="404" y="431" name="YBRMIBXB"/>
      <point x="332" y="424" name="WZRQUGGX"/>
      <point x="268" y="413" type="curve" name="LVMRCACJ"/>
      <point x="88" y="382" name="KLVWJOFO"/>
      <point x="88" y="218" name="GTSMKTAM"/>
    </contour>
    <contour>
      <point x="384" y="390" type="curve" smooth="yes" name="AIXFDBQE"/>
      <point x="481" y="392" name="JWZSGGZS"/>
      <point x="513" y="361" name="KMBWWKRG"/>
      <point x="513" y="287" type="curve" smooth="yes" name="EXXSUGAG"/>
      <point x="513" y="213" name="TGYOAAEC"/>
      <point x="481" y="135" name="CDWCBPJA"/>
      <point x="384" y="133" type="curve" smooth="yes" name="XOGKZYJW"/>
      <point x="363" y="132" name="VSWPPHLM"/>
      <point x="342" y="131" name="XKAYWOZX"/>
      <point x="321" y="130" type="curve" name="NRTNRGFZ"/>
      <point x="270" y="251" name="CLCKRPEC"/>
      <point x="269" y="339" name="DPQEQFFP"/>
      <point x="321" y="388" type="curve" name="PSZMMABK"/>
      <point x="342" y="388" name="RYASSLLL"/>
      <point x="363" y="390" name="LIMYWSOJ"/>
    </contour>
  </outline>
</glyph>
<glyph name="E" format="2">
  <advance width="528"/>
  <unicode hex="0045"/>
  <outline>
    <contour>
      <point x="263" y="-64" type="curve" name="UKGGMFDY"/>
      <point x="371" y="-45" name="NPPVOJKJ"/>
      <point x="509" y="-45" name="FPJDRGEE"/>
      <point x="671" y="-64" type="curve" name="SRHEPAKV"/>
      <point x="630" y="1" name="ULTCNFKI"/>
      <point x="597" y="62" name="CKKAPEUZ"/>
      <point x="575" y="114" type="curve" name="QYJRGIHG"/>
      <point x="483" y="125" name="DELZIHAM"/>
      <point x="397" y="129" name="RMYHXQYC"/>
      <point x="322" y="128" type="curve" name="HCYUJINQ"/>
      <point x="305" y="168" name="SQBXIOMK"/>
      <point x="293" y="204" name="RQZYLUQU"/>
      <point x="287" y="236" type="curve" name="ITMGMGSL"/>
      <point x="355" y="238" name="VVYVJIFY"/>
      <point x="434" y="233" name="QMEQBYZS"/>
      <point x="516" y="225" type="curve" name="CAWJWFLK"/>
      <point x="508" y="266" name="YAQQAFUM"/>
      <point x="510" y="301" name="JLUOGTVC"/>
      <point x="520" y="329" type="curve" name="HTVCMYHI"/>
      <point x="438" y="337" name="ZWPOWAJW"/>
      <point x="359" y="342" name="CPZOIMOJ"/>
      <point x="291" y="340" type="curve" name="OUSIYIMI"/>
      <point x="297" y="359" name="NVUQNPCA"/>
      <point x="308" y="375" name="DRWSJXPI"/>
      <point x="322" y="388" type="curve" name="EOIHMBHU"/>
      <point x="397" y="390" name="MSAUUBPO"/>
      <point x="483" y="385" name="CUDUWQVK"/>
      <point x="575" y="374" type="curve" name="DKLCXPWU"/>
      <point x="598" y="394" name="JFYRTTQK"/>
      <point x="630" y="409" name="AUJCCIWT"/>
      <point x="671" y="417" type="curve" name="XTRCCSPD"/>
      <point x="509" y="436" name="QNVKMRXH"/>
      <point x="371" y="436" name="XCGBFNPI"/>
      <point x="263" y="417" type="curve" name="SVNLFKYC"/>
      <point x="84" y="385" name="FKKRMJYU"/>
      <point x="84" y="221" name="BZACQLIQ"/>
    </contour>
  </outline>
</glyph>
<glyph name="H" format="2">
  <advance width="693"/>
  <unicode hex="0048"/>
  <outline>
    <contour>
      <point x="418.0" y="-52.64170234784234" type="curve" name="ODVUGDCL"/>
      <point x="346.0" y="61.909596204378346" name="XYKDXSDL"/>
      <point x="301.0" y="160.19743878930848" name="HKDWFSAF"/>
      <point x="287.0" y="233.73654403270942" type="curve" name="JJHWQYEO"/>
      <point x="351.0" y="237.97918471982868" name="DIWHHGXT"/>
      <point x="424.0" y="237.97918471982868" name="OQKDLDGE"/>
      <point x="500.0" y="233.73654403270942" type="curve" name="WNONGHIJ"/>
      <point x="513.0" y="160.904545570495" name="JWCSIQKU"/>
      <point x="559.0" y="61.909596204378346" name="ASWHCXHX"/>
      <point x="631.0" y="-52.64170234784234" type="curve" name="UMEINCKW"/>
      <point x="693.0" y="-55.47012947258855" name="SLEZILHE"/>
      <point x="760.0" y="-61.12698372208092" name="SWZCYJAR"/>
      <point x="830.0" y="-69.6122650963195" type="curve" name="RDNRYSUW"/>
      <point x="651.0" y="215.35176772185918" name="EBPNOSHR"/>
      <point x="651.0" y="379.4005409571382" name="ZGHCGCWD"/>
      <point x="830.0" y="411.2203461105329" type="curve" name="UIMNTUSH"/>
      <point x="760.0" y="419.7056274847714" name="MMXVZIOS"/>
      <point x="693.0" y="425.36248173426384" name="IKXPEPGP"/>
      <point x="631.0" y="428.19090885901" type="curve" name="CJEXRZRQ"/>
      <point x="566.0" y="416.8772003600252" name="QFKMAJVV"/>
      <point x="524.0" y="387.88582233137674" name="QVUPEVEZ"/>
      <point x="505.0" y="344.04520189781084" type="curve" name="QFFZOINW"/>
      <point x="430.0" y="347.58073580374355" name="OAYHKRSO"/>
      <point x="357.0" y="347.58073580374355" name="LKGLAQKQ"/>
      <point x="292.0" y="344.04520189781084" type="curve" name="PPPNJOSC"/>
      <point x="311.0" y="387.88582233137674" name="EYMCDXEV"/>
      <point x="353.0" y="416.8772003600252" name="VSNDMPUF"/>
      <point x="418.0" y="428.19090885901" type="curve" name="UORGFGCU"/>
      <point x="364.0" y="425.36248173426384" name="OXOTERVF"/>
      <point x="313.0" y="419.7056274847714" name="YDMZCWTH"/>
      <point x="267.0" y="411.2203461105329" type="curve" name="YWEKHODN"/>
      <point x="88.0" y="379.4005409571382" name="EDJRDDAN"/>
      <point x="88.0" y="215.35176772185918" name="YULVFMBK"/>
      <point x="267.0" y="-69.6122650963195" type="curve" name="NBZJVERI"/>
      <point x="313.0" y="-61.12698372208092" name="NUXSLWAA"/>
      <point x="364.0" y="-55.47012947258855" name="RMDOEMYQ"/>
    </contour>
  </outline>
</glyph>
<glyph name="I" format="2">
  <advance width="325"/>
  <unicode hex="0049"/>
  <outline>
    <contour>
      <point x="267" y="-63" type="curve" name="SPPIOHRP"/>
      <point x="314" y="-55" name="NQSMQIHM"/>
      <point x="373" y="-55" name="QPBCQXBX"/>
      <point x="442" y="-63" type="curve" name="CINAQAHS"/>
      <point x="263" y="222" name="QDISZRUT"/>
      <point x="263" y="386" name="RMDFWLLA"/>
      <point x="442" y="418" type="curve" name="TKJXGBPB"/>
      <point x="373" y="426" name="APUHNJCV"/>
      <point x="314" y="426" name="LJOIDXAM"/>
      <point x="267" y="418" type="curve" name="LQQZJUDV"/>
      <point x="88" y="386" name="ASQZTTGE"/>
      <point x="88" y="222" name="HUHTXCRN"/>
    </contour>
  </outline>
</glyph>
<glyph name="J" format="2">
  <advance width="434"/>
  <unicode hex="004A"/>
  <outline>
    <contour>
      <point x="450.0" y="189.1888168179569" type="curve" name="CVPBJXKL"/>
      <point x="416.0" y="317.175144212722" name="DUJTQHEB"/>
      <point x="459.0" y="393.54267658086917" name="HXQWHJHV"/>
      <point x="577.0" y="414.04877323527904" type="curve" name="RYIUICCI"/>
      <point x="507.0" y="422.5340546095176" name="QYTJHSQI"/>
      <point x="442.0" y="426.7766952966369" name="PWKGAJDF"/>
      <point x="384.0" y="426.7766952966369" type="curve" name="IENEFFTU"/>
      <point x="266.0" y="406.270598642227" name="UICRQJEQ"/>
      <point x="223.0" y="329.9030662740799" name="RVNAIJSZ"/>
      <point x="257.0" y="201.91673887931478" type="curve" smooth="yes" name="ERJSONZZ"/>
      <point x="276.0" y="129.79184719828692" name="WZVINRUW"/>
      <point x="226.0" y="113.5283912309963" name="FKAOMQVH"/>
      <point x="110.0" y="130.49895397947347" type="curve" name="NMRZPVUH"/>
      <point x="131.0" y="76.75883860929585" name="BWRVFXUA"/>
      <point x="163.0" y="14.533441864879649" name="XRIYTGZD"/>
      <point x="205.0" y="-54.05591591021545" type="curve" name="SVCPEHHT"/>
      <point x="459.0" y="-92.23968209428904" name="IVUAUTUP"/>
      <point x="492.0" y="29.382684269797153" name="QGFJEOKN"/>
      <point x="450.0" y="189.1888168179569" type="curve" name="WNUWYESW"/>
      <point x="450.0" y="189.1888168179569" name="FLSVWZGF"/>
      <point x="450.0" y="189.1888168179569" name="QNKZRQWL"/>
    </contour>
  </outline>
</glyph>
<glyph name="L" format="2">
  <advance width="483"/>
  <unicode hex="004C"/>
  <outline>
    <contour>
      <point x="263" y="-67" type="curve" name="HQOKOIJC"/>
      <point x="365" y="-48" name="RLODJKRU"/>
      <point x="497" y="-48" name="DLYQYVSE"/>
      <point x="651" y="-67" type="curve" name="CUEHESHT"/>
      <point x="609" y="0" name="VICSRKVF"/>
      <point x="575" y="63" name="XCTCKCEA"/>
      <point x="553" y="115" type="curve" name="ULTDPKJN"/>
      <point x="469" y="125" name="ILEWPPPC"/>
      <point x="389" y="130" name="WISTFUTH"/>
      <point x="321" y="128" type="curve" name="AZBZGAGY"/>
      <point x="247" y="302" name="WBEZHRCT"/>
      <point x="281" y="403" name="YBNZWJNT"/>
      <point x="418" y="428" type="curve" name="TNHMNEGB"/>
      <point x="362" y="427" name="JBEFGMXP"/>
      <point x="309" y="423" name="POISMJAE"/>
      <point x="263" y="414" type="curve" name="AQEMPQDA"/>
      <point x="83" y="383" name="NAOCNVYL"/>
      <point x="83" y="219" name="WBNXIRVU"/>
    </contour>
  </outline>
</glyph>
<glyph name="M" format="2">
  <advance width="858"/>
  <unicode hex="004D"/>
  <outline>
    <contour>
      <point x="271" y="-70" type="curve" name="BOOKXVDR"/>
      <point x="314" y="-62" name="RINSULMV"/>
      <point x="363" y="-57" name="ADGNOOMA"/>
      <point x="411" y="-52" type="curve" name="DRTIQELQ"/>
      <point x="291" y="138" name="PXEQXJAJ"/>
      <point x="250" y="277" name="XSJSXXBL"/>
      <point x="290" y="354" type="curve" name="XQLDROSR"/>
      <point x="285" y="280" name="LORAMROV"/>
      <point x="364" y="143" name="SULWVXUF"/>
      <point x="522" y="-46" type="curve" name="HZYZBQSF"/>
      <point x="569" y="-44" name="BVBAZBJN"/>
      <point x="621" y="-44" name="YXUABXOK"/>
      <point x="673" y="-45" type="curve" name="UANSCUBU"/>
      <point x="593" y="147" name="QZTDNYDK"/>
      <point x="598" y="284" name="UBNINCKR"/>
      <point x="686" y="358" type="curve" name="NAUVEOPK"/>
      <point x="643" y="281" name="IWVKMRHV"/>
      <point x="683" y="141" name="MGATCVKS"/>
      <point x="804" y="-52" type="curve" name="YKCOTFEZ"/>
      <point x="866" y="-56" name="HYVKMVGT"/>
      <point x="932" y="-62" name="DQQKNBAE"/>
      <point x="999" y="-70" type="curve" name="FMXZLKFI"/>
      <point x="819" y="215" name="HBNILHZX"/>
      <point x="816" y="380" name="EXOJRZCR"/>
      <point x="994" y="412" type="curve" name="WWMKRYCJ"/>
      <point x="896" y="423" name="CLWJRKMA"/>
      <point x="802" y="431" name="QZFEISOS"/>
      <point x="715" y="434" type="curve" name="ZGMDLYSD"/>
      <point x="567" y="417" name="YFBNUIPQ"/>
      <point x="483" y="349" name="BSKUSTUT"/>
      <point x="469" y="236" type="curve" name="NNQQHHBW"/>
      <point x="408" y="349" name="KIHEDVKN"/>
      <point x="415" y="417" name="DNDPUFNZ"/>
      <point x="488" y="434" type="curve" name="CSHWKAPP"/>
      <point x="411" y="430" name="NLSXNRYI"/>
      <point x="338" y="422" name="TQMATFNJ"/>
      <point x="271" y="411" type="curve" name="VUPKEFGF"/>
      <point x="92" y="379" name="QQRXJJNX"/>
      <point x="92" y="215" name="EVBPWRWT"/>
    </contour>
  </outline>
</glyph>
<glyph name="O" format="2">
  <advance width="736"/>
  <unicode hex="004F"/>
  <anchor x="0" y="688" name="top"/>
  <outline>
    <contour>
      <point x="542" y="-61" type="curve" name="LBYSZARE"/>
      <point x="737" y="-61" name="BYGRSVVY"/>
      <point x="770" y="123" name="IGDVUEZN"/>
      <point x="771" y="268" type="curve" smooth="yes" name="XYIVLTVO"/>
      <point x="771" y="413" name="YVNRHGFL"/>
      <point x="737" y="442" name="EFPJOLBJ"/>
      <point x="542" y="442" type="curve" smooth="yes" name="HASQGMHS"/>
      <point x="346" y="442" name="SELKSSUB"/>
      <point x="97" y="413" name="AUXVAUZB"/>
      <point x="97" y="268" type="curve" smooth="yes" name="PTMIRFZQ"/>
      <point x="96" y="123" name="IYQGPCDT"/>
      <point x="346" y="-61" name="LSTPEQDS"/>
      <point x="542" y="-61" type="curve" name="VNSQYBMN"/>
      <point x="542" y="-61" name="IWIKSRKD"/>
      <point x="542" y="-61" name="LCGLVEUP"/>
    </contour>
    <contour>
      <point x="442" y="124" type="curve" name="CHIEXHSI"/>
      <point x="345" y="124" name="YRAIQSDM"/>
      <point x="249" y="205" name="SSXRQSJX"/>
      <point x="249" y="287" type="curve" smooth="yes" name="BTJQDOGS"/>
      <point x="249" y="369" name="YMGISTUX"/>
      <point x="345" y="398" name="VQBJPUWV"/>
      <point x="442" y="398" type="curve" smooth="yes" name="RNFFKTVL"/>
      <point x="539" y="398" name="TBUOOQOI"/>
      <point x="565" y="368" name="VBITHKKP"/>
      <point x="565" y="287" type="curve" smooth="yes" name="LJFILMKA"/>
      <point x="565" y="205" name="OLEDMEQW"/>
      <point x="539" y="124" name="PEXMKTAJ"/>
      <point x="442" y="124" type="curve" name="JUPDUJLL"/>
      <point x="442" y="124" name="MSEBZVBM"/>
      <point x="442" y="124" name="TNLQESJW"/>
    </contour>
  </outline>
</glyph>
<glyph name="Q" format="2">
  <advance width="736"/>
  <unicode hex="0051"/>
  <outline>
    <contour>
      <point x="487.0" y="-22.236110756820835" type="curve" name="FEFXMHAJ"/>
      <point x="518.0" y="-22.236110756820835" name="BMKYFFBX"/>
      <point x="546.0" y="-18.70057685088807" name="YKJNMRPM"/>
      <point x="571.0" y="-11.629509039022594" type="curve" name="NGDPFNAD"/>
      <point x="612.0" y="-49.813275223096184" name="FIDPIOSD"/>
      <point x="659.0" y="-92.94678887547559" name="TMPTZFXB"/>
      <point x="707.0" y="-136.080302527855" type="curve" name="DDRGTNMD"/>
      <point x="734.0" y="-104.26049737446033" name="XACQFBPD"/>
      <point x="767.0" y="-74.56201256462532" name="CIUBUNLP"/>
      <point x="802.0" y="-48.39906166072308" type="curve" name="YZCTPBWO"/>
      <point x="760.0" y="-10.215295476649487" name="MKNLXGPC"/>
      <point x="719.0" y="27.968470707424075" name="YBLBTTNY"/>
      <point x="684.0" y="61.20248942319179" type="curve" name="XZPBNFZW"/>
      <point x="733.0" y="119.89235226167526" name="KEYGOWJA"/>
      <point x="753.0" y="201.91673887931478" name="YCCJGEKF"/>
      <point x="763.0" y="273.3345237791561" type="curve" smooth="yes" name="UHHJHVMH"/>
      <point x="783.0" y="404.14927829866735" name="PNLHZKPK"/>
      <point x="746.0" y="435.969083452062" name="QXXLVUYK"/>
      <point x="551.0" y="435.969083452062" type="curve" smooth="yes" name="PFYYSZTN"/>
      <point x="355.0" y="435.969083452062" name="XUAMPTFW"/>
      <point x="109.0" y="404.14927829866735" name="ZWJQLIEK"/>
      <point x="89.0" y="273.3345237791561" type="curve" smooth="yes" name="TKYUHBMR"/>
      <point x="70.0" y="141.10555569727165" name="JRIXVYSD"/>
      <point x="291.0" y="-22.236110756820835" name="EIFYCMFQ"/>
      <point x="487.0" y="-22.236110756820835" type="curve" name="PJLFSKIE"/>
      <point x="487.0" y="-22.236110756820835" name="PMMCKPIJ"/>
      <point x="487.0" y="-22.236110756820835" name="DFUQVYVU"/>
    </contour>
    <contour>
      <point x="242.0" y="291.7193000900063" type="curve" name="ESGWVKCD"/>
      <point x="253.0" y="365.9655121145938" name="XSVRLMLM"/>
      <point x="351.0" y="394.2497833620557" name="MDHDMPXE"/>
      <point x="448.0" y="394.2497833620557" type="curve" smooth="yes" name="DMRMLMZV"/>
      <point x="545.0" y="394.2497833620557" name="RVHYWSSV"/>
      <point x="569.0" y="365.25840533340727" name="CMXODXEY"/>
      <point x="558.0" y="291.7193000900063" type="curve" smooth="yes" name="CPNNVJDC"/>
      <point x="554.0" y="263.4350288425444" name="KROSMSSF"/>
      <point x="547.0" y="234.44365081389594" name="MBGSXPRW"/>
      <point x="533.0" y="211.10912703473988" type="curve" name="MZKZFLHF"/>
      <point x="506.0" y="239.3933982822018" name="SWYSHQRE"/>
      <point x="483.0" y="265.55634918610406" name="ZVHISFQD"/>
      <point x="463.0" y="288.8908729652601" type="curve" name="CHBKYGOD"/>
      <point x="415.0" y="271.920310216783" name="RKYOXAXO"/>
      <point x="368.0" y="252.12132034355963" name="KICHAAMR"/>
      <point x="327.0" y="230.20101012677668" type="curve" name="IPXAPQII"/>
      <point x="350.0" y="204.74516600406096" name="HXZUOSLW"/>
      <point x="378.0" y="175.04668119422595" name="YWGYVGMR"/>
      <point x="410.0" y="143.2268760408313" type="curve" name="LHMTQPAW"/>
      <point x="314.0" y="145.34819638439097" name="KMLGOODS"/>
      <point x="232.0" y="217.4730880654188" name="PFACHMEI"/>
      <point x="242.0" y="291.7193000900063" type="curve" name="OYFWEQMT"/>
      <point x="242.0" y="291.7193000900063" name="WRPWTKII"/>
      <point x="242.0" y="291.7193000900063" name="XSDROIEK"/>
    </contour>
  </outline>
</glyph>
<glyph name="R" format="2">
  <advance width="626"/>
  <unicode hex="0052"/>
  <outline>
    <contour>
      <point x="267.0" y="-69.6122650963195" type="curve" name="TTIRSAMF"/>
      <point x="314.0" y="-61.834090503267475" name="WFWJTWSQ"/>
      <point x="364.0" y="-55.47012947258855" name="DPILQHBS"/>
      <point x="418.0" y="-52.64170234784234" type="curve" name="UVSIHWEW"/>
      <point x="358.0" y="42.81771311234155" name="ILQEDELL"/>
      <point x="316.0" y="127.67052685472727" name="CWSHZHJM"/>
      <point x="296.0" y="194.8456710674493" type="curve" name="MYZBKJUJ"/>
      <point x="318.0" y="195.55277784863583" name="QLPGGEAE"/>
      <point x="339.0" y="196.96699141100893" name="VNAJUNEF"/>
      <point x="362.0" y="196.96699141100893" type="curve" name="GGVOIFZZ"/>
      <point x="423.0" y="130.49895397947347" name="RQOXTOLH"/>
      <point x="507.0" y="45.646140237087764" name="DPWGMLLG"/>
      <point x="612.0" y="-51.93459556665579" type="curve" name="LHSPWHRU"/>
      <point x="681.0" y="-54.763022691402" name="RPQPOSRI"/>
      <point x="755.0" y="-60.41987694089437" name="CFFYPSVX"/>
      <point x="833.0" y="-69.6122650963195" type="curve" name="FXTNSATL"/>
      <point x="698.0" y="51.30299448658013" name="QTBMSCBX"/>
      <point x="591.0" y="153.83347775862953" name="IQAQCRDU"/>
      <point x="519.0" y="230.20101012677668" type="curve" name="JIWOGKMW"/>
      <point x="572.0" y="259.19238815542514" name="HXZKNVCJ"/>
      <point x="606.0" y="303.03300858899104" name="OEXYKUKA"/>
      <point x="627.0" y="344.04520189781084" type="curve" smooth="yes" name="MBNLMRFJ"/>
      <point x="663.0" y="415.4629867976521" name="KSHDPEUH"/>
      <point x="628.0" y="433.84776310850236" name="XNRDVBAH"/>
      <point x="481.0" y="430.3122292025696" type="curve" smooth="yes" name="XCRLPEZH"/>
      <point x="403.0" y="428.89801564019655" name="BLIIDTJX"/>
      <point x="331.0" y="422.5340546095176" name="YXLSRKZE"/>
      <point x="267.0" y="411.2203461105329" type="curve" name="AFCDNTJA"/>
      <point x="88.0" y="379.4005409571382" name="VXQTKXZX"/>
      <point x="88.0" y="215.35176772185918" name="ZCBTXCTH"/>
    </contour>
    <contour>
      <point x="384.0" y="387.1787155501902" type="curve" smooth="yes" name="GFDXIKML"/>
      <point x="431.0" y="388.5929291125633" name="QGWRQRZE"/>
      <point x="447.0" y="375.1579002700189" name="NPLQWYNE"/>
      <point x="436.0" y="353.237590053236" type="curve" smooth="yes" name="PEDZJVHT"/>
      <point x="426.0" y="330.61017305526644" name="OHCLTVGN"/>
      <point x="395.0" y="310.10407640085657" name="RQSJWBSH"/>
      <point x="356.0" y="309.39696961967" type="curve" smooth="yes" name="HWCYWEBS"/>
      <point x="331.0" y="309.39696961967" name="DNKGQIPF"/>
      <point x="307.0" y="307.9827560572969" name="ESCLYXLN"/>
      <point x="284.0" y="306.5685424949238" type="curve" name="YMXAGGPY"/>
      <point x="288.0" y="338.3883476483185" name="IGYSSNCB"/>
      <point x="300.0" y="365.25840533340727" name="GHOHALYP"/>
      <point x="321.0" y="385.0573952066306" type="curve" name="QOZFHFPH"/>
      <point x="342.0" y="385.76450198781714" name="ABHTXLLG"/>
      <point x="362.0" y="387.1787155501902" name="HDNGCCNU"/>
    </contour>
  </outline>
</glyph>
<glyph name="T" format="2">
  <advance width="542"/>
  <unicode hex="0054"/>
  <outline>
    <contour>
      <point x="363" y="-53" type="curve" name="OBIABVVX"/>
      <point x="417" y="-51" name="WYNERBBH"/>
      <point x="476" y="-51" name="ATUMRLCT"/>
      <point x="538" y="-53" type="curve" name="JSDQOSPP"/>
      <point x="401" y="165" name="RKCGFNJC"/>
      <point x="368" y="314" name="NHBMMFRU"/>
      <point x="441" y="384" type="curve" name="BMWQQVIR"/>
      <point x="494" y="382" name="HBBEPWDA"/>
      <point x="554" y="377" name="CMTXLWCQ"/>
      <point x="614" y="370" type="curve" name="HEOALRDC"/>
      <point x="637" y="390" name="QDPKQWDE"/>
      <point x="670" y="406" name="ZKKHBBTL"/>
      <point x="712" y="413" type="curve" name="XBUTZFLN"/>
      <point x="521" y="435" name="UWCFMZBG"/>
      <point x="357" y="435" name="JRTUATOX"/>
      <point x="230" y="413" type="curve" name="AYVADWCS"/>
      <point x="188" y="406" name="POSWLZLA"/>
      <point x="155" y="390" name="NKJWKFGP"/>
      <point x="132" y="370" type="curve" name="BBHZJRQN"/>
      <point x="173" y="377" name="WJIVAQSO"/>
      <point x="218" y="382" name="UXKDJXYV"/>
      <point x="265" y="384" type="curve" name="DMZGWWUH"/>
      <point x="192" y="314" name="ERUTCPFJ"/>
      <point x="225" y="166" name="LKDERXDK"/>
    </contour>
  </outline>
</glyph>
<glyph name="U" format="2">
  <advance width="673"/>
  <unicode hex="0055"/>
  <outline>
    <contour>
      <point x="689" y="205" type="curve" name="UIGHWCWX"/>
      <point x="665" y="321" name="SOCBKDQP"/>
      <point x="710" y="391" name="ZNJFGSNK"/>
      <point x="822" y="410" type="curve" name="OXPLJVWZ"/>
      <point x="752" y="418" name="CWOLYFHI"/>
      <point x="685" y="424" name="YCRFFCUK"/>
      <point x="622" y="427" type="curve" name="BSNVRCQU"/>
      <point x="513" y="408" name="JOSXRODP"/>
      <point x="467" y="341" name="CVDMBBAO"/>
      <point x="488" y="229" type="curve" smooth="yes" name="HWUZLNKJ"/>
      <point x="499" y="171" name="MGUFWDWO"/>
      <point x="475" y="123" name="DODFTLYC"/>
      <point x="413" y="123" type="curve" smooth="yes" name="GPFYEMXX"/>
      <point x="350" y="123" name="FJHASJOF"/>
      <point x="286" y="171" name="KWUDXPCH"/>
      <point x="275" y="229" type="curve" smooth="yes" name="ALMVOWDH"/>
      <point x="254" y="341" name="VHJSIGYP"/>
      <point x="300" y="408" name="GFASUHBN"/>
      <point x="409" y="427" type="curve" name="REOEVKYN"/>
      <point x="356" y="424" name="ZUPGWWBB"/>
      <point x="305" y="418" name="SSPQXHVR"/>
      <point x="259" y="410" type="curve" name="FDHBTJCF"/>
      <point x="147" y="390" name="NLAULCIJ"/>
      <point x="102" y="320" name="WIKFBKDS"/>
      <point x="126" y="204" type="curve" smooth="yes" name="SZBIKCBB"/>
      <point x="155" y="65" name="GPKTGGRY"/>
      <point x="349" y="-63" name="JQRVWUHJ"/>
      <point x="510" y="-62" type="curve" smooth="yes" name="AATCKRXI"/>
      <point x="670" y="-62" name="GDGZQEQA"/>
      <point x="717" y="68" name="KTOHWVRC"/>
      <point x="689" y="205" type="curve" name="MSJBTERL"/>
      <point x="689" y="205" name="NPAPDWJJ"/>
      <point x="689" y="205" name="IMOUPKXX"/>
    </contour>
  </outline>
</glyph>
<glyph name="V" format="2">
  <advance width="647"/>
  <unicode hex="0056"/>
  <outline>
    <contour>
      <point x="356" y="428" type="curve" name="ASDIVAFO"/>
      <point x="303" y="424" name="ELFXZZQE"/>
      <point x="251" y="418" name="RVDAXPAV"/>
      <point x="204" y="410" type="curve" name="PNGGMJJW"/>
      <point x="83" y="388" name="PLLASDJU"/>
      <point x="148" y="231" name="ADZQCZKZ"/>
      <point x="394" y="-51" type="curve" name="EWGXDXUZ"/>
      <point x="459" y="-48" name="YQYPJCHW"/>
      <point x="530" y="-48" name="ALEBWBAT"/>
      <point x="603" y="-51" type="curve" name="SQAMZPRE"/>
      <point x="501" y="231" name="GJDIVXFN"/>
      <point x="586" y="388" name="DFFGWULH"/>
      <point x="851" y="410" type="curve" name="SFSLLMNB"/>
      <point x="783" y="418" name="MCLWFWHF"/>
      <point x="714" y="424" name="MXVUMNEG"/>
      <point x="652" y="427" type="curve" name="NUIYTGYJ"/>
      <point x="477" y="409" name="UMRZBNAV"/>
      <point x="384" y="329" name="DRFIZXFO"/>
      <point x="378" y="191" type="curve" name="HMVECRNB"/>
      <point x="285" y="330" name="OJDBVQBE"/>
      <point x="279" y="410" name="PLVAZBCU"/>
    </contour>
  </outline>
</glyph>
<glyph name="W" format="2">
  <advance width="891"/>
  <unicode hex="0057"/>
  <outline>
    <contour>
      <point x="370.0" y="425.36248173426384" type="curve" name="PHXMMGVL"/>
      <point x="320.0" y="420.41273426595797" name="HWBHVFEZ"/>
      <point x="270.0" y="414.04877323527904" name="GYBVIGCC"/>
      <point x="225.0" y="405.56349186104046" type="curve" name="POKADBMV"/>
      <point x="85.0" y="380.8147545195113" name="LIKPOIHM"/>
      <point x="126.0" y="223.1299423149112" name="AGQSTJMS"/>
      <point x="348.0" y="-57.59144981614821" type="curve" name="LSCZMKKI"/>
      <point x="404.0" y="-51.22748878546929" name="COFXCAWK"/>
      <point x="466.0" y="-47.691954879536524" name="TUOQXPYX"/>
      <point x="528.0" y="-45.570634535976865" type="curve" name="IQMJOVGH"/>
      <point x="455.0" y="112.82128444980978" name="EGXQFDCW"/>
      <point x="437.0" y="235.1507575950825" name="PJQHSSSA"/>
      <point x="474.0" y="315.76093065034894" type="curve" name="UWUGXTQQ"/>
      <point x="492.0" y="235.1507575950825" name="WSVUUPOK"/>
      <point x="568.0" y="112.82128444980978" name="CIZOHTQT"/>
      <point x="696.0" y="-45.570634535976865" type="curve" name="JYQOHOOK"/>
      <point x="765.0" y="-47.691954879536524" name="QAFEJHLG"/>
      <point x="838.0" y="-51.22748878546929" name="PXWZSLME"/>
      <point x="913.0" y="-57.59144981614821" type="curve" name="LJZGTQKW"/>
      <point x="789.0" y="223.1299423149112" name="RBJQDBCN"/>
      <point x="848.0" y="380.8147545195113" name="SPMHTZGV"/>
      <point x="1086.0" y="405.56349186104046" type="curve" name="RWBPDDXC"/>
      <point x="1022.0" y="413.3416664540925" name="MPLXHJRO"/>
      <point x="958.0" y="419.7056274847714" name="ZWHWSDCH"/>
      <point x="898.0" y="424.6553749530773" type="curve" name="KULNYPKQ"/>
      <point x="754.0" y="407.6848122046001" name="UXOENOBV"/>
      <point x="677.0" y="341.2167747730646" name="QIHFPARC"/>
      <point x="670.0" y="227.37258300203047" type="curve" name="XLLMBRLC"/>
      <point x="611.0" y="344.04520189781084" name="ZGXABKGN"/>
      <point x="620.0" y="414.7558800164656" name="XMKKEAXJ"/>
      <point x="697.0" y="435.26197667087547" type="curve" name="PPWPXMYA"/>
      <point x="643.0" y="436.6761902332486" name="MICUEEXG"/>
      <point x="589.0" y="436.6761902332486" name="QEFQFIRR"/>
      <point x="539.0" y="435.26197667087547" type="curve" name="SJVWFIFK"/>
      <point x="399.0" y="415.4629867976521" name="RPIAWBOX"/>
      <point x="325.0" y="344.04520189781084" name="AKOIAVGO"/>
      <point x="323.0" y="226.66547622084394" type="curve" name="IYYLHOLG"/>
      <point x="270.0" y="340.5096679918781" name="QRUYWSPG"/>
      <point x="286.0" y="408.3919189857867" name="RKYMFYCR"/>
    </contour>
  </outline>
</glyph>
<glyph name="X" format="2">
  <advance width="658"/>
  <unicode hex="0058"/>
  <outline>
    <contour>
      <point x="224" y="414" type="curve" name="UXTYUNSN"/>
      <point x="190" y="407" name="RKCNYTMH"/>
      <point x="201" y="366" name="YUPXXORQ"/>
      <point x="259" y="294" type="curve" name="OSXKEZIC"/>
      <point x="192" y="211" name="IAVNOVYA"/>
      <point x="177" y="88" name="JHYZEYKI"/>
      <point x="214" y="-69" type="curve" name="CGCSAGBD"/>
      <point x="265" y="-59" name="CIWJGUCM"/>
      <point x="322" y="-53" name="EFYOVNKV"/>
      <point x="381" y="-49" type="curve" name="YSKCLJQL"/>
      <point x="363" y="42" name="LOYRGQUI"/>
      <point x="364" y="122" name="MRMZESQQ"/>
      <point x="384" y="187" type="curve" name="WWZSWSNA"/>
      <point x="445" y="122" name="EYXXONOL"/>
      <point x="529" y="42" name="AHMUHDWG"/>
      <point x="628" y="-49" type="curve" name="VYFIYFMA"/>
      <point x="698" y="-53" name="TTWBENUX"/>
      <point x="774" y="-59" name="HXHDIHUV"/>
      <point x="852" y="-69" type="curve" name="BVMCKLOC"/>
      <point x="678" y="88" name="SWYDPUVC"/>
      <point x="551" y="213" name="ICUYOSOG"/>
      <point x="481" y="296" type="curve" name="GEHVVDAW"/>
      <point x="554" y="367" name="MTMAHDFK"/>
      <point x="676" y="407" name="EZPSQTIA"/>
      <point x="840" y="414" type="curve" name="BPIOECAV"/>
      <point x="764" y="422" name="DOHPPAKC"/>
      <point x="689" y="429" name="SUXTVVMA"/>
      <point x="620" y="432" type="curve" name="OOZMSNXC"/>
      <point x="530" y="425" name="RLGSMMUF"/>
      <point x="453" y="407" name="WBOKYIEB"/>
      <point x="395" y="377" type="curve" name="TVDBJYAR"/>
      <point x="380" y="406" name="ANSEOJUB"/>
      <point x="380" y="425" name="MWZQFRJJ"/>
      <point x="396" y="432" type="curve" name="JUBILFQV"/>
      <point x="335" y="429" name="KTJCVHDH"/>
      <point x="277" y="423" name="NHAQMIPB"/>
    </contour>
  </outline>
</glyph>
<glyph name="Y" format="2">
  <advance width="599"/>
  <unicode hex="0059"/>
  <outline>
    <contour>
      <point x="387" y="-51" type="curve" name="SCGBRCMS"/>
      <point x="442" y="-48" name="YLGFSUXV"/>
      <point x="501" y="-48" name="FVIAVQBM"/>
      <point x="562" y="-51" type="curve" name="LRFKCAOG"/>
      <point x="498" y="52" name="KLIXAOJV"/>
      <point x="454" y="143" name="DQHJLBJE"/>
      <point x="437" y="212" type="curve" name="HIATPYWL"/>
      <point x="480" y="333" name="QONQWLHJ"/>
      <point x="607" y="400" name="XQMCWPYF"/>
      <point x="806" y="411" type="curve" name="DICGGLPP"/>
      <point x="733" y="419" name="RDYUGUUQ"/>
      <point x="662" y="425" name="KMMXHLKA"/>
      <point x="597" y="428" type="curve" name="XHYHXNJI"/>
      <point x="490" y="419" name="EYNCIHAE"/>
      <point x="406" y="391" name="QMIOTHQO"/>
      <point x="348" y="348" type="curve" name="KVGODOBU"/>
      <point x="328" y="391" name="FCPQZFXO"/>
      <point x="331" y="419" name="YWNJPCRF"/>
      <point x="359" y="429" type="curve" name="HHITBCMU"/>
      <point x="303" y="425" name="QVNOVLEY"/>
      <point x="248" y="419" name="LTXOMAVQ"/>
      <point x="199" y="411" type="curve" name="JXCUHPKZ"/>
      <point x="142" y="400" name="UZDAPOOT"/>
      <point x="163" y="333" name="DHNFGOJH"/>
      <point x="262" y="212" type="curve" name="KLXRMITD"/>
      <point x="279" y="143" name="EISEASZW"/>
      <point x="323" y="52" name="ILWEPGQE"/>
    </contour>
  </outline>
</glyph>
<glyph name="Z" format="2">
  <advance width="585"/>
  <unicode hex="005A"/>
  <outline>
    <contour>
      <point x="250" y="-68" type="curve" name="KEIJZQBM"/>
      <point x="378" y="-46" name="KVJJPDWE"/>
      <point x="543" y="-46" name="DUQXEVIA"/>
      <point x="735" y="-68" type="curve" name="FBHEFION"/>
      <point x="694" y="-3" name="LXHYFDLG"/>
      <point x="662" y="56" name="BHZIRUOO"/>
      <point x="640" y="108" type="curve" name="YHZLCTBD"/>
      <point x="530" y="121" name="PESRBLMW"/>
      <point x="425" y="127" name="YKEQJOKF"/>
      <point x="336" y="125" type="curve" name="BPCIKRVW"/>
      <point x="372" y="251" name="FXNYUUBP"/>
      <point x="476" y="335" name="JQSHHPMC"/>
      <point x="640" y="371" type="curve" name="MGRADZPB"/>
      <point x="662" y="391" name="BOQRIJIQ"/>
      <point x="694" y="406" name="GGZFWLYJ"/>
      <point x="735" y="413" type="curve" name="SDUKXMSW"/>
      <point x="543" y="435" name="SLENFYAP"/>
      <point x="378" y="435" name="PJFTZHRU"/>
      <point x="250" y="413" type="curve" name="UFIEEMCM"/>
      <point x="209" y="406" name="HJXBPESF"/>
      <point x="177" y="391" name="UOCVBKAO"/>
      <point x="155" y="371" type="curve" name="UOHCLYSN"/>
      <point x="229" y="384" name="BXBDZHWQ"/>
      <point x="316" y="390" name="NORWPOQY"/>
      <point x="411" y="388" type="curve" name="DHWBFQLS"/>
      <point x="263" y="341" name="ALHRMKXG"/>
      <point x="175" y="246" name="SFEUYXQB"/>
      <point x="155" y="108" type="curve" name="HGVYCXVN"/>
      <point x="177" y="56" name="XVDBVDMU"/>
      <point x="209" y="-3" name="HCPEXEDQ"/>
    </contour>
  </outline>
</glyph>
<glyph name="bracketleft" format="2">
  <advance width="445"/>
  <unicode hex="005B"/>
  <outline>
    <contour>
      <point x="296" y="-196" type="curve" name="HEHCWJZH"/>
      <point x="383" y="-181" name="AUVEMZUR"/>
      <point x="495" y="-181" name="AKZWOXBK"/>
      <point x="626" y="-196" type="curve" name="GGZBOWBX"/>
      <point x="588" y="-135" name="ULGAVJHH"/>
      <point x="555" y="-77" name="RWGEHFFZ"/>
      <point x="528" y="-24" type="curve" name="ZZYTQRFH"/>
      <point x="464" y="-17" name="EEMPTALZ"/>
      <point x="401" y="-13" name="PRWQDEUO"/>
      <point x="347" y="-13" type="curve" name="RXAJCXZM"/>
      <point x="231" y="218" name="FSLWZQRP"/>
      <point x="230" y="373" name="TKELRGSS"/>
      <point x="347" y="440" type="curve" name="FMQYZHAU"/>
      <point x="401" y="440" name="XKFSGKQB"/>
      <point x="464" y="435" name="HZUWNJFK"/>
      <point x="528" y="428" type="curve" name="OSTCKUQS"/>
      <point x="555" y="443" name="YIHYGWMA"/>
      <point x="588" y="454" name="AMDYOCUV"/>
      <point x="626" y="461" type="curve" name="JFMCIEOL"/>
      <point x="495" y="477" name="NXEBBHCZ"/>
      <point x="383" y="477" name="MENLSWPU"/>
      <point x="296" y="461" type="curve" name="NXVHDFKM"/>
      <point x="50" y="418" name="IMAAIKBD"/>
      <point x="50" y="195" name="JTULOFKD"/>
    </contour>
  </outline>
</glyph>
<glyph name="backslash" format="2">
  <advance width="490"/>
  <unicode hex="005C"/>
  <outline>
    <contour>
      <point x="709" y="-198" type="curve" name="QXIWTKHO"/>
      <point x="345" y="206" name="XYXPOLDW"/>
      <point x="236" y="435" name="TRGPZGBD"/>
      <point x="388" y="474" type="curve" name="PJTBOMCC"/>
      <point x="337" y="472" name="SPNQKQAQ"/>
      <point x="288" y="466" name="GSGRLACX"/>
      <point x="244" y="459" type="curve" name="BEKEQUNS"/>
      <point x="78" y="430" name="URNGRPJI"/>
      <point x="173" y="211" name="ZNZOLOUT"/>
      <point x="523" y="-183" type="curve" name="PHPQQOEG"/>
      <point x="580" y="-186" name="KUJNIPET"/>
      <point x="645" y="-191" name="TSVTAHGV"/>
    </contour>
  </outline>
</glyph>
<glyph name="bracketright" format="2">
  <advance width="445"/>
  <unicode hex="005D"/>
  <outline>
    <contour>
      <point x="591" y="-196" type="curve" name="JMUWIEGD"/>
      <point x="345" y="195" name="WDLRGKEJ"/>
      <point x="345" y="418" name="JEVUUCHX"/>
      <point x="591" y="461" type="curve" name="GMFWXPPH"/>
      <point x="460" y="477" name="KWMZKOMV"/>
      <point x="348" y="477" name="CZVPXVLQ"/>
      <point x="261" y="461" type="curve" name="TMKWOZDO"/>
      <point x="223" y="454" name="UDONOSFB"/>
      <point x="190" y="443" name="BOQOOSUJ"/>
      <point x="163" y="428" type="curve" name="WWARALBV"/>
      <point x="207" y="435" name="XITPUEOJ"/>
      <point x="258" y="440" name="TGXCVJET"/>
      <point x="312" y="440" type="curve" name="YEBYPFYW"/>
      <point x="196" y="372" name="LHEWRWYN"/>
      <point x="195" y="219" name="QCLTVUMG"/>
      <point x="312" y="-13" type="curve" name="EVCKWKQC"/>
      <point x="258" y="-13" name="HQGLUKDH"/>
      <point x="207" y="-17" name="NRMJUJQX"/>
      <point x="163" y="-24" type="curve" name="FVGFBFHV"/>
      <point x="190" y="-77" name="IVTXCWBS"/>
      <point x="223" y="-135" name="ZYKUJFCS"/>
      <point x="261" y="-196" type="curve" name="RWLAXYAQ"/>
      <point x="348" y="-181" name="QEAGAYTE"/>
      <point x="460" y="-181" name="YBZLRMAW"/>
    </contour>
  </outline>
</glyph>
<glyph name="underscore" format="2">
  <advance width="615"/>
  <unicode hex="005F"/>
  <outline>
    <contour>
      <point x="146" y="-143" type="curve" name="DQQFDAPL"/>
      <point x="311" y="-114" name="LYFAIGBU"/>
      <point x="524" y="-114" name="NHKFPRIC"/>
      <point x="771" y="-143" type="curve" name="ZVKYOTNZ"/>
      <point x="730" y="-78" name="GOILXJEA"/>
      <point x="730" y="-41" name="ACLLUJCH"/>
      <point x="771" y="-34" type="curve" name="UKKLHCFG"/>
      <point x="524" y="-5" name="PYNAJVLZ"/>
      <point x="311" y="-5" name="SHOOALFG"/>
      <point x="146" y="-34" type="curve" name="LFPMPNXC"/>
      <point x="105" y="-41" name="NIUNNBSG"/>
      <point x="105" y="-78" name="OUSEFUQR"/>
    </contour>
  </outline>
</glyph>
<glyph name="grave" format="2">
  <advance width="408"/>
  <unicode hex="0060"/>
  <anchor x="0" y="517" name="top"/>
  <anchor x="254" y="517" name="center"/>
  <outline>
    <contour>
      <point x="486.0" y="381.5218613006979" type="curve" name="JOFIFMCR"/>
      <point x="388.0" y="473.445742854949" name="EROMMVFF"/>
      <point x="347.0" y="525.7716446627535" name="TDYSUWCI"/>
      <point x="363.0" y="537.0853531617383" type="curve" name="MZMYTSRN"/>
      <point x="302.0" y="538.4995667241114" name="FRHTJWII"/>
      <point x="245.0" y="535.6711395993652" name="NEWSIITD"/>
      <point x="198.0" y="527.1858582251266" type="curve" name="TVVNKJII"/>
      <point x="179.0" y="523.6503243191939" name="YHPKHWXK"/>
      <point x="220.0" y="477.6883835420683" name="AZOJNTUL"/>
      <point x="318.0" y="391.4213562373095" type="curve" name="DHFJOATT"/>
      <point x="368.0" y="392.12846301849606" name="ASHESZUI"/>
      <point x="425.0" y="388.5929291125633" name="TZPGSYJI"/>
    </contour>
  </outline>
</glyph>
<glyph name="a" format="2">
  <advance width="620"/>
  <unicode hex="0061"/>
  <anchor x="321" y="517" name="center"/>
  <outline>
    <contour>
      <point x="554.0" y="-35.67113959936523" type="curve" name="PNIUKVQK"/>
      <point x="612.0" y="-38.49956672411139" name="EQQOVMWT"/>
      <point x="677.0" y="-44.156420973603815" name="GLBKUUTC"/>
      <point x="742.0" y="-51.93459556665579" type="curve" name="PUQEQMDX"/>
      <point x="612.0" y="160.904545570495" name="OMVDCOZR"/>
      <point x="612.0" y="284.6482322781408" name="BOKFOEPM"/>
      <point x="742.0" y="313.6396103067893" type="curve" name="YTCCDLRG"/>
      <point x="677.0" y="321.4177848998413" name="KLTYPWAM"/>
      <point x="612.0" y="327.0746391493337" name="EPFDELUS"/>
      <point x="554.0" y="329.9030662740799" type="curve" name="ZZEDLLJW"/>
      <point x="547.0" y="327.78174593052023" name="XZXMRMQD"/>
      <point x="540.0" y="326.3675323681471" name="WNCGAHWJ"/>
      <point x="533.0" y="324.2462120245875" type="curve" name="DMNRYTJO"/>
      <point x="516.0" y="332.0243866176395" name="MAOIHVMW"/>
      <point x="483.0" y="335.55992052357226" name="WAAYCZCK"/>
      <point x="436.0" y="334.8528137423857" type="curve" smooth="yes" name="BUXSKIAT"/>
      <point x="304.0" y="333.4386001800126" name="WSAINHXK"/>
      <point x="106.0" y="316.4680374315355" name="XGKNQVZZ"/>
      <point x="106.0" y="200.50252531694167" type="curve" smooth="yes" name="ZOHUCSGS"/>
      <point x="106.0" y="85.95122676472096" name="HIBXVYYZ"/>
      <point x="304.0" y="-51.93459556665579" name="TIRQSGPU"/>
      <point x="437.0" y="-50.52038200428274" type="curve" smooth="yes" name="MOWAZXFE"/>
      <point x="484.0" y="-49.813275223096184" name="FZJNZRFV"/>
      <point x="516.0" y="-30.72139213105936" name="GTNNCSHE"/>
      <point x="533.0" y="0.3913062411486976" type="curve" name="RCFCSSWB"/>
      <point x="539.0" y="-10.92240225783604" name="NCDVWOXY"/>
      <point x="547.0" y="-23.650324319193885" name="CQYNMQLW"/>
    </contour>
    <contour>
      <point x="373.0" y="113.5283912309963" type="curve" name="IGHZUTYH"/>
      <point x="308.0" y="113.5283912309963" name="MBQJPSDJ"/>
      <point x="248.0" y="162.31875913286808" name="OOYEMGRM"/>
      <point x="248.0" y="216.76598128423225" type="curve" smooth="yes" name="ISQRUWAL"/>
      <point x="248.0" y="271.2132034355964" name="MOUKHIQW"/>
      <point x="308.0" y="292.42640687119285" name="FZFCNPXY"/>
      <point x="373.0" y="292.42640687119285" type="curve" smooth="yes" name="QMMJFHZF"/>
      <point x="437.0" y="292.42640687119285" name="WMXEOJEX"/>
      <point x="460.0" y="270.5060966544099" name="DCIHGVFT"/>
      <point x="460.0" y="216.76598128423225" type="curve" smooth="yes" name="VABHSOCP"/>
      <point x="460.0" y="163.02586591405463" name="HPJTGGEC"/>
      <point x="437.0" y="113.5283912309963" name="BPLXAEJH"/>
      <point x="373.0" y="113.5283912309963" type="curve" name="OBAIQDTE"/>
      <point x="373.0" y="113.5283912309963" name="SQOECJQV"/>
      <point x="373.0" y="113.5283912309963" name="RFFNQHPV"/>
    </contour>
  </outline>
</glyph>
<glyph name="b" format="2">
  <advance width="625"/>
  <unicode hex="0062"/>
  <outline>
    <contour>
      <point x="399" y="-50" type="curve" name="NTIWZURW"/>
      <point x="391" y="-37" name="VWJRIPBM"/>
      <point x="384" y="-25" name="EGRRAIMX"/>
      <point x="377" y="-13" type="curve" name="QHQHXEAN"/>
      <point x="428" y="-46" name="UVFGCQGG"/>
      <point x="481" y="-64" name="WVVBSQKB"/>
      <point x="530" y="-65" type="curve" smooth="yes" name="MHNUIHWP"/>
      <point x="667" y="-66" name="QESTFBZR"/>
      <point x="702" y="70" name="WMVWUVIQ"/>
      <point x="667" y="208" type="curve" smooth="yes" name="XKTPJPAV"/>
      <point x="633" y="346" name="RVMVCBSI"/>
      <point x="550" y="402" name="TRKMMSAH"/>
      <point x="414" y="403" type="curve" smooth="yes" name="ZWAQZXCM"/>
      <point x="365" y="404" name="DGQUBRVY"/>
      <point x="317" y="396" name="LUIGAKMW"/>
      <point x="280" y="379" type="curve" name="PFOZHDWL"/>
      <point x="302" y="420" name="ZWWFAOIE"/>
      <point x="346" y="447" name="ORCSFLEH"/>
      <point x="410" y="459" type="curve" name="FSOVLHHF"/>
      <point x="360" y="456" name="ATRDVUFA"/>
      <point x="311" y="450" name="PPEZJINH"/>
      <point x="268" y="442" type="curve" name="ONKKJWQY"/>
      <point x="75" y="408" name="ZYMTPCJT"/>
      <point x="71" y="236" name="WFJEYRKO"/>
      <point x="257" y="-66" type="curve" name="WVAWLGGV"/>
      <point x="300" y="-58" name="YGNSDUMJ"/>
      <point x="349" y="-53" name="YMBILJND"/>
    </contour>
    <contour>
      <point x="414" y="105" type="curve" name="KONSSEKA"/>
      <point x="350" y="105" name="EKEALSCD"/>
      <point x="284" y="158" name="SPBWIGZS"/>
      <point x="268" y="223" type="curve" smooth="yes" name="WACNGEIS"/>
      <point x="252" y="288" name="BOEBDNVW"/>
      <point x="296" y="322" name="QDIBMZRC"/>
      <point x="360" y="322" type="curve" smooth="yes" name="VYXJYLLI"/>
      <point x="425" y="322" name="ENCBQBMC"/>
      <point x="464" y="289" name="OSSIUVBL"/>
      <point x="480" y="223" type="curve" smooth="yes" name="DPSHREBV"/>
      <point x="496" y="157" name="YFZXPXMH"/>
      <point x="479" y="105" name="WNNKXWTV"/>
      <point x="414" y="105" type="curve" name="KWLZKPNM"/>
      <point x="414" y="105" name="OXCAQYLZ"/>
      <point x="414" y="105" name="JSLJZZNU"/>
    </contour>
  </outline>
</glyph>
<glyph name="d" format="2">
  <advance width="625"/>
  <unicode hex="0064"/>
  <outline>
    <contour>
      <point x="574.0" y="-49.813275223096184" type="curve" name="SIVNABFG"/>
      <point x="632.0" y="-52.64170234784234" name="ERZDETKL"/>
      <point x="697.0" y="-58.298556597334766" name="EVWPCBGO"/>
      <point x="762.0" y="-66.07673119038674" type="curve" name="PIRTSANQ"/>
      <point x="576.0" y="235.85786437626905" name="MJCJZFLV"/>
      <point x="580.0" y="408.3919189857867" name="SRYMUKBQ"/>
      <point x="773.0" y="442.33304448274095" type="curve" name="WLDKYCOI"/>
      <point x="708.0" y="450.111219075793" name="NQRNNVKH"/>
      <point x="643.0" y="455.76807332528534" name="NVCKSBLY"/>
      <point x="585.0" y="458.5965004500315" type="curve" name="CKDJYKXM"/>
      <point x="521.0" y="447.28279195104676" name="VCANAYLG"/>
      <point x="477.0" y="420.41273426595797" name="IKBFHMAQ"/>
      <point x="455.0" y="379.4005409571382" type="curve" name="IUFOOYMF"/>
      <point x="426.0" y="395.66399692442883" name="HLVCLBHI"/>
      <point x="387.0" y="403.4421715174808" name="HBIKYAVA"/>
      <point x="339.0" y="403.4421715174808" type="curve" smooth="yes" name="YWHMAVCC"/>
      <point x="207.0" y="402.0279579551077" name="EEDZEPIV"/>
      <point x="62.0" y="346.16652224137044" name="FFNOQKJF"/>
      <point x="96.0" y="207.57359312880715" type="curve" smooth="yes" name="KXOVEQBV"/>
      <point x="131.0" y="69.68777079743037" name="BHUQAXPI"/>
      <point x="324.0" y="-66.07673119038674" name="FNAMHFVM"/>
      <point x="457.0" y="-64.66251762801369" type="curve" smooth="yes" name="DZSVJXMI"/>
      <point x="504.0" y="-63.955410846827135" name="PKPAIPPG"/>
      <point x="536.0" y="-44.86352775479031" name="TLDOQGSB"/>
      <point x="552.0" y="-13.0437226013957" type="curve" name="PSXVODUS"/>
      <point x="559.0" y="-25.06453788156699" name="NIYOQIUI"/>
      <point x="567.0" y="-37.792459942924836" name="XYIGOMVH"/>
    </contour>
    <contour>
      <point x="385.0" y="105.04310985675775" type="curve" name="UHPXJAWW"/>
      <point x="320.0" y="105.04310985675775" name="DMAJYTEL"/>
      <point x="255.0" y="157.36901166456227" name="MYBIUPOO"/>
      <point x="239.0" y="223.1299423149112" type="curve" smooth="yes" name="WMGVLRJK"/>
      <point x="223.0" y="288.8908729652601" name="BKMFBCQE"/>
      <point x="266.0" y="322.12489168102786" name="KWTOHTJH"/>
      <point x="331.0" y="322.12489168102786" type="curve" smooth="yes" name="BXVSYSGN"/>
      <point x="395.0" y="322.12489168102786" name="FLIHGAHU"/>
      <point x="435.0" y="288.1837661840736" name="LQUONJIN"/>
      <point x="451.0" y="223.1299423149112" type="curve" smooth="yes" name="SFGFWOTR"/>
      <point x="467.0" y="158.07611844574882" name="RSPKPAZG"/>
      <point x="449.0" y="105.04310985675775" name="UBMHFNAO"/>
      <point x="385.0" y="105.04310985675775" type="curve" name="GVTSSYWL"/>
      <point x="385.0" y="105.04310985675775" name="FPQYIOGU"/>
      <point x="385.0" y="105.04310985675775" name="UQYKXTPA"/>
    </contour>
  </outline>
</glyph>
<glyph name="e" format="2">
  <advance width="563"/>
  <unicode hex="0065"/>
  <anchor x="0" y="527" name="top"/>
  <anchor x="292" y="517" name="center"/>
  <outline>
    <contour>
      <point x="652" y="-17" type="curve" name="WXICIDNB"/>
      <point x="620" y="39" name="BCLKIMJG"/>
      <point x="597" y="89" name="JCLZWRAB"/>
      <point x="584" y="131" type="curve" name="HOJFQFTZ"/>
      <point x="433" y="101" name="NHPZMMVH"/>
      <point x="309" y="109" name="KSHHUQBF"/>
      <point x="259" y="171" type="curve" name="CMEFVMPR"/>
      <point x="361" y="176" name="KUMCYBZQ"/>
      <point x="481" y="170" name="KMRBBOWY"/>
      <point x="611" y="155" type="curve" name="HGFWWJRO"/>
      <point x="619" y="305" name="FBBPDPFQ"/>
      <point x="629" y="335" name="RZKXRGSL"/>
      <point x="456" y="336" type="curve" smooth="yes" name="VPQYWHDU"/>
      <point x="299" y="337" name="GXPJHYNM"/>
      <point x="105" y="312" name="EUYLMSOR"/>
      <point x="105" y="201" type="curve" smooth="yes" name="VQQSUTLZ"/>
      <point x="105" y="33" name="WIODBZYU"/>
      <point x="450" y="-106" name="YCFFYAGN"/>
      <point x="652" y="-17" type="curve" name="JHBGRMMR"/>
      <point x="652" y="-17" name="PNQPBLSD"/>
      <point x="652" y="-17" name="QLIUZSAP"/>
    </contour>
    <contour>
      <point x="365" y="292" type="curve" name="ZJQCCAFU"/>
      <point x="407" y="292" name="BVFGEYSU"/>
      <point x="432" y="283" name="DNMENWDN"/>
      <point x="442" y="256" type="curve" name="LKMPQPDQ"/>
      <point x="377" y="259" name="HVYFPOMF"/>
      <point x="316" y="259" name="CVRGQQIT"/>
      <point x="259" y="257" type="curve" name="BXYFRVWD"/>
      <point x="283" y="283" name="SHZQODYG"/>
      <point x="326" y="292" name="FHUHALNP"/>
      <point x="365" y="292" type="curve" name="SZAJLAMG"/>
      <point x="365" y="292" name="UVNIVKJZ"/>
      <point x="365" y="292" name="CZXPGABP"/>
    </contour>
  </outline>
</glyph>
<glyph name="f" format="2">
  <advance width="428"/>
  <unicode hex="0066"/>
  <outline>
    <contour>
      <point x="83.0" y="295.25483399593907" type="curve" name="HYBUKNQH"/>
      <point x="105.0" y="298.7903679018718" name="PZOMLVIR"/>
      <point x="128.0" y="301.618795026618" name="LWMOQAWK"/>
      <point x="152.0" y="303.7401153701776" type="curve" name="LRPNHWYU"/>
      <point x="152.0" y="217.4730880654188" name="RXAXUGSI"/>
      <point x="203.0" y="93.02229457658643" name="ETDWJCVI"/>
      <point x="300.0" y="-61.834090503267475" type="curve" name="PANWSFUB"/>
      <point x="348.0" y="-57.59144981614821" name="KAQYCNJK"/>
      <point x="403.0" y="-56.177236253775106" name="BYZVIVAN"/>
      <point x="460.0" y="-58.298556597334766" type="curve" name="HMAWFLZT"/>
      <point x="362.0" y="97.26493526370572" name="GJZCVANR"/>
      <point x="312.0" y="221.00862197135154" name="VGPVDRNJ"/>
      <point x="311.0" y="307.9827560572969" type="curve" name="XDPZRPOR"/>
      <point x="354.0" y="306.5685424949238" name="AYGULRDG"/>
      <point x="401.0" y="303.03300858899104" name="KRUEOWNK"/>
      <point x="450.0" y="297.37615433949867" type="curve" name="RNRYXZNB"/>
      <point x="450.0" y="332.0243866176395" name="EGKULWJO"/>
      <point x="457.0" y="362.42997820866105" name="CXDCVOUW"/>
      <point x="472.0" y="386.4716087690037" type="curve" name="LETVOOKG"/>
      <point x="424.0" y="391.4213562373095" name="HNBRVVDM"/>
      <point x="377.0" y="394.9568901432423" name="QWYUIBIG"/>
      <point x="334.0" y="396.3711037056154" type="curve" name="YXYAOZFB"/>
      <point x="335.0" y="399.19953083036154" name="AUWETKVU"/>
      <point x="337.0" y="402.0279579551077" name="XMYIEMLY"/>
      <point x="338.0" y="404.8563850798539" type="curve" smooth="yes" name="UZQDGSSW"/>
      <point x="357.0" y="428.89801564019655" name="TEFVWCEM"/>
      <point x="434.0" y="432.43354954612926" name="CJWPBYIM"/>
      <point x="518.0" y="410.51323932934633" type="curve" name="WZMVNKFR"/>
      <point x="540.0" y="430.3122292025696" name="XUGLPMMA"/>
      <point x="572.0" y="445.1614716074871" name="ODTIAGCW"/>
      <point x="611.0" y="452.9396462005392" type="curve" name="AAUGFGWM"/>
      <point x="475.0" y="481.2239174480011" name="RTXTKCKB"/>
      <point x="241.0" y="483.3452377915607" name="LKGVOHGG"/>
      <point x="180.0" y="400.61374439273465" type="curve" smooth="yes" name="THDWWVEM"/>
      <point x="177.0" y="398.492424049175" name="BOHTLERI"/>
      <point x="176.0" y="395.66399692442883" name="TKZCMSEQ"/>
      <point x="174.0" y="392.8355697996826" type="curve" name="OOYJYUHZ"/>
      <point x="150.0" y="390.71424945612296" name="YBYDRNDI"/>
      <point x="127.0" y="387.88582233137674" name="BVODRPHD"/>
      <point x="106.0" y="383.6431816442575" type="curve" name="HRQSCOLM"/>
      <point x="91.0" y="359.60155108391484" name="HZCYKXJQ"/>
      <point x="83.0" y="329.9030662740799" name="IBXBDEMN"/>
    </contour>
  </outline>
</glyph>
<glyph name="i" format="2">
  <advance width="285"/>
  <unicode hex="0069"/>
  <outline>
    <contour>
      <point x="215.0" y="429.60512242138304" type="curve" name="VKOAJEUL"/>
      <point x="271.0" y="429.60512242138304" name="CSDAKZVN"/>
      <point x="346.0" y="442.33304448274095" name="WTZJJUFF"/>
      <point x="378.0" y="459.30360723121805" type="curve" smooth="yes" name="CLJUMKCF"/>
      <point x="411.0" y="474.8599564173221" name="GBSWGRPA"/>
      <point x="392.0" y="487.58787847867995" name="YUJGRQBV"/>
      <point x="335.0" y="488.2949852598665" type="curve" smooth="yes" name="XHMOUYOD"/>
      <point x="277.0" y="488.2949852598665" name="JZUBKXGA"/>
      <point x="204.0" y="474.8599564173221" name="GXMRQXLZ"/>
      <point x="171.0" y="459.30360723121805" type="curve" smooth="yes" name="HKQHHKWC"/>
      <point x="139.0" y="442.33304448274095" name="KVQXEWPK"/>
      <point x="157.0" y="429.60512242138304" name="LAAWGLPQ"/>
      <point x="215.0" y="429.60512242138304" type="curve" name="RGVXJIXQ"/>
      <point x="215.0" y="429.60512242138304" name="OGDELUHG"/>
      <point x="215.0" y="429.60512242138304" name="NXKOHGDS"/>
    </contour>
    <contour>
      <point x="259.0" y="-67.49094475275984" type="curve" name="RMKJDKWQ"/>
      <point x="304.0" y="-61.12698372208092" name="DYWWHGSE"/>
      <point x="361.0" y="-61.12698372208092" name="ENYNHDWC"/>
      <point x="424.0" y="-67.49094475275984" type="curve" name="NONOJILC"/>
      <point x="287.0" y="150.2979438526968" name="ZWNUQXJN"/>
      <point x="240.0" y="307.27564927611036" name="AILUAZST"/>
      <point x="285.0" y="396.3711037056154" type="curve" name="JEQVJEUS"/>
      <point x="222.0" y="402.73506473629425" name="HWFKXHKF"/>
      <point x="165.0" y="402.73506473629425" name="SJLLVFMS"/>
      <point x="120.0" y="396.3711037056154" type="curve" name="YEETTSDY"/>
      <point x="75.0" y="307.27564927611036" name="GJVJSCUY"/>
      <point x="122.0" y="150.2979438526968" name="YQFWBQOP"/>
    </contour>
  </outline>
</glyph>
<glyph name="j" format="2">
  <advance width="303"/>
  <unicode hex="006A"/>
  <outline>
    <contour>
      <point x="244" y="423" type="curve" name="VACLDQOW"/>
      <point x="303" y="421" name="FXAAFOHK"/>
      <point x="381" y="432" name="NRZWZXEC"/>
      <point x="416" y="447" type="curve" smooth="yes" name="PBYXEXJZ"/>
      <point x="450" y="461" name="RECKMWSC"/>
      <point x="431" y="474" name="STVKDZIM"/>
      <point x="372" y="476" type="curve" smooth="yes" name="DZGMIOYU"/>
      <point x="311" y="478" name="UBLRDHAA"/>
      <point x="233" y="468" name="QYIRXACY"/>
      <point x="199" y="454" type="curve" smooth="yes" name="NGPZBRCX"/>
      <point x="164" y="439" name="LDHPBAQA"/>
      <point x="183" y="425" name="QIXLLDFR"/>
      <point x="244" y="423" type="curve" name="TZVMKPNF"/>
      <point x="244" y="423" name="DBRERLKR"/>
      <point x="244" y="423" name="NPPWBRID"/>
    </contour>
    <contour>
      <point x="160" y="39" type="curve" smooth="yes" name="YOBLMBNG"/>
      <point x="185" y="-18" name="GQIOVQPU"/>
      <point x="172" y="-35" name="PTBXIOLN"/>
      <point x="113" y="-29" type="curve" name="STNNKLLS"/>
      <point x="139" y="-80" name="ESOYGHIR"/>
      <point x="172" y="-138" name="RKZCMZSC"/>
      <point x="208" y="-197" type="curve" name="JREFECMJ"/>
      <point x="351" y="-207" name="DMGQLZGZ"/>
      <point x="421" y="-157" name="EFZZCKRZ"/>
      <point x="341" y="19" type="curve" smooth="yes" name="YHRVVLDT"/>
      <point x="262" y="191" name="ZICYKJHM"/>
      <point x="252" y="318" name="MVOIPSOX"/>
      <point x="311" y="392" type="curve" name="BTYYILPY"/>
      <point x="248" y="398" name="OWUXKXLW"/>
      <point x="188" y="401" name="LHOAPXOT"/>
      <point x="138" y="398" type="curve" name="CABAIUNV"/>
      <point x="80" y="326" name="TPRKVVOO"/>
      <point x="88" y="203" name="KQBOYVON"/>
    </contour>
  </outline>
</glyph>
<glyph name="k" format="2">
  <advance width="566"/>
  <unicode hex="006B"/>
  <outline>
    <contour>
      <point x="261" y="-70" type="curve" name="UAHUNZAY"/>
      <point x="304" y="-62" name="HGOTTMPH"/>
      <point x="353" y="-57" name="JIFUMSCD"/>
      <point x="403" y="-54" type="curve" name="JEZKVTKR"/>
      <point x="346" y="37" name="EUEBYAOH"/>
      <point x="306" y="117" name="FHUHMWJY"/>
      <point x="282" y="184" type="curve" name="IBYLLBPF"/>
      <point x="350" y="120" name="ZPEKBMNN"/>
      <point x="443" y="40" name="XDBASUEF"/>
      <point x="551" y="-52" type="curve" name="QUXXMCJM"/>
      <point x="619" y="-54" name="FUUHAKKG"/>
      <point x="694" y="-61" name="LQICOFVZ"/>
      <point x="772" y="-70" type="curve" name="RMTSBMXH"/>
      <point x="619" y="57" name="NJXFSMXN"/>
      <point x="495" y="163" name="LHUUKZJI"/>
      <point x="410" y="242" type="curve" name="WCKNJDPB"/>
      <point x="460" y="307" name="FXYCAFMY"/>
      <point x="538" y="354" name="OAAXCREI"/>
      <point x="640" y="383" type="curve" name="NASSYPPQ"/>
      <point x="564" y="391" name="IIHCVLSK"/>
      <point x="491" y="397" name="RGLSDMCZ"/>
      <point x="424" y="399" type="curve" name="FAJLDQMB"/>
      <point x="354" y="371" name="TSLJUDEH"/>
      <point x="298" y="332" name="QYEDSYTP"/>
      <point x="258" y="284" type="curve" name="DSWZWTDA"/>
      <point x="249" y="383" name="PKJZMXVJ"/>
      <point x="298" y="444" name="XNBLDWJV"/>
      <point x="403" y="463" type="curve" name="BJZYFAAA"/>
      <point x="353" y="460" name="PUEBCOVS"/>
      <point x="304" y="454" name="VPCXSDMJ"/>
      <point x="261" y="446" type="curve" name="BOCHLGBP"/>
      <point x="68" y="412" name="ARQFNMTK"/>
      <point x="68" y="237" name="HBPSJSZA"/>
    </contour>
  </outline>
</glyph>
<glyph name="l" format="2">
  <advance width="275"/>
  <unicode hex="006C"/>
  <outline>
    <contour>
      <point x="252" y="-64" type="curve" name="CJUYAYBO"/>
      <point x="295" y="-56" name="BXNSLLMR"/>
      <point x="352" y="-56" name="NMZADAWX"/>
      <point x="417" y="-64" type="curve" name="APLOHXXK"/>
      <point x="224" y="243" name="SJWNUYWP"/>
      <point x="224" y="419" name="MMVHIZHR"/>
      <point x="417" y="453" type="curve" name="ESPVVCIB"/>
      <point x="352" y="460" name="HEZCKGWH"/>
      <point x="295" y="460" name="CIXKCOAE"/>
      <point x="252" y="453" type="curve" name="SMLWGTAO"/>
      <point x="59" y="419" name="YXQXQQUG"/>
      <point x="59" y="243" name="MKPXXGOQ"/>
    </contour>
  </outline>
</glyph>
<glyph name="m" format="2">
  <advance width="867"/>
  <unicode hex="006D"/>
  <outline>
    <contour>
      <point x="247.0" y="-62.54119728445403" type="curve" name="QIFWDKGB"/>
      <point x="290.0" y="-54.763022691402" name="SSDAOPHG"/>
      <point x="338.0" y="-48.39906166072308" name="QHVZKBRH"/>
      <point x="386.0" y="-44.156420973603815" type="curve" name="KMJNADXF"/>
      <point x="306.0" y="83.12279963997477" name="EDEWVLSH"/>
      <point x="271.0" y="181.4106422249049" name="PFKWYLLT"/>
      <point x="282.0" y="244.34314575050763" type="curve" smooth="yes" name="LWPKIHNU"/>
      <point x="288.0" y="274.04163056034264" name="LUAUPGBO"/>
      <point x="322.0" y="288.8908729652601" name="VKSSWIYT"/>
      <point x="363.0" y="291.01219330881975" type="curve" smooth="yes" name="ZCLKZNZU"/>
      <point x="405.0" y="293.1335136523794" name="AOHNFSYA"/>
      <point x="412.0" y="279.698484809835" name="CQSUXZIM"/>
      <point x="407.0" y="251.4142135623731" type="curve" smooth="yes" name="NOHIOVHP"/>
      <point x="395.0" y="189.1888168179569" name="MALYYFSG"/>
      <point x="431.0" y="90.19386745184025" name="NDLLINZL"/>
      <point x="511.0" y="-37.08535316173834" type="curve" name="XKNHXTRC"/>
      <point x="562.0" y="-34.96403281817868" name="TCYEYUND"/>
      <point x="619.0" y="-34.96403281817868" name="MKEZWELI"/>
      <point x="676.0" y="-37.08535316173834" type="curve" name="TQIDMUOX"/>
      <point x="596.0" y="90.19386745184025" name="QMWHZVBV"/>
      <point x="560.0" y="189.1888168179569" name="GPLZZBVI"/>
      <point x="572.0" y="251.4142135623731" type="curve" smooth="yes" name="NWHXKFOL"/>
      <point x="577.0" y="281.81980515339467" name="TTWYLVER"/>
      <point x="616.0" y="293.1335136523794" name="UZQJSQZO"/>
      <point x="663.0" y="291.01219330881975" type="curve" smooth="yes" name="QYQUUQXE"/>
      <point x="712.0" y="288.1837661840736" name="CEJDPLZV"/>
      <point x="723.0" y="271.920310216783" name="IFINZUJJ"/>
      <point x="717.0" y="244.34314575050763" type="curve" smooth="yes" name="CJOVMNYV"/>
      <point x="706.0" y="181.4106422249049" name="SJNLUJUZ"/>
      <point x="741.0" y="83.12279963997477" name="BJKEUZIJ"/>
      <point x="821.0" y="-44.156420973603815" type="curve" name="YMOMMTWL"/>
      <point x="881.0" y="-48.39906166072308" name="SEVRQVGL"/>
      <point x="947.0" y="-54.763022691402" name="LRDCTTMX"/>
      <point x="1012.0" y="-62.54119728445403" type="curve" name="HWYJCHLA"/>
      <point x="926.0" y="73.93041148454967" name="LFTRVMWG"/>
      <point x="892.0" y="175.7537879754125" name="MMNBICOX"/>
      <point x="911.0" y="237.97918471982868" type="curve" smooth="yes" name="IFJOYMTG"/>
      <point x="934.0" y="312.9325035256027" name="ZRUPLSSR"/>
      <point x="916.0" y="325.66042558696057" name="DKHEUKCM"/>
      <point x="784.0" y="333.4386001800126" type="curve" smooth="yes" name="HUUPFQMN"/>
      <point x="720.0" y="337.6812408671319" name="BVBFIDJZ"/>
      <point x="646.0" y="337.6812408671319" name="NZSRFGBA"/>
      <point x="584.0" y="329.9030662740799" type="curve" name="MYONGPQT"/>
      <point x="574.0" y="338.3883476483185" name="LIQZSIIH"/>
      <point x="547.0" y="339.8025612106915" name="PQISNYPT"/>
      <point x="500.0" y="338.3883476483185" type="curve" smooth="yes" name="XIXYFTJF"/>
      <point x="456.0" y="336.97413408594537" name="QELDSFZO"/>
      <point x="404.0" y="332.73149339882605" name="BHJMNBQT"/>
      <point x="357.0" y="323.53910524340097" type="curve" name="RSMKYBIK"/>
      <point x="363.0" y="325.66042558696057" name="KQQYLLUV"/>
      <point x="369.0" y="327.0746391493337" name="EONTRJJV"/>
      <point x="375.0" y="329.19595949289334" type="curve" name="CBOHNYGP"/>
      <point x="327.0" y="324.9533188057741" name="ATFLLTQH"/>
      <point x="279.0" y="318.5893577750951" name="ZBZDMFHD"/>
      <point x="236.0" y="310.81118318204307" type="curve" name="IWLGPOGG"/>
      <point x="106.0" y="281.81980515339467" name="RPOXKWWS"/>
      <point x="110.0" y="155.2476913210026" name="AZVXBQGL"/>
    </contour>
  </outline>
</glyph>
<glyph name="n" format="2">
  <advance width="593"/>
  <unicode hex="006E"/>
  <anchor x="290" y="517" name="center"/>
  <outline>
    <contour>
      <point x="240" y="-58" type="curve" name="DKCZGIWM"/>
      <point x="283" y="-50" name="PDFBQWQU"/>
      <point x="333" y="-45" name="TIQUOMAB"/>
      <point x="383" y="-42" type="curve" name="QWRIFOSC"/>
      <point x="306" y="80" name="ARJIATKY"/>
      <point x="270" y="176" name="UZOLNTXT"/>
      <point x="278" y="239" type="curve" smooth="yes" name="QQEZUUHZ"/>
      <point x="283" y="275" name="TWSPAFPU"/>
      <point x="325" y="290" name="JNJHDCUG"/>
      <point x="378" y="290" type="curve" smooth="yes" name="MPSTOTMY"/>
      <point x="431" y="290" name="QYEIWYKA"/>
      <point x="443" y="273" name="VKHCAXYJ"/>
      <point x="439" y="239" type="curve" smooth="yes" name="FBICQVMH"/>
      <point x="431" y="176" name="VOBLINPZ"/>
      <point x="467" y="80" name="UTACICSC"/>
      <point x="544" y="-42" type="curve" name="QYLUBHCM"/>
      <point x="602" y="-45" name="HQBMGZIC"/>
      <point x="666" y="-50" name="MBQXZQRJ"/>
      <point x="731" y="-58" type="curve" name="XGWRHRFA"/>
      <point x="648" y="75" name="ZKOHTXGO"/>
      <point x="613" y="174" name="FQGHPTOW"/>
      <point x="629" y="237" type="curve" smooth="yes" name="ICSYFZVJ"/>
      <point x="649" y="318" name="PYBCCCGZ"/>
      <point x="633" y="331" name="KQAMOUZB"/>
      <point x="515" y="334" type="curve" smooth="yes" name="SRSQVLXZ"/>
      <point x="460" y="336" name="JPWGCIRP"/>
      <point x="404" y="333" name="AHXNFRJS"/>
      <point x="353" y="326" type="curve" name="ZCXLFYUE"/>
      <point x="360" y="328" name="NEIHJXBX"/>
      <point x="365" y="330" name="ZBHBGTOV"/>
      <point x="372" y="331" type="curve" name="GLSZOSHS"/>
      <point x="321" y="329" name="TCDNCHNG"/>
      <point x="272" y="324" name="BHVJASLV"/>
      <point x="229" y="316" type="curve" name="KKIZDCTE"/>
      <point x="99" y="287" name="SPVQDDHV"/>
      <point x="103" y="160" name="DOCVMKZI"/>
    </contour>
  </outline>
</glyph>
<glyph name="o" format="2">
  <advance width="600"/>
  <unicode hex="006F"/>
  <anchor x="0" y="527" name="top"/>
  <outline>
    <contour>
      <point x="462" y="-53" type="curve" name="OBRLAGIP"/>
      <point x="618" y="-53" name="TPHQIAYG"/>
      <point x="651" y="90" name="SLLBNUVD"/>
      <point x="652" y="201" type="curve" smooth="yes" name="EZCHJDAO"/>
      <point x="652" y="312" name="ILPENCCC"/>
      <point x="618" y="336" name="WGWJORXX"/>
      <point x="462" y="336" type="curve" smooth="yes" name="NDHPRJLU"/>
      <point x="306" y="336" name="TPBVQRHA"/>
      <point x="106" y="312" name="DWLOYQJU"/>
      <point x="106" y="201" type="curve" smooth="yes" name="JNYFYTAF"/>
      <point x="106" y="89" name="ZINFAKCE"/>
      <point x="306" y="-53" name="JGKCNMDJ"/>
      <point x="462" y="-53" type="curve" name="DXKKKRFR"/>
      <point x="462" y="-53" name="KSQLQPNM"/>
      <point x="462" y="-53" name="KVFJJSVA"/>
    </contour>
    <contour>
      <point x="374" y="115" type="curve" name="BXLTMDJC"/>
      <point x="309" y="115" name="ZDLXLSSH"/>
      <point x="248" y="164" name="YCPIOSCV"/>
      <point x="248" y="217" type="curve" smooth="yes" name="AETUUHTY"/>
      <point x="248" y="269" name="WPBQZNDR"/>
      <point x="309" y="292" name="ANBDHKLY"/>
      <point x="374" y="292" type="curve" smooth="yes" name="ILLYSWRE"/>
      <point x="439" y="292" name="TRLFCPDD"/>
      <point x="464" y="269" name="YBLBCMDS"/>
      <point x="464" y="217" type="curve" smooth="yes" name="WWJSQACX"/>
      <point x="464" y="164" name="PEPBFYJU"/>
      <point x="439" y="115" name="UOEGNEXM"/>
      <point x="374" y="115" type="curve" name="LYACURGU"/>
      <point x="374" y="115" name="XAUXYMUV"/>
      <point x="374" y="115" name="COGVPVHT"/>
    </contour>
  </outline>
</glyph>
<glyph name="p" format="2">
  <advance width="620"/>
  <unicode hex="0070"/>
  <outline>
    <contour>
      <point x="399" y="-166" type="curve" name="KOFBMFRE"/>
      <point x="349" y="-87" name="PPTNJZTW"/>
      <point x="312" y="-15" name="KWQMRVHT"/>
      <point x="289" y="46" type="curve" name="LRQKMWVG"/>
      <point x="330" y="20" name="TYUAEALL"/>
      <point x="379" y="5" name="PFHDKEQV"/>
      <point x="427" y="5" type="curve" smooth="yes" name="KXYXWLML"/>
      <point x="564" y="3" name="SSMAFGNX"/>
      <point x="636" y="113" name="YZYPJWBZ"/>
      <point x="663" y="207" type="curve" smooth="yes" name="KKYVKZUT"/>
      <point x="690" y="302" name="FWLAAWBX"/>
      <point x="657" y="323" name="HTYQATRU"/>
      <point x="520" y="325" type="curve" smooth="yes" name="YXPQPGPJ"/>
      <point x="472" y="325" name="UGBHNUXY"/>
      <point x="416" y="322" name="ZJWHZXNE"/>
      <point x="367" y="314" type="curve" name="SNLSHAFU"/>
      <point x="375" y="316" name="ASPYYMXQ"/>
      <point x="381" y="318" name="ZNENBISP"/>
      <point x="388" y="320" type="curve" name="MILTSUYL"/>
      <point x="338" y="317" name="STEJWZOF"/>
      <point x="289" y="312" name="ZNSDDEQV"/>
      <point x="246" y="304" type="curve" name="WGGHADAN"/>
      <point x="75" y="267" name="ECNNYBNY"/>
      <point x="79" y="101" name="COAMFECF"/>
      <point x="257" y="-183" type="curve" name="QIYINVQG"/>
      <point x="300" y="-175" name="BPASOAKB"/>
      <point x="349" y="-169" name="TSYAPEUO"/>
    </contour>
    <contour>
      <point x="362" y="138" type="curve" name="ITHOTRLS"/>
      <point x="298" y="138" name="TJEFMKIX"/>
      <point x="251" y="178" name="ZELGJFIK"/>
      <point x="264" y="222" type="curve" smooth="yes" name="HRGSLLPU"/>
      <point x="276" y="268" name="UYDDBKUV"/>
      <point x="341" y="287" name="SMKCDKYR"/>
      <point x="405" y="287" type="curve" smooth="yes" name="FAKTFYLX"/>
      <point x="470" y="287" name="WKRAGDPH"/>
      <point x="488" y="268" name="IWWJOMWH"/>
      <point x="475" y="223" type="curve" smooth="yes" name="OTUHZDET"/>
      <point x="463" y="177" name="LIIDGXXV"/>
      <point x="427" y="138" name="MNMQQVCK"/>
      <point x="362" y="138" type="curve" name="QCNMAZWL"/>
      <point x="362" y="138" name="YVFSKCEV"/>
      <point x="362" y="138" name="ORXCOEWQ"/>
    </contour>
  </outline>
</glyph>
<glyph name="q" format="2">
  <advance width="620"/>
  <unicode hex="0071"/>
  <outline>
    <contour>
      <point x="579" y="-166" type="curve" name="JZEQIUPB"/>
      <point x="638" y="-170" name="VQEFDCHK"/>
      <point x="702" y="-175" name="AIWHILTC"/>
      <point x="767" y="-183" type="curve" name="OBZGCREF"/>
      <point x="589" y="101" name="KMXUALGX"/>
      <point x="585" y="267" name="YFSQBHGK"/>
      <point x="756" y="304" type="curve" name="BWPHGHHC"/>
      <point x="691" y="312" name="QZDEQISI"/>
      <point x="626" y="317" name="DBIANBVR"/>
      <point x="568" y="320" type="curve" name="ICWOWRQC"/>
      <point x="560" y="319" name="LWWUTCLF"/>
      <point x="554" y="316" name="BRLOZBJV"/>
      <point x="547" y="314" type="curve" name="SSXBPBTI"/>
      <point x="531" y="321" name="KOOXIHUT"/>
      <point x="498" y="325" name="DOSPJELQ"/>
      <point x="450" y="325" type="curve" smooth="yes" name="YKLDYSRX"/>
      <point x="318" y="324" name="XNBJHNTN"/>
      <point x="125" y="302" name="STPLEOQY"/>
      <point x="97" y="207" type="curve" smooth="yes" name="MZFXAZTL"/>
      <point x="70" y="113" name="SZMNRRLQ"/>
      <point x="226" y="3" name="SCTJEUEJ"/>
      <point x="359" y="5" type="curve" smooth="yes" name="HQSNZCSO"/>
      <point x="407" y="5" name="MQPXIMES"/>
      <point x="444" y="20" name="NWEEENUT"/>
      <point x="469" y="46" type="curve" name="NXZSZERU"/>
      <point x="491" y="-14" name="PMUBJKQH"/>
      <point x="529" y="-87" name="IXJLCHDA"/>
    </contour>
    <contour>
      <point x="338" y="138" type="curve" name="AEJBAKCS"/>
      <point x="273" y="138" name="IOHZIGNR"/>
      <point x="227" y="177" name="TKDWKZNL"/>
      <point x="239" y="223" type="curve" smooth="yes" name="OBYQCXGA"/>
      <point x="252" y="268" name="UGJVGCZF"/>
      <point x="316" y="287" name="HYCIMANU"/>
      <point x="381" y="287" type="curve" smooth="yes" name="NYQFDWUB"/>
      <point x="445" y="287" name="MMOEYOVB"/>
      <point x="464" y="268" name="VTACPUFO"/>
      <point x="452" y="222" type="curve" smooth="yes" name="VFIURVLK"/>
      <point x="439" y="178" name="DFJSWXQM"/>
      <point x="402" y="138" name="YAGAMMRH"/>
      <point x="338" y="138" type="curve" name="CPISHRSV"/>
      <point x="338" y="138" name="JIMPXSEK"/>
      <point x="338" y="138" name="DFQDHCBP"/>
    </contour>
  </outline>
</glyph>
<glyph name="r" format="2">
  <advance width="395"/>
  <unicode hex="0072"/>
  <outline>
    <contour>
      <point x="236.0" y="-54.763022691402" type="curve" name="GJCYZUFA"/>
      <point x="279.0" y="-46.98484809834997" name="GDMRHFDA"/>
      <point x="330.0" y="-42.74220741123071" name="NANLRQYU"/>
      <point x="385.0" y="-43.44931419241726" type="curve" name="IHGPRGVL"/>
      <point x="313.0" y="71.10198435980345" name="VQCMRXAS"/>
      <point x="277.0" y="162.31875913286808" name="VKSQXPYH"/>
      <point x="279.0" y="224.54415587728428" type="curve" smooth="yes" name="ZAJUDPZP"/>
      <point x="281.0" y="274.74873734152914" name="SNFOTYXJ"/>
      <point x="343.0" y="290.3050865276332" name="LYPLNDCP"/>
      <point x="465.0" y="268.3847763108502" type="curve" name="LKCGCOZQ"/>
      <point x="481.0" y="294.5477272147525" name="AMJVLQAH"/>
      <point x="513.0" y="311.5182899632296" name="ZXWYBOWG"/>
      <point x="555.0" y="319.29646455628165" type="curve" name="SYUIIJEF"/>
      <point x="487.0" y="328.4888527117068" name="ACUCUPIE"/>
      <point x="416.0" y="329.9030662740799" name="PSLLPKZZ"/>
      <point x="355.0" y="323.53910524340097" type="curve" name="DSCQRQIB"/>
      <point x="362.0" y="324.9533188057741" name="NBGFNUNB"/>
      <point x="368.0" y="327.78174593052023" name="NNUENTUJ"/>
      <point x="375.0" y="329.19595949289334" type="curve" name="CSWCPZLI"/>
      <point x="321.0" y="329.19595949289334" name="LEGIXXPB"/>
      <point x="269.0" y="325.66042558696057" name="IJJZATGZ"/>
      <point x="226.0" y="317.88225099390854" type="curve" name="XHSEKLHT"/>
      <point x="96.0" y="288.8908729652601" name="PXMWJQBN"/>
      <point x="99.0" y="163.02586591405463" name="HPESOJVZ"/>
    </contour>
  </outline>
</glyph>
<glyph name="s" format="2">
  <advance width="475"/>
  <unicode hex="0073"/>
  <outline>
    <contour>
      <point x="539" y="126" type="curve" name="TAEXMTFL"/>
      <point x="484" y="301" name="CYKGKVQF"/>
      <point x="261" y="257" name="AKVQSPGJ"/>
      <point x="279" y="283" type="curve" smooth="yes" name="MFYMDBLA"/>
      <point x="292" y="303" name="PGBLZIOY"/>
      <point x="386" y="309" name="XRJCHCCM"/>
      <point x="504" y="267" type="curve" name="TPEGXNSH"/>
      <point x="519" y="293" name="QWATEVCN"/>
      <point x="545" y="313" name="MUVKDNXQ"/>
      <point x="583" y="322" type="curve" name="SSGGVXOB"/>
      <point x="405" y="356" name="LSBQIANA"/>
      <point x="171" y="341" name="UTMLJAVY"/>
      <point x="128" y="265" type="curve" smooth="yes" name="ISODJJKD"/>
      <point x="75" y="170" name="QMVEVJOC"/>
      <point x="338" y="187" name="ARVDYBUD"/>
      <point x="355" y="134" type="curve" smooth="yes" name="KCSIMBGB"/>
      <point x="370" y="91" name="LIOVSIZL"/>
      <point x="238" y="102" name="UXRYFJLV"/>
      <point x="134" y="132" type="curve" name="HBAQFMKO"/>
      <point x="148" y="86" name="HHIJQLCX"/>
      <point x="175" y="28" name="OGXHTLPL"/>
      <point x="212" y="-34" type="curve" name="ZUKMSFVA"/>
      <point x="414" y="-77" name="YESEPBGS"/>
      <point x="587" y="-25" name="ZDVQYTHC"/>
      <point x="539" y="126" type="curve" name="OYGDPNYB"/>
      <point x="539" y="126" name="OQNUPYCZ"/>
      <point x="539" y="126" name="EDQXGJNQ"/>
    </contour>
  </outline>
</glyph>
<glyph name="t" format="2">
  <advance width="393"/>
  <unicode hex="0074"/>
  <outline>
    <contour>
      <point x="291" y="-55" type="curve" name="DNFLIAJZ"/>
      <point x="339" y="-51" name="NMYIVIVK"/>
      <point x="396" y="-51" name="JGEDBOKO"/>
      <point x="454" y="-54" type="curve" name="RIUAPESH"/>
      <point x="357" y="101" name="VKQXFPIH"/>
      <point x="313" y="220" name="STTARAQO"/>
      <point x="326" y="297" type="curve" name="NYWHBCYO"/>
      <point x="359" y="296" name="ODVWKBSN"/>
      <point x="396" y="292" name="PZCNSMDX"/>
      <point x="433" y="288" type="curve" name="EGNGHIDL"/>
      <point x="438" y="319" name="ROVYRWED"/>
      <point x="452" y="345" name="RODMORGJ"/>
      <point x="475" y="363" type="curve" name="PWGROJQF"/>
      <point x="438" y="367" name="SXTVDIAR"/>
      <point x="401" y="371" name="WWHSTGID"/>
      <point x="367" y="373" type="curve" name="RBWUEOPT"/>
      <point x="389" y="390" name="NLCZATWS"/>
      <point x="418" y="402" name="KXZCUXWQ"/>
      <point x="454" y="409" type="curve" name="CIZJGVYW"/>
      <point x="396" y="412" name="CLPLOHES"/>
      <point x="339" y="412" name="ISZYSUGD"/>
      <point x="291" y="408" type="curve" name="SRMMJMPX"/>
      <point x="254" y="401" name="XNFCGUGS"/>
      <point x="225" y="389" name="TBHPHBIE"/>
      <point x="203" y="372" type="curve" name="AKAVYUJA"/>
      <point x="179" y="370" name="VHMMCOAG"/>
      <point x="156" y="367" name="PPQENDCV"/>
      <point x="135" y="363" type="curve" name="UZWKHFHH"/>
      <point x="112" y="345" name="CENPBZJJ"/>
      <point x="98" y="319" name="NKPHFYRB"/>
      <point x="93" y="288" type="curve" name="HQSYTWET"/>
      <point x="115" y="292" name="XZIRMDHM"/>
      <point x="138" y="295" name="UQLQJDIT"/>
      <point x="162" y="297" type="curve" name="QNHMDPBX"/>
      <point x="150" y="219" name="TDPIWMFI"/>
      <point x="193" y="100" name="SALRIJSX"/>
    </contour>
  </outline>
</glyph>
<glyph name="v" format="2">
  <advance width="540"/>
  <unicode hex="0076"/>
  <outline>
    <contour>
      <point x="336" y="-39" type="curve" name="CETQLMRB"/>
      <point x="394" y="-35" name="OALJVTRG"/>
      <point x="460" y="-35" name="GXPJTXCW"/>
      <point x="528" y="-39" type="curve" name="EGUURNPT"/>
      <point x="454" y="176" name="RPAANMYB"/>
      <point x="523" y="294" name="CWZGDTWK"/>
      <point x="731" y="310" type="curve" name="DPNIFOCN"/>
      <point x="664" y="318" name="PZEUUZQH"/>
      <point x="598" y="323" name="ZXDZIRBM"/>
      <point x="537" y="327" type="curve" name="IVKSSRBH"/>
      <point x="417" y="313" name="YWSLHPDJ"/>
      <point x="348" y="262" name="ARKSXQZZ"/>
      <point x="332" y="175" type="curve" name="HPICQEGE"/>
      <point x="279" y="262" name="HXXUYPYV"/>
      <point x="278" y="313" name="ILSGCJVN"/>
      <point x="330" y="327" type="curve" name="SITDMBLD"/>
      <point x="277" y="324" name="ASAJEXVH"/>
      <point x="226" y="318" name="NDFBLJOE"/>
      <point x="181" y="310" type="curve" name="VHDXMILN"/>
      <point x="91" y="294" name="SAOFCSKK"/>
      <point x="144" y="176" name="QIZEBTCD"/>
    </contour>
  </outline>
</glyph>
<glyph name="w" format="2">
  <advance width="774"/>
  <unicode hex="0077"/>
  <outline>
    <contour>
      <point x="326" y="-44" type="curve" name="TYADESJX"/>
      <point x="373" y="-40" name="PLWMYIKM"/>
      <point x="425" y="-37" name="XPRVLDLZ"/>
      <point x="476" y="-36" type="curve" name="AKQFWWHN"/>
      <point x="431" y="69" name="LSXUVIKR"/>
      <point x="418" y="155" name="CSKWDKIK"/>
      <point x="437" y="214" type="curve" name="QPMSIVSV"/>
      <point x="460" y="155" name="WYBDCZJW"/>
      <point x="519" y="69" name="CDUQXLDH"/>
      <point x="606" y="-36" type="curve" name="VQMOQUZK"/>
      <point x="661" y="-37" name="IJPTLRRN"/>
      <point x="721" y="-40" name="NZGTOKHI"/>
      <point x="780" y="-44" type="curve" name="FDSWUESH"/>
      <point x="702" y="169" name="WXXXCXXB"/>
      <point x="763" y="287" name="FPWPOWTX"/>
      <point x="962" y="304" type="curve" name="HPBEFSOG"/>
      <point x="897" y="312" name="PPEEMWQZ"/>
      <point x="833" y="317" name="MRFQVFLY"/>
      <point x="772" y="322" type="curve" name="GSWYCEUZ"/>
      <point x="668" y="311" name="LWBVZNKP"/>
      <point x="602" y="268" name="PYPIDUSI"/>
      <point x="583" y="197" type="curve" name="YSNHQWQV"/>
      <point x="551" y="271" name="CCBEOJRY"/>
      <point x="561" y="316" name="AGAQKAFE"/>
      <point x="613" y="330" type="curve" name="NOIYVNSJ"/>
      <point x="564" y="331" name="PQBZMNTS"/>
      <point x="517" y="331" name="WFQONGVT"/>
      <point x="472" y="330" type="curve" name="IVYKHCCN"/>
      <point x="376" y="316" name="DESCLUKH"/>
      <point x="319" y="271" name="YAQKDKKY"/>
      <point x="305" y="200" type="curve" name="WHIXWSZD"/>
      <point x="274" y="269" name="XOWANWZL"/>
      <point x="284" y="311" name="XNAPJWDF"/>
      <point x="335" y="322" type="curve" name="TRQBXZNO"/>
      <point x="286" y="318" name="ZDSSPGWN"/>
      <point x="238" y="312" name="LGHKMMZA"/>
      <point x="194" y="304" type="curve" name="MQSXSAOY"/>
      <point x="99" y="287" name="WWCFXYQX"/>
      <point x="144" y="169" name="EDUKVOXF"/>
    </contour>
  </outline>
</glyph>
<glyph name="x" format="2">
  <advance width="540"/>
  <unicode hex="0078"/>
  <outline>
    <contour>
      <point x="197.0" y="308.68986283848346" type="curve" name="DJYAFABH"/>
      <point x="172.0" y="304.44722215136414" name="FERDJRIC"/>
      <point x="184.0" y="273.3345237791561" name="YPJKFIXA"/>
      <point x="230.0" y="218.8873016277919" type="curve" name="UBFAWSHE"/>
      <point x="178.0" y="155.2476913210026" name="LUJBNYNC"/>
      <point x="165.0" y="60.49538264200524" name="GHVQKQPX"/>
      <point x="190.0" y="-57.59144981614821" type="curve" name="INJELETN"/>
      <point x="238.0" y="-49.10616844190963" name="YMTUQOZK"/>
      <point x="292.0" y="-43.44931419241726" name="TMAIJUIJ"/>
      <point x="348.0" y="-40.62088706767105" type="curve" name="INLNWKAZ"/>
      <point x="338.0" y="17.36186898962586" name="URZIEFKY"/>
      <point x="338.0" y="71.10198435980345" name="JTYONEMY"/>
      <point x="348.0" y="114.94260479336941" type="curve" name="RMCTWXUM"/>
      <point x="392.0" y="71.10198435980345" name="CODCRGEX"/>
      <point x="448.0" y="17.36186898962586" name="RIWQUDCK"/>
      <point x="512.0" y="-40.62088706767105" type="curve" name="NMFGOLEK"/>
      <point x="577.0" y="-43.44931419241726" name="MISVGKJY"/>
      <point x="647.0" y="-49.10616844190963" name="FYIDCBEY"/>
      <point x="720.0" y="-57.59144981614821" type="curve" name="MVRCLJQC"/>
      <point x="584.0" y="63.32380976675145" name="PTYRLXWX"/>
      <point x="484.0" y="158.78322522693537" name="FOSERRHQ"/>
      <point x="429.0" y="222.42283553372465" type="curve" name="BBDMEEEZ"/>
      <point x="488.0" y="275.4558441227157" name="ZKTSVSVR"/>
      <point x="585.0" y="304.44722215136414" name="HASPWMTI"/>
      <point x="713.0" y="308.68986283848346" type="curve" name="WLGCGWMB"/>
      <point x="641.0" y="317.175144212722" name="NEQXZQPM"/>
      <point x="571.0" y="322.8319984622144" name="NLBICIRE"/>
      <point x="508.0" y="324.9533188057741" type="curve" name="TEARCBPX"/>
      <point x="450.0" y="320.0035713374682" name="RYAXOIFW"/>
      <point x="398.0" y="309.39696961967" name="JNJGPMZB"/>
      <point x="355.0" y="293.84062043356596" type="curve" name="EHCHTIVW"/>
      <point x="348.0" y="310.10407640085657" name="RMHGJLRR"/>
      <point x="348.0" y="320.71067811865476" name="LOZDVOAW"/>
      <point x="358.0" y="324.9533188057741" type="curve" name="MULAYFJS"/>
      <point x="300.0" y="322.8319984622144" name="HUJBAXEW"/>
      <point x="246.0" y="317.175144212722" name="SXHVWOQM"/>
    </contour>
  </outline>
</glyph>
<glyph name="y" format="2">
  <advance width="540"/>
  <unicode hex="0079"/>
  <outline>
    <contour>
      <point x="287" y="-170" type="curve" name="AYGSPRJM"/>
      <point x="337" y="-165" name="CWIALNYX"/>
      <point x="393" y="-163" name="IQFJVXEO"/>
      <point x="450" y="-163" type="curve" name="QZUTKWZI"/>
      <point x="361" y="121" name="OXIDFXBJ"/>
      <point x="462" y="277" name="AYAVWNQW"/>
      <point x="747" y="296" type="curve" name="MUYDXRDJ"/>
      <point x="678" y="304" name="HYEUEVDF"/>
      <point x="612" y="310" name="TQAYNSZN"/>
      <point x="551" y="313" type="curve" name="EAGQVVXW"/>
      <point x="448" y="302" name="ELWYHPSX"/>
      <point x="369" y="271" name="VUZNXMZT"/>
      <point x="321" y="222" type="curve" name="XFOLWOBM"/>
      <point x="302" y="271" name="ZDMLLJIH"/>
      <point x="312" y="302" name="HHVUCIJB"/>
      <point x="348" y="313" type="curve" name="HFETTWBP"/>
      <point x="294" y="310" name="DUPWVWRS"/>
      <point x="243" y="304" name="RZOXPLIK"/>
      <point x="197" y="296" type="curve" name="YKBCDZZW"/>
      <point x="125" y="283" name="FGCPUSDC"/>
      <point x="141" y="205" name="ZUFTFOHU"/>
      <point x="246" y="68" type="curve" name="GEVXGJFZ"/>
      <point x="241" y="3" name="PVGTSOBD"/>
      <point x="255" y="-79" name="MTOBORGE"/>
    </contour>
  </outline>
</glyph>
<glyph name="z" format="2">
  <advance width="490"/>
  <unicode hex="007A"/>
  <outline>
    <contour>
      <point x="222.0" y="-55.47012947258855" type="curve" name="COXPWRWY"/>
      <point x="330.0" y="-36.378246380551786" name="CAEFGXOY"/>
      <point x="470.0" y="-36.378246380551786" name="VBQRVFWA"/>
      <point x="632.0" y="-55.47012947258855" type="curve" name="BUZECFNI"/>
      <point x="595.0" y="3.9268401470814354" name="LCIYATZD"/>
      <point x="567.0" y="57.666955517259055" name="MSQNFNNR"/>
      <point x="550.0" y="102.92178951319809" type="curve" name="GJPFHXJJ"/>
      <point x="467.0" y="112.82128444980978" name="ZVOYHCVI"/>
      <point x="390.0" y="117.7710319181156" name="CMANNMZX"/>
      <point x="321.0" y="117.7710319181156" type="curve" name="ZIOBZYLH"/>
      <point x="362.0" y="192.0172439427031" name="NZRDEVRN"/>
      <point x="439.0" y="242.22182540694797" name="MYAAQUXK"/>
      <point x="550.0" y="266.97056274847716" type="curve" name="UKAIQXBG"/>
      <point x="567.0" y="288.1837661840736" name="QBPKYLRP"/>
      <point x="595.0" y="303.03300858899104" name="TGXFKDMD"/>
      <point x="632.0" y="310.10407640085657" type="curve" name="SESISVZO"/>
      <point x="470.0" y="329.19595949289334" name="HUIDBJTQ"/>
      <point x="330.0" y="329.19595949289334" name="SEARJPBS"/>
      <point x="222.0" y="310.10407640085657" type="curve" name="LEOYWQJN"/>
      <point x="185.0" y="303.03300858899104" name="PBSIBUSI"/>
      <point x="157.0" y="288.1837661840736" name="DKPVCXQX"/>
      <point x="140.0" y="266.97056274847716" type="curve" name="AHXYWQIH"/>
      <point x="195.0" y="276.8700576850888" name="WQBCGPFJ"/>
      <point x="258.0" y="281.81980515339467" name="RLNVRVKW"/>
      <point x="327.0" y="281.81980515339467" type="curve" name="FESGEUFF"/>
      <point x="231.0" y="246.46446609406726" name="UTBZBTLX"/>
      <point x="167.0" y="187.06749647439727" name="IXIVVDBR"/>
      <point x="140.0" y="102.92178951319809" type="curve" name="MFXAWVJR"/>
      <point x="157.0" y="57.666955517259055" name="ZJAIMHEO"/>
      <point x="185.0" y="3.9268401470814354" name="TGWUHHXL"/>
    </contour>
  </outline>
</glyph>
<glyph name="braceleft" format="2">
  <advance width="461"/>
  <unicode hex="007B"/>
  <outline>
    <contour>
      <point x="78" y="216" type="curve" name="AOMNFJJR"/>
      <point x="92" y="219" name="AUADDTLP"/>
      <point x="108" y="221" name="TXAGUFYC"/>
      <point x="123" y="223" type="curve" smooth="yes" name="UPJXFQMK"/>
      <point x="141" y="226" name="XOCGZRAZ"/>
      <point x="152" y="219" name="JATHJIQI"/>
      <point x="155" y="204" type="curve" smooth="yes" name="XZZSQKEA"/>
      <point x="162" y="166" name="AJHGSREL"/>
      <point x="144" y="106" name="LUGFUUBQ"/>
      <point x="193" y="3" type="curve" smooth="yes" name="MYLILQGU"/>
      <point x="265" y="-149" name="PKJUWVJY"/>
      <point x="433" y="-216" name="GPEMEBBS"/>
      <point x="636" y="-190" type="curve" name="IGPQIPOZ"/>
      <point x="599" y="-130" name="ARUYXTYC"/>
      <point x="566" y="-71" name="IBLZVQKP"/>
      <point x="540" y="-19" type="curve" name="BFMSBQXW"/>
      <point x="413" y="-41" name="CZXRNZAG"/>
      <point x="357" y="-18" name="YTPFLAQP"/>
      <point x="335" y="31" type="curve" smooth="yes" name="NZIKNHVV"/>
      <point x="312" y="81" name="XMMEZKIY"/>
      <point x="327" y="144" name="ITXJKKTY"/>
      <point x="315" y="207" type="curve" smooth="yes" name="ZKIWRRSF"/>
      <point x="309" y="239" name="ATLOWZXT"/>
      <point x="289" y="267" name="SDELKZFT"/>
      <point x="246" y="280" type="curve" name="YYCMMTVV"/>
      <point x="289" y="294" name="KDQHHJOM"/>
      <point x="309" y="318" name="CAOZVVSW"/>
      <point x="315" y="342" type="curve" smooth="yes" name="QBWYWEDJ"/>
      <point x="327" y="387" name="JQLNHTHF"/>
      <point x="312" y="416" name="LLSGUEII"/>
      <point x="335" y="434" type="curve" smooth="yes" name="FSLHQPUH"/>
      <point x="358" y="451" name="JRVHMJMM"/>
      <point x="413" y="462" name="ZNSHSWDB"/>
      <point x="540" y="433" type="curve" name="UNHMIVMZ"/>
      <point x="566" y="448" name="WSRALYPR"/>
      <point x="599" y="460" name="NRQANGHK"/>
      <point x="636" y="468" type="curve" name="QDLXSZWA"/>
      <point x="433" y="503" name="KYRIFSHA"/>
      <point x="265" y="484" name="AHRUJYRH"/>
      <point x="193" y="434" type="curve" smooth="yes" name="SHZLXGYC"/>
      <point x="143" y="400" name="WRYIYGXC"/>
      <point x="162" y="366" name="QKVDRBRV"/>
      <point x="155" y="339" type="curve" smooth="yes" name="HHNFZMDT"/>
      <point x="152" y="327" name="YCJDTZNY"/>
      <point x="141" y="321" name="FPMYIPEP"/>
      <point x="123" y="319" type="curve" smooth="yes" name="PIYIOZUG"/>
      <point x="108" y="317" name="LQCWIRXV"/>
      <point x="92" y="315" name="LDQHSTQX"/>
      <point x="78" y="312" type="curve" name="MKUUQBUM"/>
      <point x="73" y="284" name="UGLVJCHO"/>
      <point x="73" y="252" name="OJWARDYE"/>
    </contour>
  </outline>
</glyph>
<glyph name="asciitilde" format="2">
  <advance width="639"/>
  <unicode hex="007E"/>
  <outline>
    <contour>
      <point x="593.0" y="283.94112549695427" type="curve" name="QNFGPPHT"/>
      <point x="534.0" y="270.5060966544099" name="OTBHDNAW"/>
      <point x="523.0" y="242.92893218813452" name="COYYKKNI"/>
      <point x="491.0" y="244.34314575050763" type="curve" smooth="yes" name="DWUJTXQY"/>
      <point x="437.0" y="246.46446609406726" name="YVBKPSXV"/>
      <point x="460.0" y="293.1335136523794" name="GDZNAOFU"/>
      <point x="348.0" y="286.7695526217005" type="curve" smooth="yes" name="XUHBPVDQ"/>
      <point x="247.0" y="281.1126983722081" name="LKEZDCCL"/>
      <point x="61.0" y="296.6690475583121" name="EBEAMLIY"/>
      <point x="191.0" y="83.82990642116133" type="curve" name="PQUAYKKU"/>
      <point x="229.0" y="90.9009742330268" name="KHMNKZST"/>
      <point x="271.0" y="95.85072170133262" name="IBGLYKYM"/>
      <point x="314.0" y="99.38625560726535" type="curve" name="HVWBZNRB"/>
      <point x="255.0" y="196.25988462982238" name="ZGYVAWRB"/>
      <point x="284.0" y="211.10912703473988" name="UVRVOEPZ"/>
      <point x="312.0" y="212.52334059711296" type="curve" smooth="yes" name="HMQGSPYP"/>
      <point x="360.0" y="214.64466094067262" name="WORGXWLO"/>
      <point x="435.0" y="98.67914882607883" name="IURJQMBM"/>
      <point x="565.0" y="92.31518779539988" type="curve" smooth="yes" name="FISZJWKY"/>
      <point x="682.0" y="86.65833354590751" name="OBAIUIBF"/>
      <point x="630.0" y="239.3933982822018" name="IDRLXQVY"/>
      <point x="760.0" y="268.3847763108502" type="curve" name="LZHHEANX"/>
      <point x="702.0" y="275.4558441227157" name="BWIFCZSR"/>
      <point x="646.0" y="280.40559159102156" name="RMFBTPNN"/>
    </contour>
  </outline>
</glyph>
<glyph name="exclamdown" format="2">
  <advance width="291"/>
  <unicode hex="00A1"/>
  <outline>
    <contour>
      <point x="329.0" y="364.5512985522207" type="curve" name="ENFOBEJP"/>
      <point x="272.0" y="364.5512985522207" name="VSCKQJQK"/>
      <point x="196.0" y="351.1162697096763" name="JNSLDMCU"/>
      <point x="164.0" y="333.4386001800126" type="curve" smooth="yes" name="ZSMWYPZE"/>
      <point x="133.0" y="315.76093065034894" name="GPMGHYTK"/>
      <point x="156.0" y="300.2045814642449" name="TYFLDBUE"/>
      <point x="213.0" y="300.2045814642449" type="curve" smooth="yes" name="JHZGUHOZ"/>
      <point x="272.0" y="300.2045814642449" name="PIAXSMYW"/>
      <point x="343.0" y="316.4680374315355" name="RRFQPPQU"/>
      <point x="375.0" y="333.4386001800126" type="curve" smooth="yes" name="BNPQVSQY"/>
      <point x="407.0" y="351.1162697096763" name="UZAZGUDP"/>
      <point x="388.0" y="364.5512985522207" name="RRLMBPAA"/>
      <point x="329.0" y="364.5512985522207" type="curve" name="QZRBDYZE"/>
      <point x="329.0" y="364.5512985522207" name="DWQPUBAY"/>
      <point x="329.0" y="364.5512985522207" name="JLDJOZTT"/>
    </contour>
    <contour>
      <point x="288.0" y="267.6776695296637" type="curve" name="VRLAZFTL"/>
      <point x="226.0" y="273.3345237791561" name="RWFCVBTY"/>
      <point x="169.0" y="273.3345237791561" name="LXWSNCOY"/>
      <point x="123.0" y="267.6776695296637" type="curve" name="GWYMIQAD"/>
      <point x="93.0" y="185.65328291202417" name="EGEEXRNW"/>
      <point x="136.0" y="50.59588770539358" name="ESEJNGNN"/>
      <point x="250.0" y="-133.25187540310878" type="curve" name="CCSQDJWA"/>
      <point x="298.0" y="-126.18080759124331" name="NXEVRJUE"/>
      <point x="357.0" y="-126.18080759124331" name="JINMIYUL"/>
      <point x="425.0" y="-133.25187540310878" type="curve" name="ZVXJNESQ"/>
      <point x="307.0" y="50.59588770539358" name="VMZXXZMB"/>
      <point x="262.0" y="185.65328291202417" name="PBAYFUMK"/>
    </contour>
  </outline>
</glyph>
<glyph name="currency" format="2">
  <advance width="646"/>
  <unicode hex="00A4"/>
  <outline>
    <contour>
      <point x="304.0" y="-28.600071787499758" type="curve" name="QWWDXDWB"/>
      <point x="307.0" y="10.99790795894691" name="MHWHDRZR"/>
      <point x="312.0" y="50.59588770539358" name="KAXRNOOL"/>
      <point x="324.0" y="83.82990642116133" type="curve" name="UXKZNPTW"/>
      <point x="362.0" y="69.68777079743037" name="EITZVDGD"/>
      <point x="401.0" y="61.909596204378346" name="CAFBURXB"/>
      <point x="440.0" y="61.909596204378346" type="curve" smooth="yes" name="ZWLGHYUX"/>
      <point x="480.0" y="61.909596204378346" name="FUTCCSGJ"/>
      <point x="514.0" y="69.68777079743037" name="SUYXNYKD"/>
      <point x="539.0" y="85.2441199835344" type="curve" name="JHTVQOTW"/>
      <point x="588.0" y="50.59588770539358" name="ZJBYJXGR"/>
      <point x="642.0" y="12.412121521320017" name="SMLEJMQY"/>
      <point x="700.0" y="-28.600071787499758" type="curve" name="MYSLDHHJ"/>
      <point x="712.0" y="13.826335083693124" name="KUPEJGSI"/>
      <point x="731.0" y="54.13142161132632" name="ROUIBDYM"/>
      <point x="756.0" y="87.36544032709406" type="curve" name="AFTYYXUH"/>
      <point x="705.0" y="123.42788616760798" name="NXJFVSUT"/>
      <point x="657.0" y="157.36901166456227" name="VQPBFJTA"/>
      <point x="615.0" y="187.06749647439727" type="curve" name="VQCLNPVX"/>
      <point x="623.0" y="214.64466094067262" name="XOPTOAFJ"/>
      <point x="626.0" y="244.34314575050763" name="RUFIRFHZ"/>
      <point x="626.0" y="272.62741699796953" type="curve" smooth="yes" name="WQPTHJQH"/>
      <point x="626.0" y="300.2045814642449" name="JORJEBNQ"/>
      <point x="623.0" y="322.12489168102786" name="LGFSPRII"/>
      <point x="616.0" y="339.8025612106915" type="curve" name="BLDUWWBH"/>
      <point x="658.0" y="351.82337649086287" name="KMJDVEBI"/>
      <point x="705.0" y="361.7228714274745" name="DBQGOTRW"/>
      <point x="756.0" y="367.3797256769669" type="curve" name="FOUEFYOI"/>
      <point x="731.0" y="385.0573952066306" name="MFYXAJXT"/>
      <point x="712.0" y="398.492424049175" name="MRAAOVGM"/>
      <point x="700.0" y="406.97770542341357" type="curve" name="BZINUECE"/>
      <point x="642.0" y="405.56349186104046" name="GRCCGYGG"/>
      <point x="588.0" y="401.32085117392114" name="ASZDYWFE"/>
      <point x="539.0" y="393.54267658086917" type="curve" name="JNUHGVHV"/>
      <point x="514.0" y="399.19953083036154" name="LENNYIKJ"/>
      <point x="480.0" y="402.73506473629425" name="ZAFOKZYL"/>
      <point x="440.0" y="402.73506473629425" type="curve" smooth="yes" name="EHPIRXMS"/>
      <point x="401.0" y="402.73506473629425" name="VASKXOBM"/>
      <point x="362.0" y="399.19953083036154" name="QPKVNPMK"/>
      <point x="324.0" y="393.54267658086917" type="curve" name="LFFWHIFG"/>
      <point x="313.0" y="400.61374439273465" name="JEAALLAV"/>
      <point x="307.0" y="405.56349186104046" name="JYNLPQSU"/>
      <point x="304.0" y="406.97770542341357" type="curve" name="XBLLFOLA"/>
      <point x="244.0" y="398.492424049175" name="MZXLYFDH"/>
      <point x="187.0" y="385.0573952066306" name="VCAYRERG"/>
      <point x="140.0" y="367.3797256769669" type="curve" name="RUVNBQZV"/>
      <point x="148.0" y="361.01576464628795" name="ZSALAJAU"/>
      <point x="161.0" y="352.5304832720494" name="OOCUNYVZ"/>
      <point x="178.0" y="339.8025612106915" type="curve" name="QDEADDTN"/>
      <point x="157.0" y="322.12489168102786" name="OPWRETQJ"/>
      <point x="144.0" y="300.2045814642449" name="TZKTUJNG"/>
      <point x="144.0" y="272.62741699796953" type="curve" smooth="yes" name="HWHTFVZV"/>
      <point x="144.0" y="244.34314575050763" name="ZRUDXLIL"/>
      <point x="157.0" y="214.64466094067262" name="JROKQLRA"/>
      <point x="179.0" y="187.06749647439727" type="curve" name="GUFSYVIP"/>
      <point x="162.0" y="156.6619048833757" name="BJOWYGIY"/>
      <point x="148.0" y="124.13499294879453" name="OQNSFLOZ"/>
      <point x="140.0" y="87.36544032709406" type="curve" name="AVSULHDI"/>
      <point x="187.0" y="54.13142161132632" name="SPVLWUNV"/>
      <point x="244.0" y="13.826335083693124" name="EHQCIHPM"/>
    </contour>
    <contour>
      <point x="377.0" y="208.98780669118025" type="curve" name="ASCDSGPM"/>
      <point x="321.0" y="208.98780669118025" name="SMOSCZIG"/>
      <point x="278.0" y="242.22182540694797" name="KZEPNHQF"/>
      <point x="278.0" y="283.94112549695427" type="curve" smooth="yes" name="AFXAGTVG"/>
      <point x="278.0" y="325.66042558696057" name="UMZTYKCW"/>
      <point x="322.0" y="345.4594154601839" name="KKRKKNFM"/>
      <point x="378.0" y="345.4594154601839" type="curve" smooth="yes" name="TIWSWDSR"/>
      <point x="434.0" y="345.4594154601839" name="NVFXGSVM"/>
      <point x="461.0" y="325.66042558696057" name="VJEKMZEQ"/>
      <point x="461.0" y="283.94112549695427" type="curve" smooth="yes" name="SMAUGPZZ"/>
      <point x="461.0" y="242.22182540694797" name="HLTUGMCB"/>
      <point x="433.0" y="208.98780669118025" name="IYKBHCPC"/>
      <point x="377.0" y="208.98780669118025" type="curve" name="XVQPANOP"/>
      <point x="377.0" y="208.98780669118025" name="HYIZIKQA"/>
      <point x="377.0" y="208.98780669118025" name="BHNTLNQD"/>
    </contour>
  </outline>
</glyph>
<glyph name="yen" format="2">
  <advance width="599"/>
  <unicode hex="00A5"/>
  <outline>
    <contour>
      <point x="176" y="56" type="curve" name="JORMABMS"/>
      <point x="220" y="62" name="AKTPSWHU"/>
      <point x="269" y="67" name="SBMWTIDG"/>
      <point x="319" y="69" type="curve" name="OSSZDLSZ"/>
      <point x="337" y="33" name="AUJBUGOD"/>
      <point x="361" y="-9" name="GGYWJURB"/>
      <point x="388" y="-51" type="curve" name="TZUAZNRC"/>
      <point x="442" y="-48" name="ZPPVOHGV"/>
      <point x="501" y="-48" name="SUZHJACS"/>
      <point x="563" y="-51" type="curve" name="MFSGHXAX"/>
      <point x="536" y="-9" name="RVXMKWKK"/>
      <point x="512" y="33" name="FFGERYZH"/>
      <point x="494" y="69" type="curve" name="ZFZFJQTM"/>
      <point x="550" y="67" name="UCIEEYME"/>
      <point x="613" y="62" name="PVCCVYBR"/>
      <point x="675" y="56" type="curve" name="WAYEEQSO"/>
      <point x="653" y="98" name="ZSUYZSTU"/>
      <point x="636" y="138" name="PCLAJOBO"/>
      <point x="626" y="172" type="curve" name="DAUOXKIV"/>
      <point x="564" y="178" name="CNKCSYCN"/>
      <point x="501" y="183" name="ZMUPXDZW"/>
      <point x="445" y="185" type="curve" name="HZHJLXLH"/>
      <point x="441" y="198" name="ZHAKVGXA"/>
      <point x="437" y="212" name="FXDUXOSF"/>
      <point x="434" y="225" type="curve" name="DKMQAUOK"/>
      <point x="490" y="222" name="BRDFRDSG"/>
      <point x="553" y="217" name="IHAXYKCE"/>
      <point x="615" y="211" type="curve" name="YJLZLLWV"/>
      <point x="607" y="244" name="RHUKGFPQ"/>
      <point x="606" y="272" name="RJNULYAU"/>
      <point x="609" y="297" type="curve" name="YZBRKMEG"/>
      <point x="562" y="302" name="HTKAYRGE"/>
      <point x="516" y="305" name="ENRKEUSP"/>
      <point x="472" y="308" type="curve" name="LPAAZGFL"/>
      <point x="540" y="369" name="MQOQCEOM"/>
      <point x="651" y="404" name="YVKUIQPL"/>
      <point x="796" y="411" type="curve" name="GBQUWWHF"/>
      <point x="722" y="420" name="UTFQDWHV"/>
      <point x="652" y="425" name="EVIMHKZM"/>
      <point x="586" y="429" type="curve" name="TPKKIQMF"/>
      <point x="494" y="421" name="NIJLIEFK"/>
      <point x="417" y="401" name="IUPHXAWU"/>
      <point x="360" y="368" type="curve" name="BBYNWYHF"/>
      <point x="345" y="401" name="LTPYNKQJ"/>
      <point x="349" y="421" name="OMVGJMVS"/>
      <point x="369" y="429" type="curve" name="DLLYEVME"/>
      <point x="313" y="425" name="AAPAKNYG"/>
      <point x="257" y="420" name="HKCWTCGT"/>
      <point x="209" y="411" type="curve" name="TGBMGRZV"/>
      <point x="172" y="404" name="KREDZTYP"/>
      <point x="175" y="369" name="COTOKOIS"/>
      <point x="215" y="308" type="curve" name="YWZNGTBY"/>
      <point x="179" y="305" name="LKYUJHDC"/>
      <point x="143" y="302" name="DLCROESA"/>
      <point x="110" y="297" type="curve" name="GMCYDPKQ"/>
      <point x="107" y="272" name="UPNAJHBW"/>
      <point x="108" y="244" name="JQVMBEUM"/>
      <point x="116" y="211" type="curve" name="RWSKFHRQ"/>
      <point x="160" y="217" name="HKZKEGSC"/>
      <point x="209" y="222" name="LTBOVNNA"/>
      <point x="259" y="225" type="curve" name="SCQQRSUO"/>
      <point x="261" y="213" name="WNFGLSXC"/>
      <point x="265" y="199" name="BNVRVLNZ"/>
      <point x="270" y="185" type="curve" name="SMJGQXKY"/>
      <point x="220" y="183" name="KCUHPUPQ"/>
      <point x="171" y="178" name="APITBWXP"/>
      <point x="127" y="172" type="curve" name="JDROMBYJ"/>
      <point x="138" y="137" name="BMAZYUHG"/>
      <point x="154" y="98" name="MSXQYRRO"/>
    </contour>
  </outline>
</glyph>
<glyph name="brokenbar" format="2">
  <advance width="315"/>
  <unicode hex="00A6"/>
  <outline>
    <contour>
      <point x="272" y="291" type="curve" name="PYQSBIXJ"/>
      <point x="281" y="385" name="RFYKZRZV"/>
      <point x="343" y="444" name="CVXHRRHI"/>
      <point x="457" y="464" type="curve" name="EJSRURLP"/>
      <point x="392" y="472" name="FERDEADG"/>
      <point x="335" y="472" name="BTJMGMPV"/>
      <point x="292" y="464" type="curve" name="LTRTKPGQ"/>
      <point x="178" y="444" name="ANJCHOHI"/>
      <point x="116" y="385" name="SWEZZMUA"/>
      <point x="107" y="291" type="curve" name="SNQRQEUX"/>
      <point x="150" y="299" name="WLRQTCWX"/>
      <point x="207" y="299" name="DWNFYWBW"/>
    </contour>
    <contour>
      <point x="457" y="-193" type="curve" name="SYKXGXTE"/>
      <point x="343" y="-12" name="MMEDMDCY"/>
      <point x="281" y="135" name="UYELASPH"/>
      <point x="272" y="242" type="curve" name="JWOJGDPK"/>
      <point x="207" y="249" name="MMXCTLEV"/>
      <point x="150" y="249" name="CSONRAHQ"/>
      <point x="107" y="242" type="curve" name="JIECYSOC"/>
      <point x="116" y="135" name="YLFRAMDZ"/>
      <point x="178" y="-12" name="VVSCIEGZ"/>
      <point x="292" y="-193" type="curve" name="PRYLNEXH"/>
      <point x="335" y="-186" name="LAGMCYXU"/>
      <point x="392" y="-186" name="BRSFVZFY"/>
    </contour>
  </outline>
</glyph>
<glyph name="section" format="2">
  <advance width="505"/>
  <unicode hex="00A7"/>
  <outline>
    <contour>
      <point x="560" y="52" type="curve" name="GZDJFSRZ"/>
      <point x="533" y="114" name="PMXQOPEW"/>
      <point x="482" y="146" name="OWIROSWV"/>
      <point x="434" y="166" type="curve" name="IVJIYUXM"/>
      <point x="496" y="185" name="SIFDNWKS"/>
      <point x="524" y="223" name="UORBNVYS"/>
      <point x="526" y="260" type="curve" smooth="yes" name="BITIWKVV"/>
      <point x="534" y="372" name="OASDSCUM"/>
      <point x="286" y="364" name="UQQEMTYC"/>
      <point x="312" y="385" type="curve" smooth="yes" name="RGQJNMEG"/>
      <point x="327" y="398" name="IWQMSVBZ"/>
      <point x="395" y="409" name="FAWGVHTO"/>
      <point x="534" y="376" type="curve" name="JLJGOCXG"/>
      <point x="556" y="395" name="BGNNOBEM"/>
      <point x="587" y="408" name="FULWXRVS"/>
      <point x="625" y="416" type="curve" name="SCMDMLPL"/>
      <point x="428" y="450" name="HUADROHT"/>
      <point x="214" y="427" name="UGBYFCXK"/>
      <point x="149" y="369" type="curve" smooth="yes" name="YYWAYSEW"/>
      <point x="124" y="345" name="CDIOGGJJ"/>
      <point x="140" y="330" name="OEMYZXSK"/>
      <point x="167" y="322" type="curve" name="WYNGVQIN"/>
      <point x="108" y="301" name="LWJNAJAR"/>
      <point x="78" y="267" name="UQSUFIOZ"/>
      <point x="80" y="228" type="curve" smooth="yes" name="VNPJYCDU"/>
      <point x="87" y="108" name="KVMVXJPM"/>
      <point x="341" y="120" name="ETTJEJJY"/>
      <point x="366" y="64" type="curve" smooth="yes" name="TTLJNNUA"/>
      <point x="382" y="28" name="XCQMRZMC"/>
      <point x="294" y="14" name="TWMCHKZB"/>
      <point x="157" y="49" type="curve" name="TQXZTWSJ"/>
      <point x="180" y="-2" name="GXDIUKDK"/>
      <point x="210" y="-59" name="BZXTURGT"/>
      <point x="246" y="-119" type="curve" name="KBBTLCSA"/>
      <point x="479" y="-179" name="QCWORKOU"/>
      <point x="623" y="-92" name="XGQKWCBI"/>
      <point x="560" y="52" type="curve" name="UFPRXKLA"/>
      <point x="560" y="52" name="DGAUANZJ"/>
      <point x="560" y="52" name="KPPIRFOG"/>
    </contour>
    <contour>
      <point x="353" y="256" type="curve" name="QOUMUBAD"/>
      <point x="353" y="238" name="IMGFGRDU"/>
      <point x="331" y="224" name="LNYQLPUN"/>
      <point x="292" y="224" type="curve" smooth="yes" name="HTPPKJBY"/>
      <point x="245" y="225" name="XETVTNHK"/>
      <point x="212" y="242" name="ROLCWFHH"/>
      <point x="213" y="262" type="curve" smooth="yes" name="PYVWBPYP"/>
      <point x="213" y="281" name="GXLVFUKL"/>
      <point x="236" y="294" name="NGYRBXBJ"/>
      <point x="274" y="294" type="curve" smooth="yes" name="WIIBNMGJ"/>
      <point x="320" y="294" name="FHSHMTKR"/>
      <point x="353" y="277" name="ZMCZSDRM"/>
      <point x="353" y="256" type="curve" name="WRYLUQNS"/>
      <point x="353" y="256" name="HOWYSGMJ"/>
      <point x="353" y="256" name="GWZMTVUO"/>
    </contour>
  </outline>
</glyph>
<glyph name="dieresis" format="2">
  <advance width="577"/>
  <unicode hex="00A8"/>
  <anchor x="0" y="517" name="top"/>
  <anchor x="288" y="517" name="center"/>
  <outline>
    <contour>
      <point x="304" y="388" type="curve" name="EWGWQVWM"/>
      <point x="354" y="392" name="YVEPXWBB"/>
      <point x="360" y="453" name="WOGPHOOQ"/>
      <point x="360" y="493" type="curve" smooth="yes" name="TDAIGGCG"/>
      <point x="360" y="532" name="YAPVNEKL"/>
      <point x="354" y="535" name="JILJUPRV"/>
      <point x="304" y="531" type="curve" smooth="yes" name="THDLPDMI"/>
      <point x="252" y="527" name="RBNUMQHQ"/>
      <point x="176" y="516" name="NWFPMIWW"/>
      <point x="175" y="477" type="curve" smooth="yes" name="JIPDXKLH"/>
      <point x="175" y="438" name="IOYMYAUE"/>
      <point x="252" y="383" name="HJQVJGWV"/>
      <point x="304" y="388" type="curve" name="SBSQRSQN"/>
      <point x="304" y="388" name="NEZUJBXX"/>
      <point x="304" y="388" name="ROPRWNCM"/>
    </contour>
    <contour>
      <point x="544" y="388" type="curve" name="PCMRDNGU"/>
      <point x="606" y="383" name="YWHYRMBT"/>
      <point x="622" y="438" name="TWQNKJWJ"/>
      <point x="622" y="477" type="curve" smooth="yes" name="PUQOVCQH"/>
      <point x="622" y="516" name="RDZLIHBV"/>
      <point x="606" y="527" name="MLPKIHVL"/>
      <point x="544" y="531" type="curve" smooth="yes" name="ACBSRRQT"/>
      <point x="480" y="535" name="WACXZPEO"/>
      <point x="394" y="531" name="BLIDQJRK"/>
      <point x="393" y="493" type="curve" smooth="yes" name="LUYGHRST"/>
      <point x="393" y="453" name="YGCORYND"/>
      <point x="480" y="392" name="AKWKJWRX"/>
      <point x="544" y="388" type="curve" name="QOAZDAUA"/>
      <point x="544" y="388" name="JXQVQLSE"/>
      <point x="544" y="388" name="BGUJBWOP"/>
    </contour>
  </outline>
</glyph>
<glyph name="copyright" format="2">
  <advance width="803"/>
  <unicode hex="00A9"/>
  <outline>
    <contour>
      <point x="579.0" y="-59.712770159707816" type="curve" name="QWLKOUYB"/>
      <point x="787.0" y="-60.41987694089437" name="SOJBPCIE"/>
      <point x="822.0" y="121.30656582404833" name="TMLSOHNJ"/>
      <point x="822.0" y="266.2634559672906" type="curve" smooth="yes" name="HTJWVKRU"/>
      <point x="822.0" y="411.2203461105329" name="WPQLTMVO"/>
      <point x="787.0" y="441.6259377015544" name="BURZNBGB"/>
      <point x="579.0" y="442.33304448274095" type="curve" smooth="yes" name="BXMXNAYO"/>
      <point x="371.0" y="442.33304448274095" name="AGCCMBSC"/>
      <point x="115.0" y="411.2203461105329" name="FFTNELOJ"/>
      <point x="115.0" y="266.2634559672906" type="curve" smooth="yes" name="YNUIORWR"/>
      <point x="115.0" y="121.30656582404833" name="IITHRSFX"/>
      <point x="371.0" y="-59.712770159707816" name="DQHYTZSK"/>
      <point x="579.0" y="-59.712770159707816" type="curve" name="HYFKYKRJ"/>
      <point x="579.0" y="-59.712770159707816" name="DNSSZCBW"/>
      <point x="579.0" y="-59.712770159707816" name="RLOZRRCI"/>
    </contour>
    <contour>
      <point x="510.0" y="60.49538264200524" type="curve" name="JLINBXDG"/>
      <point x="363.0" y="61.20248942319179" name="NJBHLIHO"/>
      <point x="205.0" y="175.04668119422595" name="EHGVZITA"/>
      <point x="205.0" y="278.99137802864846" type="curve" smooth="yes" name="FCPVVOHW"/>
      <point x="205.0" y="382.936074863071" name="CGTWUFGE"/>
      <point x="363.0" y="420.41273426595797" name="SDYLAKFB"/>
      <point x="510.0" y="419.7056274847714" type="curve" smooth="yes" name="RGKPTCHI"/>
      <point x="655.0" y="419.7056274847714" name="BFMKURQN"/>
      <point x="696.0" y="382.936074863071" name="OWJHWYDV"/>
      <point x="696.0" y="278.99137802864846" type="curve" smooth="yes" name="BUFCGEOK"/>
      <point x="696.0" y="175.04668119422595" name="VHUYCYJR"/>
      <point x="655.0" y="60.49538264200524" name="WGBUZQSN"/>
      <point x="510.0" y="60.49538264200524" type="curve" name="WOZBHECJ"/>
      <point x="510.0" y="60.49538264200524" name="CZBZVAQB"/>
      <point x="510.0" y="60.49538264200524" name="UEEKRKUR"/>
    </contour>
    <contour>
      <point x="285.0" y="286.06244584051393" type="curve" name="STAXAUDE"/>
      <point x="285.0" y="192.72435072388964" name="XZMDXYQY"/>
      <point x="437.0" y="114.94260479336941" name="ZIRMNJAH"/>
      <point x="581.0" y="151.7121574150699" type="curve" name="FZYAVUGF"/>
      <point x="568.0" y="187.06749647439727" name="YIEEQQHS"/>
      <point x="559.0" y="219.59440840897847" name="HISMTWDO"/>
      <point x="554.0" y="249.29289321881345" type="curve" name="TRTLVHYM"/>
      <point x="483.0" y="226.66547622084394" name="URPWCJGE"/>
      <point x="406.0" y="244.34314575050763" name="XBPRYBUD"/>
      <point x="406.0" y="291.01219330881975" type="curve" smooth="yes" name="YOKZWFSZ"/>
      <point x="406.0" y="337.6812408671319" name="NYRZFDBF"/>
      <point x="483.0" y="348.2878425849301" name="ATFSXJCQ"/>
      <point x="554.0" y="324.2462120245875" type="curve" name="YOKYHBNQ"/>
      <point x="559.0" y="346.873629022557" name="GDWGZKIK"/>
      <point x="568.0" y="366.6726188957804" name="GRRMGENQ"/>
      <point x="581.0" y="383.6431816442575" type="curve" name="RELKQDLC"/>
      <point x="437.0" y="410.51323932934633" name="AUYXQQZH"/>
      <point x="285.0" y="379.4005409571382" name="YLPFMOYU"/>
      <point x="285.0" y="286.06244584051393" type="curve" name="JPNMJOTW"/>
      <point x="285.0" y="286.06244584051393" name="WKLMKYJZ"/>
      <point x="285.0" y="286.06244584051393" name="PBUBFKWP"/>
    </contour>
  </outline>
</glyph>
<glyph name="ordfeminine" format="2">
  <advance width="495"/>
  <unicode hex="00AA"/>
  <outline>
    <contour>
      <point x="380" y="228" type="curve" name="GSFEACLJ"/>
      <point x="429" y="226" name="VQFNQVYB"/>
      <point x="483" y="221" name="EFEGCQBS"/>
      <point x="538" y="214" type="curve" name="UBWMKIGO"/>
      <point x="498" y="335" name="QDRRXFSK"/>
      <point x="530" y="407" name="DAQWPNHD"/>
      <point x="629" y="429" type="curve" name="ZISOZXTT"/>
      <point x="574" y="436" name="NHBBJXXZ"/>
      <point x="521" y="440" name="QMGPIQVN"/>
      <point x="472" y="442" type="curve" name="IQAPJIZW"/>
      <point x="467" y="441" name="ZJJMPTWF"/>
      <point x="463" y="440" name="TUSNWYKB"/>
      <point x="459" y="438" type="curve" name="CACSFYPZ"/>
      <point x="448" y="443" name="OZNURPMG"/>
      <point x="426" y="446" name="RWISGEVA"/>
      <point x="394" y="446" type="curve" smooth="yes" name="BUCYZUQU"/>
      <point x="294" y="444" name="NYSVHSQU"/>
      <point x="147" y="428" name="SIVTPZCF"/>
      <point x="118" y="359" type="curve" smooth="yes" name="KDBZGZAZ"/>
      <point x="89" y="292" name="SWYRRTAZ"/>
      <point x="197" y="217" name="HTRSIKIJ"/>
      <point x="298" y="219" type="curve" smooth="yes" name="LUFGATNF"/>
      <point x="330" y="219" name="SGDCPLNA"/>
      <point x="356" y="228" name="EUPIMQJE"/>
      <point x="376" y="244" type="curve" name="VEBDHIFF"/>
      <point x="377" y="239" name="VSWVQQCL"/>
      <point x="379" y="233" name="OOUTREYW"/>
    </contour>
    <contour>
      <point x="295" y="322" type="curve" name="QOOMEDKX"/>
      <point x="253" y="322" name="LISJHDLE"/>
      <point x="227" y="345" name="GFJARUZB"/>
      <point x="238" y="373" type="curve" smooth="yes" name="UVLBJGLQ"/>
      <point x="250" y="400" name="ISIFSMPQ"/>
      <point x="291" y="412" name="YPMSCQKM"/>
      <point x="333" y="412" type="curve" smooth="yes" name="DCQCAMJV"/>
      <point x="375" y="412" name="RQQXGWHR"/>
      <point x="389" y="400" name="MZYEHZXR"/>
      <point x="377" y="373" type="curve" smooth="yes" name="GXQDHCHR"/>
      <point x="365" y="346" name="QANXNCTT"/>
      <point x="337" y="322" name="OEMEKUSP"/>
      <point x="295" y="322" type="curve" name="NYPDOCFL"/>
      <point x="295" y="322" name="YEIPQNHA"/>
      <point x="295" y="322" name="PFNSBHCC"/>
    </contour>
    <contour>
      <point x="242" y="17" type="curve" name="QFOIUJWM"/>
      <point x="348" y="34" name="FDMJLFWN"/>
      <point x="483" y="33" name="YIVWLODY"/>
      <point x="639" y="14" type="curve" name="IOBGXHUK"/>
      <point x="604" y="69" name="GZELHTBD"/>
      <point x="577" y="119" name="IDKFTNHH"/>
      <point x="558" y="163" type="curve" name="KWMOGLPT"/>
      <point x="402" y="181" name="SJBRHSMX"/>
      <point x="268" y="182" name="YORCNSXP"/>
      <point x="161" y="166" type="curve" name="YMHTGTBW"/>
      <point x="180" y="122" name="ARKZLWON"/>
      <point x="207" y="72" name="OMFMWTDX"/>
    </contour>
  </outline>
</glyph>
<glyph name="logicalnot" format="2">
  <advance width="510"/>
  <unicode hex="00AC"/>
  <outline>
    <contour>
      <point x="140" y="222" type="curve" name="RLMTCLCA"/>
      <point x="211" y="235" name="ZKWLHIAF"/>
      <point x="297" y="240" name="ECTXGKDD"/>
      <point x="391" y="237" type="curve" name="TCVKFSMG"/>
      <point x="391" y="200" name="YRNOKYNH"/>
      <point x="411" y="148" name="GNJTGJBH"/>
      <point x="453" y="82" type="curve" name="ZWZHWWXK"/>
      <point x="508" y="80" name="BNBYEZFK"/>
      <point x="570" y="75" name="GADVBLYN"/>
      <point x="632" y="68" type="curve" name="HQMXAGMR"/>
      <point x="550" y="198" name="PGVEWBVV"/>
      <point x="550" y="273" name="YUANHNPR"/>
      <point x="632" y="288" type="curve" name="DHNSEKQT"/>
      <point x="462" y="308" name="WMRREARW"/>
      <point x="316" y="308" name="JRVATJXD"/>
      <point x="202" y="288" type="curve" name="CCSHOQGR"/>
      <point x="161" y="281" name="CYJVWVRO"/>
      <point x="140" y="258" name="ATPGGYBJ"/>
    </contour>
  </outline>
</glyph>
<glyph name="hyphensoft" format="2">
  <advance width="340"/>
  <unicode hex="00AD"/>
  <outline>
    <contour>
      <point x="177" y="136" type="curve" name="NAXSEYFM"/>
      <point x="248" y="149" name="CLKUAKZG"/>
      <point x="340" y="149" name="WGWYUDGU"/>
      <point x="447" y="136" type="curve" name="HADMBQWB"/>
      <point x="406" y="201" name="TSVECZAT"/>
      <point x="406" y="239" name="MUGCOTGN"/>
      <point x="447" y="246" type="curve" name="UIBLQZMB"/>
      <point x="340" y="258" name="TTIRTTIM"/>
      <point x="248" y="258" name="BIVOFIHB"/>
      <point x="177" y="246" type="curve" name="HXGJTIKO"/>
      <point x="136" y="239" name="IEVJXQIM"/>
      <point x="136" y="201" name="MJLOLOJS"/>
    </contour>
  </outline>
</glyph>
<glyph name="threesuperior" format="2">
  <advance width="419"/>
  <unicode hex="00B3"/>
  <outline>
    <contour>
      <point x="180" y="378" type="curve" name="LEDVILVL"/>
      <point x="177" y="364" name="EOLMSIYT"/>
      <point x="177" y="346" name="ADCHJUWJ"/>
      <point x="180" y="327" type="curve" name="VKEAGCDD"/>
      <point x="276" y="344" name="EEUNXDCW"/>
      <point x="322" y="330" name="ZXRVWJYT"/>
      <point x="329" y="306" type="curve" smooth="yes" name="DSXWSKUO"/>
      <point x="337" y="279" name="BYVIJXKF"/>
      <point x="282" y="277" name="HFNVJGHY"/>
      <point x="168" y="286" type="curve" name="AKOGIJYP"/>
      <point x="179" y="252" name="FKOKAUAL"/>
      <point x="199" y="211" name="QWPISSDJ"/>
      <point x="226" y="166" type="curve" name="XIWJSCMM"/>
      <point x="378" y="137" name="RTJBWBBX"/>
      <point x="508" y="175" name="INVSWDLO"/>
      <point x="472" y="287" type="curve" smooth="yes" name="OMOAPJRM"/>
      <point x="453" y="347" name="BJYTSTAM"/>
      <point x="412" y="378" name="TMBPVHUL"/>
      <point x="343" y="389" type="curve" name="DQBSGPWM"/>
      <point x="377" y="397" name="XBBTDFYK"/>
      <point x="416" y="405" name="OTTJUTYT"/>
      <point x="456" y="409" type="curve" name="YHHBJGDI"/>
      <point x="470" y="424" name="TXNTJUEW"/>
      <point x="491" y="435" name="DVURYWAB"/>
      <point x="519" y="440" type="curve" name="HBMXTNVK"/>
      <point x="410" y="451" name="DJGWJPXU"/>
      <point x="315" y="450" name="QJPQQOND"/>
      <point x="241" y="437" type="curve" name="CJOJQFXX"/>
      <point x="213" y="432" name="WPPCCCZX"/>
      <point x="191" y="421" name="XPKPXVKD"/>
      <point x="178" y="406" type="curve" name="OTBAJBSF"/>
      <point x="210" y="412" name="UGKUMHTG"/>
      <point x="246" y="415" name="JQDQGSZH"/>
      <point x="284" y="417" type="curve" name="UHCFHCQK"/>
      <point x="246" y="407" name="IKCOODTJ"/>
      <point x="210" y="393" name="DOBAPBWA"/>
    </contour>
  </outline>
</glyph>
<glyph name="acute" format="2">
  <advance width="408"/>
  <unicode hex="00B4"/>
  <anchor x="0" y="517" name="top"/>
  <anchor x="154" y="517" name="center"/>
  <outline>
    <contour>
      <point x="216" y="383" type="curve" name="NPRNXCFM"/>
      <point x="257" y="390" name="DWRLYCLB"/>
      <point x="304" y="394" name="NHDYULFD"/>
      <point x="356" y="393" type="curve" name="IYESGBWR"/>
      <point x="349" y="475" name="AVEBZHHZ"/>
      <point x="400" y="518" name="FVJFYJPZ"/>
      <point x="504" y="522" type="curve" name="YANZWQJP"/>
      <point x="434" y="529" name="SNMFTGOI"/>
      <point x="368" y="533" name="EEWFMEIN"/>
      <point x="312" y="531" type="curve" name="EHFYUEEB"/>
      <point x="226" y="520" name="TSEYCRTF"/>
      <point x="193" y="471" name="OZKSUYRJ"/>
    </contour>
  </outline>
</glyph>
<glyph name="paragraph" format="2">
  <advance width="778"/>
  <unicode hex="00B6"/>
  <outline>
    <contour>
      <point x="653.0" y="-50.52038200428274" type="curve" name="MZLEQTQB"/>
      <point x="514.0" y="170.0969337259201" name="DSCSICLO"/>
      <point x="481.0" y="318.5893577750951" name="YSCMFANE"/>
      <point x="556.0" y="387.88582233137674" type="curve" name="TDTESAMX"/>
      <point x="578.0" y="387.1787155501902" name="YPWCNJJC"/>
      <point x="603.0" y="385.76450198781714" name="QBDEZHOR"/>
      <point x="626.0" y="384.35028842544403" type="curve" name="TEUHKQEY"/>
      <point x="552.0" y="314.34671708797583" name="WBLPTKDG"/>
      <point x="584.0" y="166.5613998199874" name="RHDZPIQO"/>
      <point x="723.0" y="-54.05591591021545" type="curve" name="PRRDGYOX"/>
      <point x="782.0" y="-57.59144981614821" name="KKWUSFVU"/>
      <point x="848.0" y="-63.955410846827135" name="ILGLTHQP"/>
      <point x="913.0" y="-71.73358543987916" type="curve" name="YFHGMPHA"/>
      <point x="734.0" y="213.23044737829952" name="PJKJBVZZ"/>
      <point x="734.0" y="377.27922061357856" name="ANZNCNZV"/>
      <point x="913.0" y="409.0990257669732" type="curve" name="XXHYMCHK"/>
      <point x="747.0" y="428.89801564019655" name="CBQMXOCE"/>
      <point x="594.0" y="436.6761902332486" name="DAZPHISB"/>
      <point x="463.0" y="431.7264427649427" type="curve" smooth="yes" name="CZUNTTHB"/>
      <point x="318.0" y="426.06958851545033" name="EONITPBL"/>
      <point x="155.0" y="404.8563850798539" name="AFTMJHKT"/>
      <point x="119.0" y="334.8528137423857" type="curve" smooth="yes" name="FLGQFDLP"/>
      <point x="83.0" y="264.8492424049175" name="CIUOKCDT"/>
      <point x="198.0" y="193.4314575050762" name="ALSXWIRE"/>
      <point x="328.0" y="199.08831175456856" type="curve" smooth="yes" name="CYPMWFDB"/>
      <point x="340.0" y="199.08831175456856" name="RCBMOAPQ"/>
      <point x="352.0" y="199.79541853575512" name="KCWLFUNW"/>
      <point x="364.0" y="199.79541853575512" type="curve" name="AUMFNCNM"/>
      <point x="384.0" y="131.91316754184658" name="WQJWJZTL"/>
      <point x="424.0" y="48.47456736183395" name="BDLICLPU"/>
      <point x="485.0" y="-48.39906166072308" type="curve" name="DPYCEIAD"/>
      <point x="537.0" y="-46.98484809834997" name="NCTHRZNY"/>
      <point x="595.0" y="-47.691954879536524" name="DCJEZEGG"/>
    </contour>
    <contour>
      <point x="320.0" y="315.0538238691624" type="curve" smooth="yes" name="AWSHWSOJ"/>
      <point x="281.0" y="313.6396103067893" name="ZKQQGHAF"/>
      <point x="257.0" y="331.31727983645294" name="HYNFRSRP"/>
      <point x="267.0" y="352.5304832720494" type="curve" smooth="yes" name="SOLFVFJS"/>
      <point x="278.0" y="373.0365799264593" name="JISBOODZ"/>
      <point x="319.0" y="387.1787155501902" name="XOKDPOET"/>
      <point x="366.0" y="389.30003589374985" type="curve" smooth="yes" name="DYWNDWMK"/>
      <point x="374.0" y="389.30003589374985" name="KMGXJFSJ"/>
      <point x="381.0" y="389.30003589374985" name="JAEEXALU"/>
      <point x="388.0" y="390.0071426749364" type="curve" name="GYPQCZGA"/>
      <point x="368.0" y="370.91525958289964" name="YLFFADLX"/>
      <point x="356.0" y="346.16652224137044" name="WZSKVFHR"/>
      <point x="352.0" y="315.76093065034894" type="curve" name="GXVXEZBS"/>
      <point x="341.0" y="315.76093065034894" name="KIAEGUCB"/>
      <point x="330.0" y="315.76093065034894" name="RRGMPYLC"/>
    </contour>
  </outline>
</glyph>
<glyph name="periodcentered" format="2">
  <advance width="291"/>
  <unicode hex="00B7"/>
  <outline>
    <contour>
      <point x="281.0" y="122.72077938642144" type="curve" name="IIYJKFFO"/>
      <point x="338.0" y="122.72077938642144" name="PIZLQZJV"/>
      <point x="355.0" y="177.87510831897214" name="CSJMOJWP"/>
      <point x="355.0" y="218.18019484660536" type="curve" smooth="yes" name="FFTFUSUJ"/>
      <point x="355.0" y="257.77817459305203" name="CMUDQURN"/>
      <point x="339.0" y="268.3847763108502" name="KSCOADMY"/>
      <point x="281.0" y="269.09188309203677" type="curve" smooth="yes" name="GCOCEVZP"/>
      <point x="222.0" y="269.09188309203677" name="COFAOBXV"/>
      <point x="145.0" y="257.0710678118655" name="KGYNLASF"/>
      <point x="144.0" y="218.18019484660536" type="curve" smooth="yes" name="IYPZZTGZ"/>
      <point x="144.0" y="177.87510831897214" name="MVUERZVW"/>
      <point x="222.0" y="122.72077938642144" name="MMYHTUVM"/>
      <point x="281.0" y="122.72077938642144" type="curve" name="RIJYICPU"/>
      <point x="281.0" y="122.72077938642144" name="XJIDBORQ"/>
      <point x="281.0" y="122.72077938642144" name="ZFAUINCK"/>
    </contour>
  </outline>
</glyph>
<glyph name="cedilla" format="2">
  <advance width="416"/>
  <unicode hex="00B8"/>
  <anchor x="0" y="0" name="bottom"/>
  <anchor x="208" y="0" name="center"/>
  <outline>
    <contour>
      <point x="344" y="-17" type="curve" name="RHCYKBZX"/>
      <point x="353" y="-10" name="AOVKBUAP"/>
      <point x="365" y="-4" name="HVQZRMFL"/>
      <point x="381" y="-1" type="curve" name="SNKJKGFV"/>
      <point x="345" y="0" name="NHEOYBOP"/>
      <point x="309" y="-1" name="LHRTYGRR"/>
      <point x="278" y="-4" type="curve" name="WWABFIYR"/>
      <point x="240" y="-10" name="NMAPKTSF"/>
      <point x="219" y="-29" name="QTXQLUVY"/>
      <point x="217" y="-61" type="curve" name="YAQXYIZX"/>
      <point x="280" y="-52" name="JMHPEARS"/>
      <point x="309" y="-60" name="XGKHCTQS"/>
      <point x="311" y="-77" type="curve" smooth="yes" name="NVEZSSSX"/>
      <point x="314" y="-99" name="BXLZQQMZ"/>
      <point x="251" y="-101" name="PLQKPKAO"/>
      <point x="170" y="-91" type="curve" name="IWFFFPNM"/>
      <point x="174" y="-118" name="LKIXHIOU"/>
      <point x="189" y="-153" name="WTKJSTMV"/>
      <point x="212" y="-193" type="curve" name="TZLFKMBA"/>
      <point x="377" y="-227" name="XPZKEPLA"/>
      <point x="462" y="-179" name="URHNEWTT"/>
      <point x="446" y="-94" type="curve" smooth="yes" name="EWQTVTFV"/>
      <point x="437" y="-42" name="MRONLEWQ"/>
      <point x="402" y="-26" name="JHMGLSLN"/>
      <point x="344" y="-17" type="curve" name="PXYOIIPA"/>
      <point x="344" y="-17" name="SUSUYCIF"/>
      <point x="344" y="-17" name="JXDKAIYC"/>
    </contour>
  </outline>
</glyph>
<glyph name="ordmasculine" format="2">
  <advance width="492"/>
  <unicode hex="00BA"/>
  <outline>
    <contour>
      <point x="318" y="217" type="curve" name="QUXOVDUU"/>
      <point x="438" y="217" name="BVCBBTNR"/>
      <point x="510" y="294" name="FPCCZFFP"/>
      <point x="537" y="360" type="curve" smooth="yes" name="YESOZEVE"/>
      <point x="565" y="426" name="KHFBKNFK"/>
      <point x="535" y="447" name="VKRIMLVT"/>
      <point x="415" y="447" type="curve" smooth="yes" name="OOCZLOWT"/>
      <point x="294" y="447" name="AZSJSAVS"/>
      <point x="145" y="426" name="HSQTDYGW"/>
      <point x="117" y="360" type="curve" smooth="yes" name="DHSFGBMB"/>
      <point x="89" y="294" name="ISVJOWOI"/>
      <point x="197" y="217" name="KJBGFCVW"/>
      <point x="318" y="217" type="curve" name="KZFADUIA"/>
      <point x="318" y="217" name="WHELMLTA"/>
      <point x="318" y="217" name="YDBMGNXG"/>
    </contour>
    <contour>
      <point x="296" y="324" type="curve" name="QSUTQDYL"/>
      <point x="253" y="324" name="CFANXCSY"/>
      <point x="227" y="347" name="WXQYNDQV"/>
      <point x="237" y="373" type="curve" smooth="yes" name="ZGCXROIC"/>
      <point x="248" y="400" name="FQXFVAHC"/>
      <point x="291" y="413" name="KIZGGHVK"/>
      <point x="334" y="413" type="curve" smooth="yes" name="HMMMNZGP"/>
      <point x="377" y="413" name="FKNSRRLL"/>
      <point x="390" y="400" name="CVHONBFO"/>
      <point x="379" y="373" type="curve" smooth="yes" name="PXQKNKVS"/>
      <point x="368" y="347" name="ZSHBWAOQ"/>
      <point x="339" y="324" name="QTLKVVXZ"/>
      <point x="296" y="324" type="curve" name="LDBCGVBK"/>
      <point x="296" y="324" name="WYYWIBMT"/>
      <point x="296" y="324" name="ZFQSGOGB"/>
    </contour>
    <contour>
      <point x="242" y="17" type="curve" name="SGZABZTW"/>
      <point x="344" y="33" name="RNNCDDTT"/>
      <point x="474" y="33" name="ALRKHJZB"/>
      <point x="622" y="17" type="curve" name="DHWYNNUH"/>
      <point x="587" y="72" name="JEPIQCNS"/>
      <point x="560" y="122" name="ASRHQINO"/>
      <point x="541" y="166" type="curve" name="ZUUNGPRK"/>
      <point x="393" y="182" name="BWSWDPXS"/>
      <point x="263" y="182" name="MKCSLKON"/>
      <point x="161" y="166" type="curve" name="FNHLCFUN"/>
      <point x="180" y="122" name="OPQVKVWB"/>
      <point x="207" y="72" name="OUSAHPFC"/>
    </contour>
  </outline>
</glyph>
<glyph name="guillemetright" format="2">
  <advance width="777"/>
  <unicode hex="00BB"/>
  <outline>
    <contour>
      <point x="829" y="130" type="curve" name="AMPZHCJL"/>
      <point x="815" y="181" name="RFOQXAYN"/>
      <point x="815" y="224" name="XQIZNOTS"/>
      <point x="829" y="255" type="curve" name="IEPGGYUR"/>
      <point x="719" y="303" name="SHKCWJNY"/>
      <point x="635" y="333" name="ZNEBJOIX"/>
      <point x="579" y="343" type="curve" name="JASISLUR"/>
      <point x="530" y="334" name="ZTDLJXIM"/>
      <point x="496" y="313" name="LBAPQICY"/>
      <point x="480" y="281" type="curve" name="BMBDOPEY"/>
      <point x="527" y="264" name="RCNSRXFQ"/>
      <point x="582" y="242" name="NLEWGGBM"/>
      <point x="644" y="215" type="curve" name="EKDAQRQW"/>
      <point x="582" y="198" name="OJJQKEIY"/>
      <point x="528" y="174" name="EKIVNDMJ"/>
      <point x="481" y="146" type="curve" name="NYRGEHTE"/>
      <point x="497" y="92" name="MGBPCGFF"/>
      <point x="531" y="24" name="QHURZNDH"/>
      <point x="579" y="-53" type="curve" name="IJGFQMVP"/>
      <point x="635" y="27" name="UGDQJBEO"/>
      <point x="719" y="89" name="IDAHSBQU"/>
    </contour>
    <contour>
      <point x="425" y="154" type="curve" name="TOEAXZMP"/>
      <point x="411" y="205" name="AMLSDUGV"/>
      <point x="411" y="248" name="TAIPUILQ"/>
      <point x="425" y="279" type="curve" name="MPCEJJNR"/>
      <point x="338" y="311" name="VXVPRBOW"/>
      <point x="277" y="324" name="VXASQSOC"/>
      <point x="243" y="319" type="curve" name="QUIYNEWU"/>
      <point x="194" y="310" name="UYVHYRXZ"/>
      <point x="160" y="289" name="VLBFVHOJ"/>
      <point x="144" y="257" type="curve" name="BPYLQXJD"/>
      <point x="179" y="249" name="ZTCTPDAE"/>
      <point x="223" y="234" name="TBPXMZNP"/>
      <point x="272" y="216" type="curve" name="QXHKDTWW"/>
      <point x="223" y="190" name="YWCHJDXE"/>
      <point x="180" y="158" name="LISOLNGB"/>
      <point x="145" y="122" type="curve" name="PDJOIIHT"/>
      <point x="162" y="68" name="JXHKESXU"/>
      <point x="195" y="0" name="CQWOPOLE"/>
      <point x="243" y="-77" type="curve" name="DKPGHRQG"/>
      <point x="277" y="18" name="GXTPBFTL"/>
      <point x="338" y="97" name="FAHKLNOV"/>
    </contour>
  </outline>
</glyph>
<glyph name="onequarter" format="2">
  <advance width="899"/>
  <unicode hex="00BC"/>
  <outline>
    <contour>
      <point x="435" y="437" type="curve" name="DOJSKCES"/>
      <point x="360" y="430" name="LZQLMLLX"/>
      <point x="288" y="421" name="CEUXHATO"/>
      <point x="221" y="408" type="curve" name="VFLGBKOE"/>
      <point x="195" y="401" name="GYUYLWSQ"/>
      <point x="172" y="390" name="GXGXULAK"/>
      <point x="156" y="375" type="curve" name="DPGWRBOT"/>
      <point x="180" y="381" name="PAQZRGVW"/>
      <point x="205" y="386" name="YXAKIJHO"/>
      <point x="230" y="391" type="curve" name="XDFPYGQJ"/>
      <point x="184" y="357" name="MUAKQLNJ"/>
      <point x="169" y="298" name="WFMSEIGQ"/>
      <point x="185" y="220" type="curve" name="VIFUZIMX"/>
      <point x="223" y="225" name="HSLPYDTV"/>
      <point x="262" y="229" name="JNOODAXC"/>
      <point x="303" y="232" type="curve" name="ZASZMIHQ"/>
      <point x="279" y="348" name="KIYKKIND"/>
      <point x="324" y="418" name="LYCFGOLC"/>
    </contour>
    <contour>
      <point x="347" y="-61" type="curve" name="XOPCJLUO"/>
      <point x="386" y="-56" name="JCPSZFPW"/>
      <point x="427" y="-53" name="SXEQUCUO"/>
      <point x="470" y="-51" type="curve" name="KJLPAOAN"/>
      <point x="412" y="242" name="UDSDXUGU"/>
      <point x="545" y="406" name="KUCKSCVB"/>
      <point x="864" y="432" type="curve" name="LVNSHKKM"/>
      <point x="812" y="436" name="XSXLBILZ"/>
      <point x="763" y="438" name="YCNEAQHN"/>
      <point x="714" y="440" type="curve" name="QCNHEXCK"/>
      <point x="404" y="408" name="MVNWKNSQ"/>
      <point x="280" y="237" name="MSQKBQAR"/>
    </contour>
    <contour>
      <point x="603" y="49" type="curve" name="NCNRGMFX"/>
      <point x="667" y="48" name="UKMLERBP"/>
      <point x="735" y="45" name="CCDBLUOZ"/>
      <point x="804" y="40" type="curve" name="ZQDGELHS"/>
      <point x="820" y="10" name="VORAFVYS"/>
      <point x="839" y="-22" name="ULOLBQDE"/>
      <point x="860" y="-55" type="curve" name="ISSDLVPM"/>
      <point x="906" y="-58" name="VTLRQFKU"/>
      <point x="954" y="-63" name="LMUVTPXI"/>
      <point x="1004" y="-68" type="curve" name="RCLFCMBG"/>
      <point x="983" y="-35" name="OEUJTQOH"/>
      <point x="964" y="-2" name="MMKNXRST"/>
      <point x="948" y="27" type="curve" name="YEBYONVT"/>
      <point x="969" y="25" name="WSAQIOTY"/>
      <point x="991" y="23" name="VBVRXCTN"/>
      <point x="1013" y="20" type="curve" name="WWCCRQDC"/>
      <point x="991" y="60" name="BHPMWNKK"/>
      <point x="973" y="99" name="KJFXZLVD"/>
      <point x="960" y="133" type="curve" name="SORLCRHQ"/>
      <point x="939" y="135" name="MERDLWAD"/>
      <point x="916" y="138" name="FKCGZCEM"/>
      <point x="895" y="140" type="curve" name="WCZVGQLG"/>
      <point x="868" y="212" name="PHDRTKMR"/>
      <point x="859" y="271" name="GITXGXNJ"/>
      <point x="869" y="316" type="curve" name="TVHXOSFT"/>
      <point x="799" y="324" name="ZOWGEYSV"/>
      <point x="728" y="329" name="SYYTJBXJ"/>
      <point x="663" y="333" type="curve" name="HRPUUDRS"/>
      <point x="606" y="290" name="QRANYJGU"/>
      <point x="567" y="233" name="WDIAMFXB"/>
      <point x="551" y="162" type="curve" name="RSWWKKDV"/>
      <point x="563" y="128" name="NATCFVZR"/>
      <point x="582" y="89" name="DIDJZJKA"/>
    </contour>
    <contour>
      <point x="688" y="157" type="curve" name="GVZMVHHL"/>
      <point x="695" y="191" name="SRWCBVCV"/>
      <point x="707" y="222" name="IJUITFUR"/>
      <point x="725" y="248" type="curve" name="EYHOOHZD"/>
      <point x="729" y="220" name="KJPYPDIR"/>
      <point x="737" y="188" name="RSSMMGML"/>
      <point x="751" y="153" type="curve" name="ATXVNDEW"/>
      <point x="730" y="155" name="YJEWFJRG"/>
      <point x="709" y="156" name="DBNXGCWB"/>
    </contour>
  </outline>
</glyph>
<glyph name="onehalf" format="2">
  <advance width="940"/>
  <unicode hex="00BD"/>
  <outline>
    <contour>
      <point x="436.0" y="436.6761902332486" type="curve" name="RUTZEJJP"/>
      <point x="360.0" y="430.3122292025696" name="WUEZGHOO"/>
      <point x="289.0" y="420.41273426595797" name="HPDSTLGB"/>
      <point x="222.0" y="407.6848122046001" type="curve" name="VPAIOZJS"/>
      <point x="196.0" y="399.9066376115481" name="DGDTTEKT"/>
      <point x="173.0" y="389.30003589374985" name="NVXKCATZ"/>
      <point x="156.0" y="375.1579002700189" type="curve" name="HCDRSQQP"/>
      <point x="180.0" y="380.8147545195113" name="FPCXZAAM"/>
      <point x="206.0" y="385.0573952066306" name="DQNDACNY"/>
      <point x="231.0" y="390.0071426749364" type="curve" name="GJSZJDDO"/>
      <point x="185.0" y="356.06601717798213" name="XMLWOISH"/>
      <point x="170.0" y="297.37615433949867" name="PCYKBOZF"/>
      <point x="186.0" y="219.59440840897847" type="curve" name="NWZJSPOI"/>
      <point x="224.0" y="224.54415587728428" name="HRWRUFGL"/>
      <point x="263.0" y="228.78679656440357" name="GMZFZBUD"/>
      <point x="304.0" y="231.61522368914976" type="curve" name="VBJAVNOV"/>
      <point x="280.0" y="346.873629022557" name="YJKAQZUL"/>
      <point x="324.0" y="417.58430714121175" name="QZKVWVAB"/>
    </contour>
    <contour>
      <point x="348.0" y="-61.834090503267475" type="curve" name="PJOORYDM"/>
      <point x="387.0" y="-56.88434303496166" name="PFVCSALZ"/>
      <point x="428.0" y="-53.34880912902889" name="YGDBRUJX"/>
      <point x="470.0" y="-50.52038200428274" type="curve" name="PMEQWVDX"/>
      <point x="412.0" y="241.51471862576142" name="EDVIJPLT"/>
      <point x="544.0" y="406.97770542341357" name="NGHRKTBA"/>
      <point x="862.0" y="433.1406563273158" type="curve" name="ZMFKNJNY"/>
      <point x="811.0" y="436.6761902332486" name="JEDILBYN"/>
      <point x="761.0" y="439.5046173579948" name="EJXNCGBL"/>
      <point x="713.0" y="440.91883092036784" type="curve" name="YAZNDQGU"/>
      <point x="404.0" y="408.3919189857867" name="XMHPAVAS"/>
      <point x="280.0" y="237.27207793864216" name="OPMTTYHL"/>
    </contour>
    <contour>
      <point x="749.0" y="-48.39906166072308" type="curve" name="CIDMPPEV"/>
      <point x="855.0" y="-51.93459556665579" name="DMYPCBYK"/>
      <point x="971.0" y="-61.12698372208092" name="FVOVKNYV"/>
      <point x="1092.0" y="-75.26911934581187" type="curve" name="CIXJJKPI"/>
      <point x="1063.0" y="-29.30717856868631" name="IRNJDKKA"/>
      <point x="1038.0" y="15.240548646066202" name="WNXWUHMK"/>
      <point x="1018.0" y="54.83852839251287" type="curve" name="DQOTAUVA"/>
      <point x="967.0" y="61.20248942319179" name="QKASWYAN"/>
      <point x="916.0" y="66.15223689149764" name="GKTRFTIE"/>
      <point x="868.0" y="70.39487757861693" type="curve" name="AIVASQNH"/>
      <point x="879.0" y="81.70858607760167" name="AXDUHDYE"/>
      <point x="889.0" y="92.31518779539988" name="PNYEIQCU"/>
      <point x="901.0" y="102.92178951319809" type="curve" smooth="yes" name="XERXJWNI"/>
      <point x="950.0" y="147.4695167279506" name="UINJPVTO"/>
      <point x="966.0" y="187.77460325558383" name="OPGEQIMV"/>
      <point x="961.0" y="227.37258300203047" type="curve" smooth="yes" name="XVSQLDZN"/>
      <point x="949.0" y="306.5685424949238" name="NGQQQUGR"/>
      <point x="823.0" y="356.7731239591687" name="YYHJPEXG"/>
      <point x="620.0" y="330.61017305526644" type="curve" name="QCABFAYO"/>
      <point x="615.0" y="305.1543289325507" name="SJDALRVM"/>
      <point x="615.0" y="276.16295090390224" name="VEUMMKRU"/>
      <point x="622.0" y="242.22182540694797" type="curve" name="TBFRANCJ"/>
      <point x="721.0" y="266.2634559672906" name="VXIMRFWV"/>
      <point x="791.0" y="254.2426406871193" name="UUXXWDJE"/>
      <point x="799.0" y="219.59440840897847" type="curve" smooth="yes" name="DOPPYMAL"/>
      <point x="803.0" y="202.6238456605013" name="FADOEKSB"/>
      <point x="786.0" y="187.06749647439727" name="ZRVLANZE"/>
      <point x="747.0" y="155.95479810218916" type="curve" smooth="yes" name="HNFXDCCQ"/>
      <point x="720.0" y="134.03448788540618" name="OCJQRKMY"/>
      <point x="695.0" y="108.57864376269049" name="QIJVWYXK"/>
      <point x="674.0" y="82.41569285878822" type="curve" name="NACEDHDM"/>
      <point x="694.0" y="42.81771311234155" name="XNWZDAGA"/>
      <point x="720.0" y="-2.437120883597487" name="UOUPBTER"/>
    </contour>
  </outline>
</glyph>
<glyph name="threequarters" format="2">
  <advance width="960"/>
  <unicode hex="00BE"/>
  <outline>
    <contour>
      <point x="403.0" y="-57.59144981614821" type="curve" name="ITSQTXFS"/>
      <point x="443.0" y="-53.34880912902889" name="DZSRYTNK"/>
      <point x="484.0" y="-49.813275223096184" name="YSUMDOMF"/>
      <point x="527.0" y="-47.691954879536524" type="curve" name="NXMYRXBV"/>
      <point x="470.0" y="243.63603896932108" name="LCKMKBUW"/>
      <point x="608.0" y="404.8563850798539" name="BZJPQACK"/>
      <point x="934.0" y="425.36248173426384" type="curve" name="DIGUTWEV"/>
      <point x="883.0" y="428.89801564019655" name="ULAJGXOG"/>
      <point x="833.0" y="431.7264427649427" name="RTSULTPL"/>
      <point x="784.0" y="433.84776310850236" type="curve" name="CBRXFAIU"/>
      <point x="466.0" y="407.6848122046001" name="ZAJWQPQE"/>
      <point x="337.0" y="240.10050506338834" name="OXOJBIMC"/>
    </contour>
    <contour>
      <point x="199.0" y="361.7228714274745" type="curve" name="KKWBFPBR"/>
      <point x="189.0" y="352.5304832720494" name="OXSHYDZJ"/>
      <point x="181.0" y="340.5096679918781" name="YGJGZKRL"/>
      <point x="176.0" y="327.78174593052023" type="curve" name="JJVFOYDS"/>
      <point x="271.0" y="345.4594154601839" name="SKQJWWYT"/>
      <point x="303.0" y="341.2167747730646" name="GRQREFFY"/>
      <point x="298.0" y="324.9533188057741" type="curve" smooth="yes" name="LXXUTYSP"/>
      <point x="293.0" y="307.27564927611036" name="FTKBDXWY"/>
      <point x="248.0" y="298.0832611206852" name="UOVVNKQT"/>
      <point x="147.0" y="298.7903679018718" type="curve" name="WBEQLXSG"/>
      <point x="142.0" y="276.16295090390224" name="YNKBLDAY"/>
      <point x="142.0" y="249.29289321881345" name="DQOOYZZB"/>
      <point x="147.0" y="219.59440840897847" type="curve" name="SIFOYMVP"/>
      <point x="274.0" y="207.57359312880715" name="DANLEKQA"/>
      <point x="395.0" y="252.82842712474618" name="LVHLYTUW"/>
      <point x="412.0" y="327.0746391493337" type="curve" smooth="yes" name="QUAPCAQH"/>
      <point x="421.0" y="367.3797256769669" name="UJDSOLVH"/>
      <point x="402.0" y="382.22896808188443" name="VPTPVUXT"/>
      <point x="347.0" y="383.6431816442575" type="curve" name="IBHPRSTN"/>
      <point x="380.0" y="392.8355697996826" name="JGALYPSR"/>
      <point x="417.0" y="401.32085117392114" name="SSBIIWPE"/>
      <point x="453.0" y="408.3919189857867" type="curve" name="SLACBNVL"/>
      <point x="473.0" y="418.99852070358486" name="DMBPHLKS"/>
      <point x="497.0" y="428.19090885901" name="PRLTSNQY"/>
      <point x="525.0" y="433.1406563273158" type="curve" name="STTODGBW"/>
      <point x="439.0" y="428.19090885901" name="DKSHBGZR"/>
      <point x="355.0" y="419.7056274847714" name="DLWRYLWM"/>
      <point x="281.0" y="406.270598642227" type="curve" name="HWSPJWDQ"/>
      <point x="253.0" y="401.32085117392114" name="EAQQUUPO"/>
      <point x="228.0" y="392.8355697996826" name="BXMZGPKP"/>
      <point x="209.0" y="381.5218613006979" type="curve" name="FOWHMWYI"/>
      <point x="241.0" y="387.1787155501902" name="ICZPJGWA"/>
      <point x="275.0" y="392.12846301849606" name="WRHGBTGP"/>
      <point x="309.0" y="396.3711037056154" type="curve" name="NJXCLPSO"/>
      <point x="271.0" y="386.4716087690037" name="RTKXKSLG"/>
      <point x="233.0" y="374.45079348883235" name="AFOBFQCU"/>
    </contour>
    <contour>
      <point x="920.0" y="-54.763022691402" type="curve" name="PEMFCLNQ"/>
      <point x="967.0" y="-58.298556597334766" name="MIMJPUQF"/>
      <point x="1015.0" y="-62.54119728445403" name="TLAYDJIT"/>
      <point x="1064.0" y="-67.49094475275984" type="curve" name="NEEXXYDP"/>
      <point x="1043.0" y="-34.25692603699213" name="OZDALPZS"/>
      <point x="1024.0" y="-1.7300141024109337" name="BJZUETNW"/>
      <point x="1008.0" y="27.968470707424075" type="curve" name="SGVXLOZG"/>
      <point x="1029.0" y="25.847150363864415" name="LLXRWKBK"/>
      <point x="1052.0" y="23.01872323911823" name="SEMEAYQD"/>
      <point x="1073.0" y="20.8974028955586" type="curve" name="MTSVDVTD"/>
      <point x="1052.0" y="60.49538264200524" name="AVWLNQPQ"/>
      <point x="1034.0" y="99.38625560726535" name="BDGCSFRN"/>
      <point x="1021.0" y="133.32738110421965" type="curve" name="QEOANEEJ"/>
      <point x="1000.0" y="135.44870144777929" name="XENOYOTV"/>
      <point x="977.0" y="138.2771285725255" name="FNSZJFMR"/>
      <point x="956.0" y="140.39844891608513" type="curve" name="XVDMRISJ"/>
      <point x="929.0" y="211.81623381592644" name="CXBLSYQI"/>
      <point x="922.0" y="269.7989898732233" name="LGRFTFSS"/>
      <point x="934.0" y="313.6396103067893" type="curve" name="OXOOZQTT"/>
      <point x="863.0" y="321.4177848998413" name="TJEPTVEY"/>
      <point x="792.0" y="327.0746391493337" name="VJDFGRWJ"/>
      <point x="727.0" y="330.61017305526644" type="curve" name="QCDXDUHU"/>
      <point x="668.0" y="289.59797974644664" name="WDSCKMLY"/>
      <point x="627.0" y="233.73654403270942" name="OZRUOMTL"/>
      <point x="610.0" y="163.02586591405463" type="curve" name="WGAUZUGY"/>
      <point x="623.0" y="129.08474041710036" name="MIXYEITA"/>
      <point x="641.0" y="90.19386745184025" name="HLIAFNTF"/>
      <point x="662.0" y="50.59588770539358" type="curve" name="XNTKSYCS"/>
      <point x="726.0" y="49.1816741430205" name="CIGNQCIM"/>
      <point x="795.0" y="45.646140237087764" name="OTUCURTO"/>
      <point x="864.0" y="40.69639276878192" type="curve" name="BWVYEBWS"/>
      <point x="880.0" y="10.99790795894691" name="AOTKAJKR"/>
      <point x="899.0" y="-21.529003975634282" name="HZJAEEAV"/>
    </contour>
    <contour>
      <point x="749.0" y="157.36901166456227" type="curve" name="OFEWJPPM"/>
      <point x="757.0" y="190.60303038033" name="QOESGAXY"/>
      <point x="769.0" y="221.00862197135154" name="TLKSXWRM"/>
      <point x="786.0" y="247.87867965644037" type="curve" name="FEUOBJJM"/>
      <point x="790.0" y="219.59440840897847" name="NXSBFZWE"/>
      <point x="799.0" y="187.77460325558383" name="EVJPZTFU"/>
      <point x="812.0" y="153.126370977443" type="curve" name="RGEQSROA"/>
      <point x="791.0" y="154.54058453981608" name="ZLMKWGFV"/>
      <point x="770.0" y="155.95479810218916" name="IWRBJIFJ"/>
    </contour>
  </outline>
</glyph>
<glyph name="questiondown" format="2">
  <advance width="511"/>
  <unicode hex="00BF"/>
  <outline>
    <contour>
      <point x="465" y="370" type="curve" name="YECRBNNP"/>
      <point x="406" y="371" name="SRCWJPJX"/>
      <point x="323" y="363" name="OXWXWZBG"/>
      <point x="290" y="346" type="curve" smooth="yes" name="QELHEGYC"/>
      <point x="259" y="328" name="RYMPLQIT"/>
      <point x="289" y="308" name="OCWHMHQN"/>
      <point x="348" y="306" type="curve" smooth="yes" name="SFMLCROW"/>
      <point x="409" y="305" name="AIWLGHOS"/>
      <point x="477" y="323" name="KLIMBOPR"/>
      <point x="508" y="341" type="curve" smooth="yes" name="KBNNMNFQ"/>
      <point x="540" y="359" name="TTPWSCLO"/>
      <point x="526" y="368" name="TFUKXRGR"/>
      <point x="465" y="370" type="curve" name="OIGXKBGA"/>
      <point x="465" y="370" name="LLKQSHHM"/>
      <point x="465" y="370" name="IWLOBWTO"/>
    </contour>
    <contour>
      <point x="243" y="245" type="curve" name="OBEWRWOV"/>
      <point x="140" y="222" name="CYOGBRHQ"/>
      <point x="73" y="176" name="RBLPVHHU"/>
      <point x="110" y="75" type="curve" smooth="yes" name="XKMFYQFO"/>
      <point x="170" y="-88" name="IHKVSHAU"/>
      <point x="387" y="-158" name="HLPBQAQH"/>
      <point x="658" y="-112" type="curve" name="HDFEXMMK"/>
      <point x="616" y="-42" name="IMJXYUHZ"/>
      <point x="585" y="20" name="BEZTUAIW"/>
      <point x="565" y="74" type="curve" name="ZLFVBKQV"/>
      <point x="421" y="41" name="ZGKYNHXN"/>
      <point x="272" y="50" name="FWCGHAQY"/>
      <point x="252" y="108" type="curve" smooth="yes" name="TQNWFYQX"/>
      <point x="241" y="141" name="WKIYYHIQ"/>
      <point x="283" y="161" name="EVLYVQAW"/>
      <point x="423" y="160" type="curve" name="RKSHWXGD"/>
      <point x="413" y="204" name="WCKRYZNX"/>
      <point x="412" y="244" name="SEBMTUDG"/>
      <point x="422" y="274" type="curve" name="HNXHPWPC"/>
      <point x="363" y="278" name="CIQELMXV"/>
      <point x="304" y="279" name="OEMXFIZJ"/>
      <point x="252" y="278" type="curve" name="BLVNMSEE"/>
      <point x="248" y="268" name="AWVBJAUW"/>
      <point x="244" y="257" name="FBVPEVCY"/>
    </contour>
  </outline>
</glyph>
<glyph name="Agrave" format="2">
  <advance width="657"/>
  <unicode hex="00C0"/>
  <outline>
    <contour>
      <point x="485.0" y="550.5203820042827" type="curve" name="OWVKUMDP"/>
      <point x="479.0" y="577.3904396893715" name="GHGPGVKZ"/>
      <point x="484.0" y="597.1894295625948" name="DTJZROHV"/>
      <point x="503.0" y="606.38181771802" type="curve" name="HMMPFJIE"/>
      <point x="445.0" y="605.6747109368334" name="UOKOGDZJ"/>
      <point x="388.0" y="602.8462838120872" name="AJAWCNNN"/>
      <point x="336.0" y="597.8965363437815" type="curve" name="IHUPJILN"/>
      <point x="321.0" y="591.5325753131025" name="OLFLHDOE"/>
      <point x="319.0" y="575.9762261269984" name="TNMHHIVG"/>
      <point x="330.0" y="551.2274887854693" type="curve" name="KFCOREVE"/>
      <point x="379.0" y="552.6417023478423" name="IEAYKDPP"/>
      <point x="432.0" y="551.9345955666558" name="ORTOKUXO"/>
    </contour>
    <contour>
      <point x="232.0" y="-90.82546853191593" type="curve" name="FILRSMXN"/>
      <point x="278.0" y="-82.34018715767735" name="HWGZYCLR"/>
      <point x="329.0" y="-75.97622612699843" name="RXLLWDUG"/>
      <point x="382.0" y="-72.44069222106572" type="curve" name="KOVVDPSP"/>
      <point x="359.0" y="-16.57925650732841" name="UBYKTRYB"/>
      <point x="341.0" y="35.03953851928955" name="HVJQLSCN"/>
      <point x="327.0" y="84.53701320234788" type="curve" name="FVOFIHQX"/>
      <point x="398.0" y="88.07254710828062" name="BCUKGXIA"/>
      <point x="475.0" y="88.07254710828062" name="YIWLFJTJ"/>
      <point x="556.0" y="84.53701320234788" type="curve" name="CZMFWXRH"/>
      <point x="595.0" y="35.746645300476075" name="ZKKAJZYP"/>
      <point x="638.0" y="-16.57925650732841" name="ECIFVMRA"/>
      <point x="687.0" y="-72.44069222106572" type="curve" name="KGPUFPDD"/>
      <point x="750.0" y="-75.97622612699843" name="CQBIWHST"/>
      <point x="819.0" y="-82.34018715767735" name="CRFUKUZN"/>
      <point x="889.0" y="-90.82546853191593" type="curve" name="EGNWEDZY"/>
      <point x="627.0" y="204.0380592228744" name="XSJPXYZY"/>
      <point x="493.0" y="412.63455967290594" name="KXVXUJGI"/>
      <point x="495.0" y="520.8218971944477" type="curve" name="DWYIJEWK"/>
      <point x="410.0" y="525.064537881567" name="RZFCCAAD"/>
      <point x="329.0" y="525.064537881567" name="QRTBBBXP"/>
      <point x="256.0" y="520.8218971944477" type="curve" name="AAMGOUDO"/>
      <point x="115.0" y="413.3416664540925" name="QCMVQFMD"/>
      <point x="108.0" y="204.0380592228744" name="HYWVQOOG"/>
    </contour>
    <contour>
      <point x="301.0" y="239.3933982822018" type="curve" name="LJIHLFEM"/>
      <point x="296.0" y="315.0538238691624" name="ZPAVNFTO"/>
      <point x="310.0" y="379.4005409571382" name="HMUKRVCC"/>
      <point x="338.0" y="431.7264427649427" type="curve" name="EILEONVY"/>
      <point x="356.0" y="379.4005409571382" name="PEGJOJGS"/>
      <point x="391.0" y="315.0538238691624" name="NJYRJZVW"/>
      <point x="442.0" y="239.3933982822018" type="curve" name="YYUXSHXY"/>
      <point x="393.0" y="240.8076118445749" name="RQIYQNMV"/>
      <point x="346.0" y="240.8076118445749" name="JJQZZXJH"/>
    </contour>
  </outline>
</glyph>
